<?xml version="1.0" encoding="utf-8"?>
<!-- Generator: Adobe Illustrator 21.1.0, SVG Export Plug-In . SVG Version: 6.00 Build 0)  -->
<svg version="1.1" id="Layer_1" xmlns="http://www.w3.org/2000/svg" xmlns:xlink="http://www.w3.org/1999/xlink" x="0px" y="0px"
	 width="115px" height="304px" viewBox="0 0 115 304" style="enable-background:new 0 0 115 304;" xml:space="preserve">
<style type="text/css">
	.st0{display:none;}
	.st1{display:inline;}
	.st2{fill:#FFFFFF;}
	.st3{display:inline;fill:#FFFFFF;}
</style>
<g class="st0">
	<g class="st1">
		<g>
			<path class="st2" d="M46.5,300.1c-0.2,0-0.3,0-0.5,0c-3.1-0.4-7.3-4.4-12.3-32.2c-3.3-18.3-5.3-38.4-6.1-50.1
				c-0.8-12.7,0-76.1,0-78.8h3.5c0,0.7-0.8,66,0,78.5c0.8,11.6,2.8,31.6,6,49.8c5.1,28.5,9,29.3,9.2,29.3l0,0c0,0,1.5-0.3,3.5-6.7
				c2.6-8.4,5.6-32.3,6.6-40.2c3.8-30.7,2.6-47.2,2.6-47.4l3.5-0.3c0.1,0.7,1.3,17-2.6,48.1c-1.7,13.8-4.3,33-6.7,40.8
				C52,295.2,50,300.1,46.5,300.1z"/>
		</g>
		<g>
			<path class="st2" d="M73.9,298.3c-3.6,0-6.2-4.8-8.2-15c-5.6-29.7-6.6-63.5-6.7-63.9l3.5-0.1c0,0.3,1,33.9,6.6,63.3
				c2.3,11.9,4.7,12.2,4.7,12.2l0,0c0.7,0,3.1-2.2,5.6-11.2c2.2-7.8,3.8-18.2,4.4-29.1c1.3-22,2.6-57.3,2.7-58.9L86,174.8
				c-0.1-1.8-0.1-3.2-0.1-4.1l-1.6-31.5v-0.1c0-0.9,0.7-1.7,1.7-1.8c1,0,1.8,0.7,1.9,1.7l1.6,31.6l0,0l0,0l0,0l0,0l0,0l0.1,5.7
				c0.6,11.9,2.7,32.9,3.7,35c1,1.9,1.7,2,1.7,2s3.2-0.9,6-19.4c2-13,3.2-30.4,3.3-49.1c0.3-34.8-19.1-39.5-20.8-39.8H32.4
				c-2,0.4-20.9,4.5-21.4,24.7c-0.7,28.1,3.3,57.6,3.8,60.9c1.9,13.4,5.3,17.7,6.6,17.6c1.3-0.1,6.3-6.2,6-34.3c0-1.3,0-2.6,0-3.9
				c-0.1-8-0.2-18,0.4-29.6l3.5,0.2c-0.6,11.4-0.5,21.4-0.4,29.3c0,1.4,0,2.7,0,4c0.1,11.2-0.6,37.2-9.3,37.8c-0.1,0-0.2,0-0.3,0
				c-6.4,0-9.1-14.4-10-20.6c-0.5-3.3-4.5-33.1-3.8-61.5c0.3-12.5,7-19.5,12.5-23.2c5.9-3.9,11.7-5,12-5c0.1,0,0.2,0,0.3,0H84
				c0.1,0,0.2,0,0.3,0c0.3,0,6.3,1,12.3,7c5.4,5.4,11.8,16.1,11.6,36.4c-0.1,18.5-1.3,36-3.3,49.1c-0.9,5.9-3.3,21.4-8.7,22.8
				c-2.1,0.5-4-0.7-5.6-3.7c-0.2-0.4-0.5-1.3-0.8-2.6c-0.5,12.7-1.3,30.9-2.1,44.3c-1,17.3-5.5,43.2-13.4,43.7
				C74.1,298.2,74,298.3,73.9,298.3z"/>
		</g>
		<g>
			<path class="st2" d="M56.1,94.3c-18.5,0-33.6-15.1-33.6-33.6s15.1-33.6,33.6-33.6s33.6,15.1,33.6,33.6S74.6,94.3,56.1,94.3z
				 M56.1,30.6c-16.6,0-30,13.5-30,30c0,16.6,13.5,30,30,30s30-13.5,30-30S72.7,30.6,56.1,30.6z"/>
		</g>
	</g>
	<g class="st1">
		<path class="st2" d="M56.7,77.5c-3.7,0-6.9-1.6-8.6-3l2.2-2.7c0.3,0.2,6.2,4.9,12.2,0l2.2,2.7C62.1,76.7,59.3,77.5,56.7,77.5z"/>
	</g>
	<g class="st1">
		
			<ellipse transform="matrix(0.9961 -8.768842e-02 8.768842e-02 0.9961 -4.8399 4.4115)" class="st2" cx="47.8" cy="57.3" rx="3.8" ry="3.8"/>
	</g>
	<g class="st1">
		
			<ellipse transform="matrix(0.9961 -8.768842e-02 8.768842e-02 0.9961 -4.7749 5.9022)" class="st2" cx="64.8" cy="57.3" rx="3.8" ry="3.8"/>
	</g>
</g>
<g>
	<g>
		<g>
			<path class="st2" d="M46.3,300.1c-0.2,0-0.3,0-0.5,0c-3.1-0.4-7.3-4.4-12.3-32.2c-3.3-18.3-5.3-38.4-6.1-50.1
				c-0.8-12.7,0-76.1,0-78.8h3.5c0,0.7-0.8,66,0,78.5c0.8,11.6,2.8,31.6,6,49.8c5.1,28.5,9,29.3,9.2,29.3l0,0c0,0,1.5-0.3,3.5-6.7
				c2.6-8.4,5.6-32.3,6.6-40.2c3.8-30.7,2.6-47.2,2.6-47.4l3.5-0.3c0.1,0.7,1.3,17-2.6,48.1c-1.7,13.8-4.3,33-6.7,40.8
				C51.8,295.2,49.8,300.1,46.3,300.1z"/>
		</g>
		<g>
			<path class="st2" d="M73.7,298.3c-3.6,0-6.2-4.8-8.2-15c-5.6-29.7-6.6-63.5-6.7-63.9l3.5-0.1c0,0.3,1,33.9,6.6,63.3
				c2.3,12.1,4.7,12.2,4.7,12.2c0.7,0,3.1-2.2,5.6-11.2c2.2-7.8,3.8-18.2,4.4-29.1c1.3-22,2.6-57.3,2.7-58.9l-0.5-20.8
				c-0.1-1.8-0.1-3.2-0.1-4.2l-1.6-31.5V139c0-0.9,0.7-1.7,1.7-1.8c1,0,1.8,0.7,1.9,1.7l1.6,31.6l0,0l0,0l0,0l0,0l0.1,5.7
				c0.6,11.9,2.7,32.9,3.7,35c1,1.9,1.7,2,1.7,2s3.2-0.9,6-19.4c2-13,3.2-30.4,3.3-49C104.4,110,85,105.3,83.3,105H32.2
				c-2,0.4-20.9,4.5-21.4,24.7c-0.7,28.1,3.3,57.6,3.8,60.9c1.9,13.3,5.2,17.6,6.5,17.6l0,0c1.3-0.1,6.3-6.2,6-34.3
				c0-1.3,0-2.6,0-3.9c-0.1-8-0.2-18,0.4-29.6l3.5,0.2c-0.6,11.4-0.5,21.4-0.4,29.3c0,1.4,0,2.7,0,3.9c0.1,11.2-0.6,37.2-9.3,37.8
				c-0.1,0-0.2,0-0.3,0c-6.4,0-9.1-14.4-10-20.6c-0.5-3.3-4.5-33.1-3.8-61.5c0.3-12.5,7-19.5,12.5-23.2c5.9-3.9,11.7-5,12-5
				c0.1,0,0.2,0,0.3,0h51.7c0.1,0,0.2,0,0.3,0c0.3,0,6.3,1,12.3,7c5.4,5.4,11.8,16.1,11.6,36.4c-0.1,18.5-1.3,36-3.3,49.1
				c-0.9,5.9-3.3,21.4-8.7,22.8c-2.1,0.5-4-0.7-5.6-3.7c-0.2-0.4-0.5-1.3-0.8-2.6c-0.5,12.7-1.3,30.9-2.1,44.3
				c-1,17.3-5.5,43.2-13.4,43.7C73.9,298.2,73.8,298.3,73.7,298.3z"/>
		</g>
		<g>
			<path class="st2" d="M55.9,94.3c-18.5,0-33.6-15.1-33.6-33.6c0-5.4,1.2-10.5,3.7-15.3l3.2,1.6c-2.2,4.2-3.3,8.8-3.3,13.7
				c0,16.6,13.5,30,30,30s30-13.5,30-30c0-5.3-2.3-11.8-4.5-15.9l3.1-1.7c2.3,4.2,4.9,11.3,4.9,17.6C89.5,79.2,74.4,94.3,55.9,94.3z
				"/>
		</g>
	</g>
	<g>
		<path class="st2" d="M45.6,65.5c-3,0-5.8-1.2-7.3-2.3l2.1-2.9l-1,1.4l1-1.4c0.2,0.2,5.3,3.6,9.5,0.1l2.3,2.7
			C50,64.9,47.7,65.5,45.6,65.5z"/>
	</g>
	<g>
		<path class="st2" d="M67.1,65.5c-3,0-5.8-1.2-7.3-2.3l2.1-2.9l-1,1.4l1-1.4c0.2,0.2,5.3,3.6,9.5,0.1l2.3,2.7
			C71.5,64.9,69.2,65.5,67.1,65.5z"/>
	</g>
	<g>
		<path class="st2" d="M52.1,50.2c-17.6,0-28.3-4.3-28.7-4.5c-0.4-0.2-0.8-0.5-1-1c-0.2-0.4-0.2-0.9,0-1.4
			c13-29.8,20.9-36,36.5-38.8c20.2-3.6,38.6,8.9,40.5,10.8c1.4,1.4,1.7,3.7,0.8,5.6c-0.9,1.8-2.6,2.9-4.5,2.7
			c-0.6-0.1-1.7-0.2-3.5-0.5c-3-0.5-11-1.8-14.8-1.8c-0.1,0-0.1,0-0.2,0c5.4,5.7,11.8,19.4,12.1,20c0.2,0.5,0.2,1,0,1.4
			c-0.2,0.5-0.6,0.8-1,1C87.6,44,69.7,50.2,52.1,50.2z M26.5,43c3.6,1.2,12.7,3.7,25.6,3.7c13.7,0,28.1-4.1,33.1-5.7
			c-2.1-4.2-7.3-14.4-11.3-18c-1.6-1.5-1.5-2.7-1.1-3.5c1.1-2.4,5.2-2.3,20,0.1c1.5,0.2,2.8,0.5,3.2,0.5s0.8-0.2,1-0.7
			c0.3-0.6,0.2-1.3-0.1-1.6C95.2,16.1,78.3,4.7,59.5,8C46.4,10.3,39.2,14.4,26.5,43z M76,20.1L76,20.1L76,20.1z"/>
	</g>
	<g>
		<path class="st2" d="M103.2,32.8c-4.4,0-8-3.6-8-8s3.6-8,8-8s8,3.6,8,8S107.6,32.8,103.2,32.8z M103.2,20.4c-2.4,0-4.4,2-4.4,4.4
			s2,4.4,4.4,4.4s4.4-2,4.4-4.4S105.7,20.4,103.2,20.4z"/>
	</g>
	<g>
		<path class="st2" d="M55.3,84.7c-10,0-12.1-3-12.1-5.5c0-5.2,9.5-6.4,12.9-6.4c4.8,0,12.9,1.3,12.9,6
			C68.9,84.4,57.6,84.7,55.3,84.7z M56.1,76.4c-4.8,0-9.3,1.8-9.3,2.8c0,0.8,2.7,2,8.5,2c6.2,0,10.1-1.6,10.1-2.3
			c0-0.3-0.7-1-2.7-1.6C60.5,76.6,57.8,76.4,56.1,76.4z"/>
	</g>
	<g class="st0">
		<path class="st3" d="M-61,34.6l5.6-7.1c0.8-0.9,1.4-1.6,2.2-2.5v-0.1h-7.3v-3h11.7v2.3l-5.4,6.9c-0.7,0.9-1.4,1.7-2.2,2.5v0.1h7.8
			v3H-61V34.6z"/>
		<path class="st3" d="M-33.5,52.8l5.6-7.1c0.8-0.9,1.4-1.6,2.2-2.5v-0.1h-7.2v-3h11.7v2.3l-5.4,6.9c-0.7,0.9-1.4,1.7-2.2,2.5V52
			h7.8v3h-12.5V52.8z"/>
		<path class="st3" d="M-6.4,71l5.6-7.1C0,63,0.6,62.3,1.4,61.4v-0.1h-7.2v-3H5.9v2.3l-5.4,6.9c-0.7,0.9-1.4,1.7-2.2,2.5v0.1h7.8v3
			H-6.4V71z"/>
	</g>
</g>
<g class="st0">
	<g class="st1">
		<g>
			<path class="st2" d="M46.5,300.1c-0.2,0-0.3,0-0.5,0c-3.1-0.4-7.3-4.4-12.3-32.2c-3.3-18.3-5.3-38.4-6.1-50.1
				c-0.8-12.7,0-76.1,0-78.8h3.5c0,0.7-0.8,66,0,78.5c0.8,11.6,2.8,31.6,6,49.8c5.1,28.5,9,29.3,9.2,29.3l0,0c0,0,1.5-0.3,3.5-6.7
				c2.6-8.4,5.6-32.3,6.6-40.2c3.8-30.7,2.6-47.2,2.6-47.4l3.5-0.3c0.1,0.7,1.3,17-2.6,48.1c-1.7,13.8-4.3,33-6.7,40.8
				C52,295.2,50,300.1,46.5,300.1z"/>
		</g>
		<g>
			<path class="st2" d="M73.9,298.3c-3.6,0-6.2-4.8-8.2-15c-5.6-29.7-6.6-63.5-6.7-63.9l3.5-0.1c0,0.3,1,33.9,6.6,63.3
				c2.3,12.1,4.7,12.2,4.7,12.2c0.7,0,3.1-2.2,5.6-11.2c2.2-7.8,3.8-18.2,4.4-29.1c1.3-22,2.6-57.3,2.7-58.9L86,174.8
				c-0.1-1.8-0.1-3.2-0.1-4.1l-1.6-31.5v-0.1c0-0.9,0.7-1.7,1.7-1.8c1,0,1.8,0.7,1.9,1.7l1.6,31.6l0,0l0,0l0,0l0,0l0,0l0.1,5.7
				c0.6,11.9,2.7,32.9,3.7,35c1,1.9,1.7,2,1.7,2s3.2-0.9,6-19.4c2-13,3.2-30.4,3.3-49c0.3-34.8-19.1-39.5-20.8-39.8H32.4
				c-2,0.4-20.9,4.5-21.4,24.7c-0.7,28.1,3.3,57.6,3.8,60.9c1.9,13.4,5.3,17.7,6.6,17.6c1.3-0.1,6.3-6.2,6-34.3c0-1.3,0-2.6,0-3.9
				c-0.1-8-0.2-18,0.4-29.6l3.5,0.2c-0.6,11.4-0.5,21.4-0.4,29.3c0,1.4,0,2.7,0,4c0.1,11.2-0.6,37.2-9.3,37.8c-0.1,0-0.2,0-0.3,0
				c-6.4,0-9.1-14.4-10-20.6c-0.5-3.3-4.6-33.1-3.8-61.5c0.3-12.5,7-19.5,12.5-23.2c5.9-3.9,11.7-5,12-5c0.1,0,0.2,0,0.3,0H84
				c0.1,0,0.2,0,0.3,0c0.3,0,6.3,1,12.3,7c5.4,5.4,11.8,16.1,11.6,36.4c-0.1,18.5-1.3,36-3.3,49.1c-0.9,5.9-3.3,21.4-8.7,22.8
				c-2.1,0.5-4-0.7-5.6-3.7c-0.2-0.4-0.5-1.3-0.8-2.6c-0.5,12.7-1.3,30.9-2.1,44.3c-1,17.3-5.5,43.2-13.4,43.7
				C74.1,298.2,74,298.3,73.9,298.3z"/>
		</g>
		<g>
			<path class="st2" d="M56.1,94.3c-18.5,0-33.6-15.1-33.6-33.6s15.1-33.6,33.6-33.6s33.6,15.1,33.6,33.6S74.6,94.3,56.1,94.3z
				 M56.1,30.6c-16.6,0-30,13.5-30,30s13.5,30,30,30c16.6,0,30-13.5,30-30S72.7,30.6,56.1,30.6z"/>
		</g>
	</g>
	<g class="st1">
		<rect x="37.3" y="52.9" class="st2" width="11.6" height="3.5"/>
	</g>
	<g class="st1">
		<rect x="60.1" y="52.9" class="st2" width="11.6" height="3.5"/>
	</g>
	<g class="st1">
		<path class="st2" d="M47.8,75.8l-1.9-3c0.3-0.2,8.5-5.2,16.9-3.8l-0.6,3.5C55.2,71.3,47.9,75.8,47.8,75.8z"/>
	</g>
</g>
<g class="st0">
	<g class="st1">
		<g>
			<path class="st2" d="M46.5,300.1c-0.2,0-0.3,0-0.5,0c-3.1-0.4-7.3-4.4-12.3-32.2c-3.3-18.3-5.3-38.4-6.1-50.1
				c-0.8-12.7,0-76.1,0-78.8h3.5c0,0.7-0.8,66,0,78.5c0.8,11.6,2.8,31.6,6,49.8c5.1,28.5,9,29.3,9.2,29.3l0,0c0,0,1.5-0.3,3.5-6.7
				c2.6-8.4,5.6-32.3,6.6-40.2c3.8-30.7,2.6-47.2,2.6-47.4l3.5-0.3c0.1,0.7,1.3,17-2.6,48.1c-1.7,13.8-4.3,33-6.7,40.8
				C52,295.2,50,300.1,46.5,300.1z"/>
		</g>
		<g>
			<path class="st2" d="M73.9,298.3c-3.6,0-6.2-4.8-8.2-15c-5.6-29.7-6.6-63.5-6.7-63.9l3.5-0.1c0,0.3,1,33.9,6.6,63.3
				c2.3,12.1,4.7,12.2,4.7,12.2c0.7,0,3.1-2.2,5.6-11.2c2.2-7.8,3.8-18.2,4.4-29.1c1.3-22,2.6-57.3,2.7-58.9L86,174.8
				c-0.1-1.8-0.1-3.2-0.1-4.2l-1.6-31.5V139c0-0.9,0.7-1.7,1.7-1.8c1,0,1.8,0.7,1.9,1.7l1.6,31.6l0,0l0,0l0,0l0,0l0.1,5.7
				c0.6,11.9,2.7,32.9,3.7,35c1,1.9,1.7,2,1.7,2s3.2-0.9,6-19.4c2-13,3.2-30.4,3.3-49c0.1-15-3.5-26.6-10.4-33.7
				c-4.7-4.8-9.6-6-10.4-6.2H32.4c-2,0.4-20.9,4.5-21.4,24.7c-0.7,28.1,3.3,57.6,3.8,60.9c1.9,13.3,5.2,17.6,6.5,17.6l0,0
				c1.3-0.1,6.3-6.2,6-34.3c0-1.3,0-2.6,0-3.9c-0.1-8-0.2-18,0.4-29.6l3.5,0.2c-0.6,11.4-0.5,21.4-0.4,29.3c0,1.4,0,2.7,0,3.9
				c0.1,11.2-0.6,37.2-9.3,37.8c-0.1,0-0.2,0-0.3,0c-6.4,0-9.1-14.4-10-20.6c-0.5-3.3-4.5-33.1-3.8-61.5c0.3-12.5,7-19.5,12.5-23.2
				c5.9-3.9,11.7-5,12-5c0.1,0,0.2,0,0.3,0h51.7c0.1,0,0.2,0,0.3,0c0.3,0,6.3,1,12.3,7c5.4,5.4,11.8,16.1,11.6,36.4
				c-0.1,18.5-1.3,36-3.3,49.1c-0.9,5.9-3.3,21.4-8.7,22.8c-2.1,0.5-4-0.7-5.6-3.7c-0.2-0.4-0.5-1.3-0.8-2.6
				c-0.5,12.7-1.3,30.9-2.1,44.3c-1,17.3-5.5,43.2-13.4,43.7C74.1,298.2,74,298.3,73.9,298.3z"/>
		</g>
		<g>
			<path class="st2" d="M56.1,94.3c-5.4,0-10.5-1.2-15.3-3.7l1.6-3.2c4.3,2.2,8.9,3.3,13.7,3.3c16.6,0,30-13.5,30-30
				c0-16.6-13.5-30-30-30s-30,13.5-30,30c0,5.3,1.4,10.6,4.1,15.2l-3.1,1.8c-3-5.1-4.6-11-4.6-16.9c0-18.5,15.1-33.6,33.6-33.6
				s33.6,15.1,33.6,33.6C89.7,79.2,74.6,94.3,56.1,94.3z"/>
		</g>
	</g>
	<g class="st1">
		<path class="st2" d="M73.9,68.4c-5,0-9.1-4.1-9.1-9.1c0-4.5,6.5-11.8,7.8-13.2c0.3-0.4,0.8-0.6,1.3-0.6l0,0c0.5,0,1,0.2,1.3,0.6
			c1.3,1.4,7.8,8.6,7.8,13.2C83,64.3,78.9,68.4,73.9,68.4z M73.9,50c-2.6,3.1-5.6,7.3-5.6,9.3c0,3.1,2.5,5.6,5.6,5.6
			s5.6-2.5,5.6-5.6C79.5,57.3,76.5,53.1,73.9,50z"/>
	</g>
	<g class="st1">
		<path class="st2" d="M34.2,92.4c-5,0-9.1-4.1-9.1-9.1c0-4.5,6.5-11.8,7.8-13.2c0.3-0.4,0.8-0.6,1.3-0.6s1,0.2,1.3,0.6
			c1.3,1.4,7.8,8.6,7.8,13.2C43.4,88.3,39.3,92.4,34.2,92.4z M34.2,74c-2.6,3.1-5.6,7.3-5.6,9.3c0,3.1,2.5,5.6,5.6,5.6
			s5.6-2.5,5.6-5.6C39.8,81.3,36.9,77.1,34.2,74z"/>
	</g>
	<g class="st1">
		<path class="st2" d="M56,82.1c-7.2,0-11.4-2.7-11.4-7.4c0-2.7,1.6-5.2,4.6-6.8c2.2-1.2,5-1.9,7.5-1.9c4.7,0,12.1,2.2,12.1,8.2
			c0,2.8-1.8,5.1-5.2,6.5C60.4,82,57,82.1,56,82.1z M56.7,69.6c-1.9,0-4.1,0.6-5.8,1.5c-1.3,0.7-2.8,1.9-2.8,3.7
			c0,1.2,0.8,3.8,7.9,3.8c1.7,0,4.2-0.3,6.3-1.2c2-0.8,3-1.9,3-3.2C65.3,70.8,59.4,69.6,56.7,69.6z"/>
	</g>
	<g class="st1">
		
			<ellipse transform="matrix(0.9961 -8.768842e-02 8.768842e-02 0.9961 -4.7586 4.461)" class="st2" cx="48.4" cy="56.4" rx="3.8" ry="3.8"/>
	</g>
	<g class="st1">
		
			<ellipse transform="matrix(0.9961 -8.768842e-02 8.768842e-02 0.9961 -4.6987 5.8377)" class="st2" cx="64.1" cy="56.4" rx="3.8" ry="3.8"/>
	</g>
</g>
<g class="st0">
	<g class="st1">
		<g>
			<path class="st2" d="M46.5,300.1c-0.2,0-0.3,0-0.5,0c-3.1-0.4-7.3-4.4-12.3-32.2c-3.3-18.3-5.3-38.4-6.1-50.1
				c-0.8-12.7,0-76.1,0-78.8h3.5c0,0.7-0.8,66,0,78.5c0.8,11.6,2.8,31.6,6,49.8c5.1,28.5,9,29.3,9.2,29.3l0,0c0,0,1.5-0.3,3.5-6.7
				c2.6-8.4,5.6-32.3,6.6-40.2c3.8-30.7,2.6-47.2,2.6-47.4l3.5-0.3c0.1,0.7,1.3,17-2.6,48.1c-1.7,13.8-4.3,33-6.7,40.8
				C52,295.2,50,300.1,46.5,300.1z"/>
		</g>
		<g>
			<path class="st2" d="M21.3,211.6c-6.4,0-9.1-14.4-10-20.6c-0.5-3.3-4.6-33.1-3.8-61.5c0.3-12.5,7-19.5,12.5-23.2
				c5.9-3.9,11.7-5,12-5c0.1,0,0.2,0,0.3,0h23.8c4.2-0.2,25-0.9,28.4,0.1c7.7,2.3,15.6,8.9,21.1,17.7c7.2,11.6,10.4,26.7,9.2,43.8
				c-0.6,8.3-5.8,14-15.2,16.5c-6.9,1.9-16.1,2-25.3,0.2c-6.6-1.2-14.6-3.8-16.8-7.1c-0.9-1.3-0.9-2.8,0-4c2.8-3.8,12-4.9,24.8-6.1
				c0.6-0.1,1.2-0.1,1.8-0.2l0.6-23.5c0-0.8,0.6-1.5,1.4-1.7c0.8-0.2,1.6,0.2,2,1l10.4,22.4c0.1,0.2,0.2,0.5,0.2,0.8
				c-0.1,3.3-5.1,3.7-16,4.7c-7.9,0.7-19.9,1.8-22.2,4.5c0.5,0.8,3.6,3,10.8,4.8c7.3,1.8,15.2,2.4,21.9,1.7
				c14.4-1.6,17.9-8.7,18.3-14.4c1.1-16.4-1.9-30.8-8.7-41.7c-5-8.1-12.2-14.1-19.1-16.2c-2.2-0.6-17.9-0.3-27.3,0.1c0,0,0,0-0.1,0
				H32.4c-2,0.4-20.9,4.5-21.4,24.7c-0.7,28.1,3.3,57.6,3.8,60.9c1.9,13.3,5.2,17.6,6.5,17.6l0,0c1.3-0.1,6.3-6.2,6-34.3
				c0-1.3,0-2.6,0-3.9c-0.1-8-0.2-18,0.4-29.6l3.5,0.2c-0.6,11.4-0.5,21.4-0.4,29.3c0,1.4,0,2.7,0,4c0.1,11.4-0.7,20.9-2.3,27.5
				c-1.6,6.6-4,10.1-7,10.3C21.5,211.6,21.4,211.6,21.3,211.6z M87.9,146.5L87.5,162c3-0.3,5.7-0.7,7.1-1.1L87.9,146.5z"/>
		</g>
		<g>
			<path class="st2" d="M73.9,298.3c-3.6,0-6.2-4.8-8.2-15c-5.6-29.7-6.6-63.5-6.7-63.9l3.5-0.1c0,0.3,1,33.9,6.6,63.3
				c2.3,11.9,4.7,12.2,4.7,12.2l0,0c0.7,0,3.1-2.2,5.6-11.2c2.2-7.8,3.8-18.2,4.4-29.1c1.3-21.8,2.6-56.6,2.7-58.8l-1.3-13.9
				l3.5-0.3l1.3,14c0,0.1,0,0.2,0,0.2c0,0.4-1.3,36.6-2.7,59C86.3,272,81.8,297.9,73.9,298.3C74.1,298.2,74,298.3,73.9,298.3z"/>
		</g>
		<g>
			<path class="st2" d="M56.1,94.3c-18.5,0-33.6-15.1-33.6-33.6s15.1-33.6,33.6-33.6s33.6,15.1,33.6,33.6S74.6,94.3,56.1,94.3z
				 M56.1,30.6c-16.6,0-30,13.5-30,30c0,16.6,13.5,30,30,30c16.6,0,30-13.5,30-30S72.7,30.6,56.1,30.6z"/>
		</g>
	</g>
	<g class="st1">
		<path class="st2" d="M47.5,76.4l-1.9-3c0.4-0.3,10.6-6.6,20.7,0l-1.9,3C56.2,71.1,47.6,76.4,47.5,76.4z"/>
	</g>
	<g class="st1">
		
			<rect x="64.9" y="151.7" transform="matrix(0.6031 -0.7977 0.7977 0.6031 -94.2468 117.5527)" class="st2" width="12.1" height="3.5"/>
	</g>
	<g class="st1">
		
			<rect x="54.9" y="136.7" transform="matrix(0.9986 -5.266185e-02 5.266185e-02 0.9986 -7.6863 3.1877)" class="st2" width="3.5" height="21.5"/>
	</g>
	<g class="st1">
		
			<rect x="42.3" y="149.2" transform="matrix(0.8824 -0.4706 0.4706 0.8824 -68.0667 39.0575)" class="st2" width="3.5" height="12.9"/>
	</g>
	<g class="st1">
		
			<ellipse transform="matrix(0.9961 -8.768842e-02 8.768842e-02 0.9961 -4.7732 4.3389)" class="st2" cx="47" cy="56.5" rx="3.8" ry="3.8"/>
	</g>
	<g class="st1">
		
			<ellipse transform="matrix(0.9961 -8.768842e-02 8.768842e-02 0.9961 -4.7071 5.8383)" class="st2" cx="64.1" cy="56.5" rx="3.8" ry="3.8"/>
	</g>
</g>
<g class="st0">
	<g class="st1">
		
			<rect x="38.4" y="50.6" transform="matrix(0.9263 -0.3767 0.3767 0.9263 -16.4116 20.7871)" class="st2" width="13.1" height="3.5"/>
	</g>
	<g class="st1">
		
			<rect x="65.6" y="45.9" transform="matrix(0.4424 -0.8968 0.8968 0.4424 -9.3072 89.5176)" class="st2" width="3.5" height="12.6"/>
	</g>
	<g class="st1">
		<g>
			<path class="st2" d="M34.7,298c-0.7,0-1.4-0.1-2-0.4c-5-2.2-6.3-13.1-4-32.5c1.3-10.6,4.3-21.8,5-24.3c-1-2.9-5.3-16.4-5.9-25
				c-0.8-12.7-0.4-25.6-0.4-25.7l3.5,0.1c0,0.1-0.4,12.8,0.4,25.4c0.6,9,5.8,24.4,5.9,24.6l0.2,0.5l-0.2,0.5c0,0.1-3.6,12.6-5,24.3
				c-2.4,19.6-0.5,27.8,1.9,28.8c0.5,0.2,2.4,0.5,7-4.6c5.1-5.8,15.1-34.1,16-45.2l1.7-27l3.5,0.2l-1.7,27
				c-1,13-11.6,41.3-16.8,47.3C40.3,296,37.3,298,34.7,298z"/>
		</g>
		<g>
			<path class="st2" d="M59.6,205.4c-0.6,0-1.2,0-1.8-0.1c-13.7-1.8-46-22.6-48.4-39.2c-0.1-1-0.3-2-0.5-3c-1-6.4-2-13-1.4-35.5
				c0.3-12.5,7-19.5,12.5-23.2c5.9-3.9,11.7-5,12-5c0.1,0,0.2,0,0.3,0h23.8c2.6-0.1,23.2-1.2,28.3,0c6.7,1.6,28.3,10.4,25.2,56
				c-0.8,12-7.9,22.3-13.6,28.8c-6.5,7.4-14.9,14-22.4,17.6c-4.2,2-7.5,2.8-9.8,2.3C63,204.9,61.7,205.4,59.6,205.4z M32.5,102.9
				c-2,0.4-20.9,4.5-21.4,24.7c-0.6,22.2,0.4,28.7,1.4,34.9c0.2,1,0.3,2,0.5,3c2.1,14.7,33.1,34.6,45.3,36.2c1.8,0.2,3.1,0,3.3-0.5
				c0-0.1,0.1-0.2,0.2-0.3c0,0,0.2-0.3,0.3-0.8c0.1-0.3,0.1-0.7,0.2-1.2l0,0c0-0.3,0-0.5,0-0.8c-0.1-0.6-0.3-1.1-0.4-1.5
				c-0.8-1.1-1.8-2.3-3-3.6l0,0c-3.2-3.4-7.6-7.4-12-11.2c-7.7-6.9-15.1-13.4-17-18.1c-0.1-0.2-0.1-0.3-0.1-0.5
				c0-0.1-1.2-14.6-0.5-28l3.5,0.2c-0.6,12.1,0.3,25.1,0.4,27.2c1.8,4,9,10.4,16,16.6c3.8,3.4,7.7,6.8,10.8,10
				c4-4.9,9.2-10.2,13.8-14.9c4-4.1,9-9.1,9.5-10.5l1.3-26.9l3.5,0.2L86.8,164c-0.1,2-2.6,4.8-10.5,12.8c-4.7,4.7-9.9,10.1-13.9,15
				c1,1.1,2.2,2.5,2.6,3.4l0,0l0,0c0.4,0.9,0.6,1.8,0.7,2.6c0.1,0.5,0.1,1,0,1.6c0,0.5-0.1,1-0.2,1.4c1.3-0.1,3.5-0.6,6.5-2.1
				c12.9-6.2,32.7-24.3,34-43.5c3-42.8-16.4-50.8-22.4-52.3c-3.9-0.9-21.1-0.3-27.3,0h-0.1L32.5,102.9L32.5,102.9z"/>
		</g>
		<g>
			<path class="st2" d="M86.9,300.1c-0.1,0-0.3,0-0.4,0c-2.6-0.2-8-3.2-15.8-20.2c-5.3-11.5-9-24.1-9.9-33
				c-2.1-22.5-2.7-43-2.7-43.2l3.5-0.1c0,0.2,0.6,20.6,2.7,43c0.8,8.3,4.5,20.8,9.6,31.8c5.6,12.2,10.6,18,12.9,18.2
				c1.1,0.1,1.8-2.1,2.1-3.1c4.5-16.2-4.1-54.7-4.1-55.1c0-0.2-0.1-0.4,0-0.7c4-24.4,2.1-43.8,2.1-44l-0.2-1.7l3.5-0.3l0.2,1.7
				c0,0.2,1.9,19.8-2,44.6c0.9,4.1,8.6,40.1,4,56.5C91,299,88.7,300.1,86.9,300.1z"/>
		</g>
		<g>
			<path class="st2" d="M56.2,92.3c-18.5,0-33.6-15.1-33.6-33.6s15.1-33.6,33.6-33.6s33.6,15.1,33.6,33.6S74.7,92.3,56.2,92.3z
				 M56.2,28.7c-16.6,0-30,13.5-30,30s13.5,30,30,30c16.6,0,30-13.5,30-30S72.7,28.7,56.2,28.7z"/>
		</g>
	</g>
	<g class="st1">
		<path class="st2" d="M57.3,78.8c-3.8,0-7-3.1-7-7c0-3.8,3.1-7,7-7s7,3.1,7,7C64.3,75.6,61.2,78.8,57.3,78.8z M57.3,68.4
			c-1.9,0-3.4,1.5-3.4,3.4s1.5,3.4,3.4,3.4s3.4-1.5,3.4-3.4C60.8,69.9,59.2,68.4,57.3,68.4z"/>
	</g>
	<g class="st1">
		
			<ellipse transform="matrix(0.9961 -8.768842e-02 8.768842e-02 0.9961 -4.7449 4.3903)" class="st2" cx="47.6" cy="56.2" rx="3.8" ry="3.8"/>
	</g>
	<g class="st1">
		
			<ellipse transform="matrix(0.9961 -8.768842e-02 8.768842e-02 0.9961 -4.6787 5.8897)" class="st2" cx="64.7" cy="56.2" rx="3.8" ry="3.8"/>
	</g>
</g>
</svg>
