<?xml version="1.0" encoding="utf-8"?>
<!-- Generator: Adobe Illustrator 15.0.0, SVG Export Plug-In . SVG Version: 6.00 Build 0)  -->
<!DOCTYPE svg PUBLIC "-//W3C//DTD SVG 1.1//EN" "http://www.w3.org/Graphics/SVG/1.1/DTD/svg11.dtd">
<svg version="1.1" id="Layer_1" xmlns="http://www.w3.org/2000/svg" xmlns:xlink="http://www.w3.org/1999/xlink" x="0px" y="0px"
	 width="97.926px" height="107.891px" viewBox="0 0 97.926 107.891" enable-background="new 0 0 97.926 107.891"
	 xml:space="preserve">
<g>
	<path fill="none" stroke="#FFFFFF" stroke-miterlimit="10" d="M26.413,9.97V1.573c0-0.592,0.479-1.073,1.072-1.073h30.02
		c0.593,0,1.072,0.481,1.072,1.073V9.97"/>
	<path fill="none" stroke="#FFFFFF" stroke-miterlimit="10" d="M58.577,18.011v57.182c0,0.591-0.479,1.071-1.072,1.071h-30.02
		c-0.594,0-1.072-0.48-1.072-1.071V18.368"/>
	<polyline fill="none" stroke="#FFFFFF" stroke-miterlimit="10" points="54.289,9.525 62.062,9.525 62.062,18.102 22.929,18.102 
		22.929,9.525 30.702,9.525 	"/>
	<rect x="26.413" y="29.43" fill="none" stroke="#FFFFFF" stroke-miterlimit="10" width="20.906" height="34.576"/>
	<line fill="none" stroke="#FFFFFF" stroke-miterlimit="10" x1="31.208" y1="44.774" x2="31.208" y2="49.121"/>
	<path fill="none" stroke="#FFFFFF" stroke-miterlimit="10" d="M35.792,44.774c1.266,0,2.291-1.026,2.291-2.291
		c0-1.266-1.025-2.292-2.291-2.292h-4.583v4.583H35.792z"/>
	<line fill="none" stroke="#FFFFFF" stroke-miterlimit="10" x1="33.999" y1="44.72" x2="42.682" y2="53.402"/>
	<line fill="none" stroke="#FFFFFF" stroke-miterlimit="10" x1="33.999" y1="53.402" x2="42.682" y2="44.72"/>
	<rect x="22.429" fill="none" width="40.133" height="76.764"/>
	<circle fill="none" stroke="#FFFFFF" stroke-miterlimit="10" cx="75.043" cy="72.05" r="6.75"/>
	<line fill="none" stroke="#FFFFFF" stroke-miterlimit="10" x1="76.828" y1="67.366" x2="73.259" y2="76.735"/>
	<path fill="none" stroke="#FFFFFF" stroke-miterlimit="10" d="M85.796,97.891c-3.4,1.526-7.396,0.004-8.922-3.399
		c-1.525-3.401-0.003-7.396,3.397-8.92c3.404-1.527,7.401-0.005,8.925,3.396C90.72,92.372,89.198,96.367,85.796,97.891z"/>
	<line fill="none" stroke="#FFFFFF" stroke-miterlimit="10" x1="87.608" y1="89.681" x2="78.461" y2="93.781"/>
	<circle fill="none" stroke="#FFFFFF" stroke-miterlimit="10" cx="62.361" cy="89.783" r="6.751"/>
	<line fill="none" stroke="#FFFFFF" stroke-miterlimit="10" x1="57.678" y1="87.998" x2="67.043" y2="91.567"/>
	
		<rect x="58.206" y="65.698" transform="matrix(-0.9345 -0.356 0.356 -0.9345 116.2634 188.3791)" fill="none" width="34.516" height="35.588"/>
	<path fill="none" stroke="#FFFFFF" stroke-miterlimit="10" d="M49.497,95.633c1.876,3.221,0.787,7.353-2.436,9.234
		c-3.219,1.877-7.351,0.787-9.23-2.434c-1.878-3.223-0.787-7.355,2.433-9.235C43.485,91.324,47.617,92.413,49.497,95.633z"/>
	<line fill="none" stroke="#FFFFFF" stroke-miterlimit="10" x1="41.139" y1="94.702" x2="46.188" y2="103.365"/>
	
		<rect x="36.413" y="91.783" transform="matrix(-0.2547 0.967 -0.967 -0.2547 150.5523 82.0343)" fill="none" width="14.501" height="14.5"/>
	<circle fill="none" stroke="#FFFFFF" stroke-miterlimit="10" cx="13.542" cy="74.859" r="6.751"/>
	<line fill="none" stroke="#FFFFFF" stroke-miterlimit="10" x1="12.965" y1="69.879" x2="14.119" y2="79.837"/>
	<circle fill="none" stroke="#FFFFFF" stroke-miterlimit="10" cx="29.711" cy="88.634" r="6.751"/>
	<line fill="none" stroke="#FFFFFF" stroke-miterlimit="10" x1="32.824" y1="84.705" x2="26.599" y2="92.562"/>
	<circle fill="none" stroke="#FFFFFF" stroke-miterlimit="10" cx="10.469" cy="96.443" r="6.751"/>
	<line fill="none" stroke="#FFFFFF" stroke-miterlimit="10" x1="5.49" y1="97.019" x2="15.447" y2="95.866"/>
	
		<rect x="1.935" y="67.022" transform="matrix(-0.9933 0.1152 -0.1152 -0.9933 48.0313 166.8568)" fill="none" width="34.517" height="35.59"/>
</g>
</svg>
