<?xml version="1.0" encoding="utf-8"?>
<!-- Generator: Adobe Illustrator 15.0.0, SVG Export Plug-In . SVG Version: 6.00 Build 0)  -->
<!DOCTYPE svg PUBLIC "-//W3C//DTD SVG 1.1//EN" "http://www.w3.org/Graphics/SVG/1.1/DTD/svg11.dtd">
<svg version="1.1" id="Layer_1" xmlns="http://www.w3.org/2000/svg" xmlns:xlink="http://www.w3.org/1999/xlink" x="0px" y="0px"
	 width="823.098px" height="441.385px" viewBox="0 0 823.098 441.385" enable-background="new 0 0 823.098 441.385"
	 xml:space="preserve">
<g>
	<path fill="#FFFFFF" d="M60.075,237.222h21.648v103.752H60.075V237.222z M74.723,244.222h-7.646v89.752h7.646V244.222z"/>
	<path fill="#FFFFFF" d="M32.385,237.222H54.03v103.752H32.385V237.222z M47.032,244.222h-7.646v89.752h7.646V244.222z"/>
	<path fill="#FFFFFF" d="M4.692,237.222H26.34v103.752H4.692V237.222z M19.34,244.222h-7.646v89.752h7.646V244.222z"/>
	<path fill="#FFFFFF" d="M75.811,210.86c-0.535-0.592-13.184-14.758-20.791-36.041c-10.182-28.475-6.238-55.933,11.406-79.406
		C82.78,73.654,87.84,51.884,81.469,30.71C76.68,14.802,66.885,5.122,66.784,5.026L71.657,0c0.449,0.435,11.045,10.83,16.414,28.366
		C93.024,44.54,94.258,70.03,72.02,99.618c-16.346,21.749-19.875,46.186-10.486,72.633c7.113,20.036,19.354,33.785,19.475,33.92
		L75.811,210.86"/>
	<path fill="#FFFFFF" d="M51.063,210.86c-0.535-0.592-13.184-14.758-20.789-36.041c-10.182-28.475-6.238-55.933,11.404-79.406
		C58.034,73.654,63.094,51.884,56.721,30.71C51.934,14.802,42.137,5.122,42.04,5.026l2.438-2.511l-2.434,2.516L46.909,0
		c0.449,0.435,11.045,10.83,16.414,28.366C68.276,44.54,69.51,70.03,47.272,99.618c-16.346,21.749-19.875,46.185-10.486,72.633
		c7.115,20.036,19.354,33.785,19.475,33.92L51.063,210.86"/>
	<path fill="#FFFFFF" d="M26.315,210.86c-0.535-0.592-13.182-14.758-20.791-36.041c-10.18-28.475-6.236-55.933,11.406-79.406
		C33.284,73.654,38.346,51.884,31.973,30.71C27.186,14.802,17.389,5.122,17.29,5.026l2.438-2.511l-2.434,2.516L22.161,0
		c0.449,0.435,11.045,10.83,16.414,28.366c4.953,16.174,6.189,41.664-16.051,71.252C6.178,121.367,2.649,145.803,12.04,172.251
		c7.113,20.036,19.352,33.785,19.473,33.92L26.315,210.86"/>
	<path fill="#FFFFFF" d="M583.451,337.462c0.128-37.152,0.241-93.471,0.03-96.348c0.109,1.494,1.468,3.107,3.47,3.107l0.002-3.5
		l2.479-2.471c1.131,1.137,1.131,1.137,1.16,17.723c0.014,9.088,0.004,21.176-0.017,33.254c-0.042,24.15-0.125,48.258-0.125,48.258
		L583.451,337.462z"/>
	<path fill="#FFFFFF" d="M567.922,438.913c-13.557-13.534-74.752-74.624-138.164-137.977c-48.957,49-99.873,99.993-137.77,137.955
		l-2.475,2.479l-21.23-21.192l2.473-2.478c13.518-13.542,74.5-74.631,137.779-137.967
		c-89.883-89.817-136.42-136.434-138.342-138.582l-2.334-2.608l19.748-17.67l3.34-2.864c2.678,2.864,51.615,53.39,138.791,140.5
		c89.947-90.014,136.633-136.619,138.779-138.539l2.608-2.334l19.894,22.234l-2.354,2.324
		c-2.857,2.67-50.461,50.208-137.705,137.519c49.064,49.02,100.139,100.018,138.155,137.967l2.478,2.475l-21.195,21.229
		L567.922,438.913z M581.695,420.162c-38.39-38.323-89.396-89.253-138.155-137.974l-2.477-2.474l2.475-2.476
		c56.566-56.611,123.697-123.752,137.812-137.682l-10.674-11.929c-8.641,8.514-41.691,41.463-138.457,138.303l-2.475,2.478
		l-2.477-2.476c-56.523-56.479-123.564-123.51-137.484-137.616l-11.93,10.675c8.508,8.633,41.41,41.641,138.105,138.26l2.475,2.474
		l-2.473,2.477c-60.879,60.936-120.178,120.334-137.777,137.965l11.324,11.304c38.27-38.338,89.117-89.259,137.771-137.959
		l2.475-2.477l2.475,2.475c61.006,60.949,120.513,120.357,138.162,137.976L581.695,420.162"/>
	<path fill="#FFFFFF" d="M418.358,237.222c2.301,2.305,4.633,4.639,6.992,7h8.771c2.375-2.375,4.709-4.709,6.996-7H418.358z"/>
	<path fill="#FFFFFF" d="M459.934,340.974c-2.324-2.32-4.662-4.656-7.008-7h-46.277c-2.314,2.318-4.648,4.655-6.992,7H459.934z"/>
	<path fill="#FFFFFF" d="M515.188,333.974c2.332,2.328,4.668,4.661,7.01,7h300.9V237.222H503.331c-2.275,2.274-4.611,4.612-6.998,7
		h319.766v89.752H515.188"/>
	<path fill="#FFFFFF" d="M89.723,237.222v103.752h247.748c2.297-2.3,4.631-4.636,6.992-7H96.723v-89.752h266.381
		c-2.391-2.392-4.723-4.722-7-7H89.723z"/>
</g>
</svg>
