<?xml version="1.0" encoding="utf-8"?>
<!-- Generator: Adobe Illustrator 15.0.0, SVG Export Plug-In . SVG Version: 6.00 Build 0)  -->
<!DOCTYPE svg PUBLIC "-//W3C//DTD SVG 1.1//EN" "http://www.w3.org/Graphics/SVG/1.1/DTD/svg11.dtd">
<svg version="1.1" id="Layer_1" xmlns="http://www.w3.org/2000/svg" xmlns:xlink="http://www.w3.org/1999/xlink" x="0px" y="0px"
	 width="823.131px" height="340.972px" viewBox="0 0 823.131 340.972" enable-background="new 0 0 823.131 340.972"
	 xml:space="preserve">
<rect x="3.5" y="240.72" fill="none" stroke="#FFFFFF" stroke-width="7" stroke-miterlimit="10" width="726.376" height="96.752"/>
<rect x="744.876" y="240.72" fill="none" stroke="#FFFFFF" stroke-width="7" stroke-miterlimit="10" width="14.647" height="96.752"/>
<rect x="768.567" y="240.72" fill="none" stroke="#FFFFFF" stroke-width="7" stroke-miterlimit="10" width="14.646" height="96.752"/>
<rect x="792.258" y="240.72" fill="none" stroke="#FFFFFF" stroke-width="7" stroke-miterlimit="10" width="14.647" height="96.752"/>
<path fill="none" stroke="#FFFFFF" stroke-width="7" stroke-miterlimit="10" d="M753.876,2.515c0,0-41.34,40,0,95
	c41.339,55-9.187,111-9.187,111"/>
<path fill="none" stroke="#FFFFFF" stroke-width="7" stroke-miterlimit="10" d="M778.623,2.515c0,0-41.339,40,0,95
	s-9.187,111-9.187,111"/>
<path fill="none" stroke="#FFFFFF" stroke-width="7" stroke-miterlimit="10" d="M803.371,2.515c0,0-41.339,40,0,95
	s-9.188,111-9.188,111"/>
<path fill="none" stroke="#FFFFFF" stroke-width="7" stroke-miterlimit="10" d="M236.148,240.721c-0.333,0,0,96.752,0,96.752"/>
</svg>
