<?xml version="1.0" encoding="utf-8"?>
<!-- Generator: Adobe Illustrator 15.0.0, SVG Export Plug-In . SVG Version: 6.00 Build 0)  -->
<!DOCTYPE svg PUBLIC "-//W3C//DTD SVG 1.1//EN" "http://www.w3.org/Graphics/SVG/1.1/DTD/svg11.dtd">
<svg version="1.1" id="Layer_1" xmlns="http://www.w3.org/2000/svg" xmlns:xlink="http://www.w3.org/1999/xlink" x="0px" y="0px"
	 width="70.997px" height="70.997px" viewBox="0 0 70.997 70.997" enable-background="new 0 0 70.997 70.997" xml:space="preserve">
<g>
	<circle fill="#CA303B" stroke="#FFFFFF" stroke-width="2.984" stroke-miterlimit="10" cx="35.499" cy="35.498" r="34.006"/>
	<path fill="#FFFFFF" d="M51.941,26.584c0,0-0.199-0.13-0.548-0.359c-0.348-0.219-0.832-0.526-1.413-0.848
		c-0.577-0.324-1.253-0.655-1.975-0.933c-0.365-0.127-0.735-0.258-1.119-0.348c-0.382-0.094-0.771-0.171-1.163-0.205
		c-0.195-0.023-0.391-0.044-0.588-0.043c-0.195-0.011-0.393-0.007-0.588-0.004c-0.195-0.002-0.389,0.032-0.584,0.036
		c-0.193,0.016-0.384,0.056-0.575,0.072c-0.19,0.027-0.375,0.076-0.562,0.102c-0.187,0.033-0.363,0.091-0.543,0.126
		c-0.182,0.033-0.35,0.098-0.52,0.142c-0.172,0.045-0.337,0.091-0.492,0.147c-0.316,0.102-0.614,0.193-0.874,0.293
		c-0.262,0.094-0.503,0.165-0.691,0.243c-0.189,0.077-0.352,0.123-0.457,0.161c-0.109,0.035-0.169,0.053-0.169,0.053
		s0.034-0.051,0.097-0.146c0.065-0.091,0.156-0.233,0.288-0.398c0.126-0.172,0.293-0.367,0.499-0.579
		c0.2-0.221,0.451-0.441,0.736-0.675c0.285-0.233,0.62-0.458,0.991-0.672c0.189-0.103,0.384-0.21,0.592-0.305
		c0.209-0.091,0.426-0.178,0.651-0.26c0.456-0.149,0.943-0.276,1.454-0.329c0.255-0.024,0.513-0.059,0.774-0.048
		c0.262-0.005,0.522,0.013,0.784,0.039c0.262,0.022,0.517,0.084,0.773,0.127c0.252,0.065,0.505,0.126,0.743,0.216l0.358,0.129
		c0.114,0.052,0.229,0.103,0.342,0.155c0.228,0.099,0.438,0.221,0.646,0.34c0.818,0.494,1.469,1.09,1.938,1.659
		c0.475,0.564,0.775,1.1,0.954,1.486C51.884,26.344,51.941,26.584,51.941,26.584"/>
	<path fill="#FFFFFF" d="M19.644,26.584c0,0,0.199-0.13,0.548-0.359c0.349-0.219,0.833-0.526,1.413-0.848
		c0.577-0.324,1.254-0.655,1.976-0.933c0.364-0.127,0.735-0.258,1.119-0.348c0.381-0.094,0.77-0.171,1.162-0.205
		c0.196-0.023,0.392-0.044,0.588-0.043c0.195-0.011,0.393-0.007,0.588-0.004c0.196-0.002,0.39,0.032,0.584,0.036
		c0.194,0.016,0.384,0.056,0.576,0.072c0.19,0.027,0.375,0.076,0.562,0.102c0.187,0.033,0.363,0.091,0.544,0.126
		c0.182,0.033,0.349,0.098,0.52,0.142c0.171,0.045,0.336,0.091,0.491,0.147c0.316,0.102,0.614,0.193,0.874,0.293
		c0.262,0.094,0.503,0.165,0.692,0.243c0.188,0.077,0.351,0.123,0.456,0.161c0.11,0.035,0.169,0.053,0.169,0.053
		s-0.033-0.051-0.096-0.146c-0.065-0.091-0.156-0.233-0.288-0.398c-0.127-0.172-0.294-0.367-0.5-0.579
		c-0.2-0.221-0.451-0.441-0.736-0.675c-0.285-0.233-0.619-0.458-0.991-0.672c-0.188-0.103-0.383-0.21-0.591-0.305
		c-0.21-0.091-0.427-0.178-0.652-0.26c-0.455-0.149-0.944-0.276-1.453-0.329c-0.256-0.024-0.514-0.059-0.775-0.048
		c-0.262-0.005-0.522,0.013-0.784,0.039c-0.262,0.022-0.517,0.084-0.773,0.127c-0.251,0.065-0.504,0.126-0.742,0.216l-0.358,0.129
		c-0.115,0.052-0.229,0.103-0.343,0.155c-0.228,0.099-0.438,0.221-0.646,0.34c-0.819,0.494-1.469,1.09-1.938,1.659
		c-0.475,0.564-0.774,1.1-0.954,1.486C19.702,26.344,19.644,26.584,19.644,26.584"/>
	<path fill="none" stroke="#FFFFFF" stroke-width="3" stroke-linecap="round" stroke-linejoin="round" stroke-miterlimit="10" d="
		M17.128,32.997c0,0-3.839,3.38-5.034,4.91c-1.436,1.835-1.265,5.29,2.438,6.456c2.877,0.906,5.343-1.047,5.059-4.121
		C19.387,38.039,17.128,32.997,17.128,32.997z"/>
	
		<circle fill="none" stroke="#FFFFFF" stroke-width="3" stroke-linecap="round" stroke-miterlimit="10" cx="37.793" cy="44.585" r="11.236"/>
</g>
</svg>
