<?xml version="1.0" encoding="utf-8"?>
<!-- Generator: Adobe Illustrator 15.0.0, SVG Export Plug-In . SVG Version: 6.00 Build 0)  -->
<!DOCTYPE svg PUBLIC "-//W3C//DTD SVG 1.1//EN" "http://www.w3.org/Graphics/SVG/1.1/DTD/svg11.dtd">
<svg version="1.1" id="Layer_1" xmlns="http://www.w3.org/2000/svg" xmlns:xlink="http://www.w3.org/1999/xlink" x="0px" y="0px"
	 width="823.099px" height="441.385px" viewBox="0 0 823.099 441.385" enable-background="new 0 0 823.099 441.385"
	 xml:space="preserve">
<path fill="#FFFFFF" d="M763.023,340.974h-21.647V237.222h21.647V340.974z M748.375,333.974h7.646v-89.752h-7.646V333.974z"/>
<path fill="#FFFFFF" d="M790.714,340.974h-21.646V237.222h21.646V340.974z M776.067,333.974h7.646v-89.752h-7.646V333.974z"/>
<path fill="#FFFFFF" d="M818.406,340.974h-21.647V237.222h21.647V340.974z M803.758,333.974h7.647v-89.752h-7.647V333.974z"/>
<path fill="#FFFFFF" d="M747.288,210.86l-5.197-4.689c0.121-0.135,12.36-13.884,19.474-33.92
	c9.389-26.447,5.859-50.884-10.486-72.633c-22.239-29.588-21.004-55.078-16.051-71.252C740.397,10.83,750.993,0.435,751.442,0
	l4.872,5.026c-0.1,0.096-9.896,9.776-14.684,25.684c-6.372,21.174-1.311,42.944,15.042,64.703
	c17.645,23.473,21.588,50.931,11.407,79.406C760.471,196.102,747.823,210.268,747.288,210.86"/>
<path fill="#FFFFFF" d="M772.035,210.86l-5.196-4.689c0.121-0.135,12.359-13.884,19.473-33.92
	c9.389-26.448,5.861-50.884-10.486-72.633c-22.238-29.588-21.003-55.078-16.051-71.252C765.145,10.83,775.741,0.435,776.189,0
	l4.867,5.031l-2.434-2.516l2.438,2.511c-0.098,0.096-9.896,9.776-14.683,25.684c-6.372,21.174-1.312,42.944,15.043,64.703
	c17.643,23.473,21.587,50.931,11.405,79.406C785.219,196.102,772.57,210.268,772.035,210.86"/>
<path fill="#FFFFFF" d="M796.783,210.86l-5.197-4.689c0.121-0.135,12.36-13.884,19.474-33.92
	c9.389-26.448,5.86-50.884-10.486-72.633c-22.239-29.588-21.003-55.078-16.051-71.252C789.893,10.83,800.489,0.435,800.938,0
	l4.867,5.031l-2.434-2.516l2.438,2.511c-0.099,0.096-9.896,9.776-14.684,25.684c-6.372,21.174-1.311,42.944,15.043,64.703
	c17.644,23.473,21.587,50.931,11.406,79.406C809.966,196.102,797.318,210.268,796.783,210.86"/>
<path fill="#FFFFFF" d="M232.648,337.485c0,0-0.083-24.107-0.125-48.257c-0.021-12.078-0.031-24.166-0.016-33.255
	c0.028-16.586,0.028-16.586,1.16-17.722l2.479,2.471l0.002,3.499c2.002,0,3.36-1.612,3.47-3.106
	c-0.211,2.876-0.098,59.194,0.03,96.347L232.648,337.485z"/>
<path fill="#FFFFFF" d="M252.699,441.385l-21.194-21.23l2.477-2.474c38.016-37.949,89.09-88.948,138.155-137.967
	c-87.244-87.311-134.847-134.849-137.705-137.519l-2.354-2.324l19.894-22.234l2.609,2.334c2.146,1.92,48.832,48.525,138.778,138.539
	c87.176-87.11,136.115-137.636,138.791-140.5l3.341,2.864l19.748,17.67l-2.335,2.608c-1.921,2.148-48.458,48.764-138.341,138.581
	C477.842,343.07,538.824,404.158,552.342,417.7l2.473,2.478l-21.231,21.192l-2.474-2.478
	c-37.896-37.962-88.813-88.955-137.769-137.956c-63.413,63.353-124.608,124.443-138.165,137.977L252.699,441.385z M241.404,420.162
	l11.304,11.323c17.649-17.618,77.156-77.026,138.161-137.975l2.476-2.475l2.474,2.477c48.655,48.7,99.501,99.621,137.772,137.959
	l11.324-11.304c-17.601-17.631-76.898-77.029-137.778-137.965l-2.473-2.476l2.475-2.474
	c96.695-96.619,129.598-129.627,138.106-138.26l-11.931-10.675c-13.92,14.106-80.96,81.137-137.484,137.616l-2.476,2.475
	l-2.474-2.478c-96.766-96.839-129.817-129.788-138.457-138.302l-10.675,11.929c14.115,13.93,81.247,81.071,137.813,137.682
	l2.474,2.476l-2.476,2.474C330.799,330.909,279.794,381.839,241.404,420.162"/>
<path fill="#FFFFFF" d="M381.981,237.222c2.288,2.29,4.622,4.625,6.996,7h8.771c2.36-2.362,4.692-4.696,6.992-7H381.981z"/>
<path fill="#FFFFFF" d="M423.441,340.974c-2.343-2.345-4.677-4.682-6.992-7h-46.276c-2.346,2.343-4.685,4.68-7.008,7H423.441z"/>
<path fill="#FFFFFF" d="M307.91,333.974H7v-89.752h319.767c-2.387-2.388-4.724-4.726-6.998-7H0v103.752h300.901
	C303.243,338.635,305.579,336.302,307.91,333.974"/>
<path fill="#FFFFFF" d="M466.995,237.222c-2.278,2.278-4.609,4.608-7.001,7h266.382v89.752h-247.74c2.361,2.364,4.694,4.7,6.991,7
	h247.749V237.222H466.995z"/>
</svg>
