<?xml version="1.0" encoding="utf-8"?>
<!-- Generator: Adobe Illustrator 15.0.0, SVG Export Plug-In . SVG Version: 6.00 Build 0)  -->
<!DOCTYPE svg PUBLIC "-//W3C//DTD SVG 1.1//EN" "http://www.w3.org/Graphics/SVG/1.1/DTD/svg11.dtd">
<svg version="1.1" id="Layer_1" xmlns="http://www.w3.org/2000/svg" xmlns:xlink="http://www.w3.org/1999/xlink" x="0px" y="0px"
	 width="235px" height="237.945px" viewBox="-2.355 0 235 237.945" enable-background="new -2.355 0 235 237.945"
	 xml:space="preserve">
<path fill="#FFFFFF" d="M218.161,173.917h-19.512c1.432-1.236,2.848-2.473,4.197-3.777c0.758-0.733,1.377-1.56,2.098-2.307
	c0.539-0.523,1.18-0.899,1.676-1.468c0.555-0.633,0.998-1.267,1.471-1.89c0.117-0.155,0.307-0.265,0.42-0.42
	c0.162-0.196,0.258-0.43,0.42-0.63c1.49-1.854,2.723-3.753,3.777-5.664c0.506-0.916,1.088-1.771,1.467-2.728l8.184,2.518
	L218.161,173.917z M175.36,181.051c-7.826,2.917-15.092,3.423-25.176,0c-5.816-1.973-12.768-6.376-17.832-11.121
	c-2.535-2.369-4.678-4.889-5.875-6.921c-1.201-2.035-1.16-3.36-1.051-3.777c7.152-26.694,32.738-44.757,62.521-53.709
	c-0.41,17.756,9.738,32.964,20.562,41.958c0.543,1.566-0.129,3.936-1.891,7.134c-0.035,0.062,0.037,0.151,0,0.21
	c-0.902,1.615-2.127,3.268-3.562,5.034c-1.479,1.818-3.176,3.656-5.037,5.457C190.565,172.523,180.858,179.003,175.36,181.051
	 M126.936,137.668c-0.48-1.839-0.248-4.566,1.387-6.208c1.027-1.023,2.807-0.623,4.303,0.014c-1.92,2.303-3.695,4.713-5.311,7.227
	C127.167,138.394,127.036,138.05,126.936,137.668 M138.481,120.448c1.234-1.054,3.012-0.269,4.451,0.743
	c-1.711,1.437-3.357,2.927-4.934,4.474c-0.383-0.788-0.703-1.749-0.711-2.68C137.282,121.943,137.651,121.157,138.481,120.448
	 M148.801,114.134c0.061-0.479,0.254-1.123,1.203-1.847c0.1-0.071,1.99-1.432,4.83,0.358c-1.938,1.192-3.826,2.438-5.656,3.733
	C148.895,115.639,148.713,114.847,148.801,114.134 M162.473,105.643c0.318-0.848,0.9-1.381,1.885-1.732
	c2.016-0.715,3.605,0.207,4.689,1.295c-2.316,1.026-4.592,2.117-6.816,3.271C162.12,107.539,162.141,106.5,162.473,105.643
	 M191.936,35.655h6.504l-10.072,61.473l-8.391,2.728L191.936,35.655z M103.608,163.426c-1.199,2.283-3.179,5.196-5.668,7.764
	c-4.972,5.137-11.827,9.687-17.412,10.701c-8.959,1.626-17.67,2.09-25.806,0c-3.123-0.802-8.026-3.481-13.008-7.134
	c-0.066-0.072-0.139-0.145-0.211-0.21c-1.181-0.757-2.369-1.783-3.566-2.728c-2.066-1.711-4.025-3.566-5.875-5.454
	c-3.144-3.219-5.891-6.568-7.76-9.65c-1.554-2.627-2.338-4.976-2.521-6.087c-0.23-1.295-0.268-2.366,0-3.147
	c10.74-8.921,20.807-23.968,20.562-41.542l2.308,0.42c28.767,9.183,53.251,26.889,60.213,52.873
	C104.971,159.632,104.803,161.147,103.608,163.426 M12.131,173.917l-4.193-16.365l8.181-2.518c0.392,1.051,0.942,2.132,1.47,3.147
	c0.672,1.305,1.446,2.5,2.307,3.777c0.72,1.35,1.621,2.589,2.728,3.986c1.177,1.488,2.479,2.92,3.987,4.194
	c0.248,0.262,0.375,0.582,0.63,0.84c1.005,1.03,2.09,1.952,3.147,2.938H12.131z M32.062,35.864h6.295l11.958,64.832l-1.257-0.211
	c-2.221-0.742-4.459-1.455-6.715-2.097L32.062,35.864z M66.439,103.91c0.984,0.352,1.566,0.885,1.89,1.732
	c0.358,0.938,0.349,2.083,0.207,3.082c-2.267-1.188-4.586-2.311-6.948-3.368C62.665,104.211,64.315,103.155,66.439,103.91
	 M80.793,112.287c0.954,0.724,1.145,1.367,1.206,1.847c0.099,0.802-0.147,1.704-0.493,2.524c-1.852-1.326-3.76-2.597-5.722-3.812
	C77.275,111.826,79.192,111.073,80.793,112.287 M92.318,120.448c0.828,0.709,1.197,1.494,1.191,2.537
	c-0.004,1.064-0.42,2.173-0.875,3.014c-1.608-1.595-3.289-3.134-5.037-4.614C89.078,120.287,91.006,119.326,92.318,120.448
	 M102.475,131.46c1.636,1.642,1.867,4.369,1.389,6.208c-0.148,0.57-0.362,1.063-0.613,1.453c-1.65-2.607-3.468-5.104-5.443-7.486
	C99.373,130.912,101.366,130.348,102.475,131.46 M227.393,152.308l-11.959-3.777c-0.049-1.329-0.326-2.713-0.84-3.986
	c-0.24-0.5-0.6-0.934-1.051-1.257c-10.859-8.563-21.479-24.582-18.881-42.172c0.02-0.211,0.02-0.42,0-0.631
	c0.002-0.068,0.002-0.141,0-0.21c0.002-0.069,0.002-0.141,0-0.21v-0.21l10.91-67.138c0.234-1.838-1.068-3.518-2.906-3.753
	c-0.078-0.011-0.162-0.017-0.24-0.021h-13.428c-0.348-0.055-0.703-0.055-1.051,0c-1.17,0.354-2.053,1.318-2.307,2.518L173,99.59
	c-2.645-2.248-6.369-3.754-10.949-2.107c-3.359,1.205-5.639,3.77-6.41,7.221c-0.057,0.252-0.104,0.506-0.145,0.765
	c-2.965-1.075-6.367-1.088-9.621,1.38c-2.217,1.68-3.553,3.925-3.859,6.491v0.006c-2.604-0.619-5.402-0.289-7.979,1.915
	c-2.598,2.221-3.846,5.312-3.531,8.731c-2.451-0.11-4.932,0.555-7.021,2.645c-3.119,3.133-4.363,8.136-3.16,12.75
	c0.615,2.376,1.807,4.297,3.402,5.604c-1.889,3.771-3.441,7.744-4.594,11.932h-7.974c-1.126-4.087-2.628-7.968-4.456-11.655
	c1.78-1.305,3.109-3.33,3.773-5.881c1.199-4.614-0.045-9.617-3.164-12.75c-2.09-2.093-4.572-2.772-7.018-2.645
	c0.311-3.419-0.936-6.511-3.535-8.731c-2.576-2.204-5.371-2.538-7.978-1.915v-0.006c-0.308-2.566-1.644-4.812-3.86-6.491
	c-3.254-2.468-6.656-2.455-9.619-1.38c-0.039-0.259-0.086-0.513-0.143-0.765c-0.773-3.451-3.05-6.016-6.411-7.221
	c-4.834-1.738-8.728,0.031-11.393,2.482L44.651,31.67c-0.308-1.607-1.722-2.758-3.357-2.727H27.866
	c-0.138-0.011-0.278-0.011-0.417,0c-0.141-0.011-0.282-0.011-0.42,0c-1.705,0.506-2.717,2.256-2.311,3.983l10.912,66.718
	c-0.012,0.141-0.012,0.283,0,0.42v0.42c-0.021,0.211-0.021,0.42,0,0.631c2.596,17.59-8.023,33.608-18.883,42.172
	c-0.447,0.323-0.811,0.757-1.051,1.257c-0.514,1.28-0.798,2.644-0.84,3.986l-11.958,3.777c-1.701,0.51-2.714,2.255-2.308,3.987
	l5.455,21.818c0.393,1.522,1.786,2.565,3.356,2.518h28.954c5.02,3.66,10.236,6.408,14.688,7.555c9.486,2.438,19.082,1.714,28.534,0
	c7.864-1.429,15.483-6.491,21.188-12.379c2.852-2.947,5.32-6.177,6.925-9.234c0.54-1.029,0.896-2.128,1.256-3.146h8.605
	c0.393,0.939,0.717,2.021,1.258,2.939c1.68,2.842,4.055,5.702,6.924,8.392c5.738,5.375,13.43,10.378,20.561,12.798
	c11.24,3.815,20.443,3.326,29.375,0c3.598-1.342,7.76-3.897,12.168-6.924h31.051c1.568,0.048,2.963-0.995,3.355-2.518l5.455-21.818
	C230.11,154.563,229.096,152.818,227.393,152.308"/>
<path fill="#FFFFFF" d="M51.293,30.107C69.28,17.147,91.338,9.5,115.146,9.5c23.792,0,45.829,7.633,63.805,20.572l0.006-0.025
	c0.492-2.334,1.781-4.364,3.578-5.814c-19.027-13.568-42.293-21.564-67.389-21.564c-25.143,0-48.448,8.022-67.492,21.641
	C49.451,25.727,50.766,27.744,51.293,30.107"/>
<path fill="#FFFFFF" d="M207.911,60.912c10.578,16.84,16.707,36.75,16.707,58.062c0,8.394-0.949,16.568-2.752,24.425l6.535,2.063
	c1.994-8.513,3.047-17.378,3.047-26.488c0-25.328-8.143-48.783-21.938-67.902L207.911,60.912z"/>
<path fill="#FFFFFF" d="M200.479,187.463c-20.08,24.97-50.869,40.983-85.331,40.983c-34.466,0-65.255-16.014-85.335-40.983h-8.604
	c21.176,28.96,55.394,47.814,93.939,47.814c38.542,0,72.76-18.854,93.932-47.814H200.479z"/>
<path fill="#FFFFFF" d="M8.424,143.4c-1.797-7.857-2.75-16.031-2.75-24.427c0-21.309,6.129-41.211,16.702-58.051l-1.608-9.834
	C6.979,70.205-1.158,93.656-1.158,118.973c0,9.111,1.057,17.978,3.047,26.488L8.424,143.4z"/>
</svg>
