<?xml version="1.0" encoding="utf-8"?>
<!-- Generator: Adobe Illustrator 15.0.0, SVG Export Plug-In . SVG Version: 6.00 Build 0)  -->
<!DOCTYPE svg PUBLIC "-//W3C//DTD SVG 1.1//EN" "http://www.w3.org/Graphics/SVG/1.1/DTD/svg11.dtd">
<svg version="1.1" id="Layer_1" xmlns="http://www.w3.org/2000/svg" xmlns:xlink="http://www.w3.org/1999/xlink" x="0px" y="0px"
	 width="196.138px" height="265.061px" viewBox="0 0 196.138 265.061" enable-background="new 0 0 196.138 265.061"
	 xml:space="preserve">
<path fill="none" stroke="#FFFFFF" stroke-width="2" stroke-miterlimit="10" d="M31.37,139.951c0,39.532,32.049,71.58,71.581,71.58
	c39.533,0,71.582-32.048,71.582-71.58c0-10.059-2.074-19.631-5.818-28.315c-10.973-25.451-36.287-43.266-65.764-43.266
	C63.419,68.369,31.37,100.417,31.37,139.951z"/>
<path fill="none" stroke="#FFFFFF" stroke-width="2" stroke-miterlimit="10" d="M141.793,79.815
	c-2.365,28.84-16.325,83.503-84.778,115.037"/>
<path fill="none" stroke="#FFFFFF" stroke-width="2" stroke-miterlimit="10" d="M131.986,74.504
	c-2.938,29.22-17.812,81.304-83.373,112.041"/>
<path fill="none" stroke="#FFFFFF" stroke-width="2" stroke-miterlimit="10" d="M121.92,70.91
	c-3.864,29.326-19.827,77.032-79.99,106.49"/>
<path fill="none" stroke="#FFFFFF" stroke-width="2" stroke-miterlimit="10" d="M111.461,68.87
	c-5.023,28.719-21.784,70.821-74.646,98.509"/>
<path fill="none" stroke="#FFFFFF" stroke-width="2" stroke-miterlimit="10" d="M100.395,68.417
	c-6.248,27.011-23.11,62.609-67.144,87.903"/>
<path fill="none" stroke="#FFFFFF" stroke-width="2" stroke-miterlimit="10" d="M88.342,69.863
	c-7.278,23.757-23.095,51.982-56.867,73.929"/>
<path fill="none" stroke="#FFFFFF" stroke-width="2" stroke-miterlimit="10" d="M74.367,74.301
	c-7.529,18.087-20.371,37.583-42.114,54.39"/>
<path fill="none" stroke="#FFFFFF" stroke-width="2" stroke-miterlimit="10" d="M123.363,137.716
	c14.499,7.088,29.938,17.897,43.561,34.383"/>
<path fill="none" stroke="#FFFFFF" stroke-width="2" stroke-miterlimit="10" d="M116.853,147.544
	c14.515,7.43,29.823,18.644,43.208,35.564"/>
<path fill="none" stroke="#FFFFFF" stroke-width="2" stroke-miterlimit="10" d="M109.352,156.899
	c14.295,7.503,29.281,18.706,42.389,35.429"/>
<path fill="none" stroke="#FFFFFF" stroke-width="2" stroke-miterlimit="10" d="M100.84,165.73
	c13.898,7.325,28.439,18.152,41.264,34.153"/>
<path fill="none" stroke="#FFFFFF" stroke-width="2" stroke-miterlimit="10" d="M91.291,174.02
	c13.32,6.898,27.279,16.997,39.784,31.774"/>
<path fill="none" stroke="#FFFFFF" stroke-width="2" stroke-miterlimit="10" d="M80.63,181.757
	c12.279,6.104,25.192,14.892,37.079,27.541c0.184,0.195,0.367,0.393,0.552,0.591"/>
<path fill="none" stroke="#FFFFFF" stroke-width="2" stroke-miterlimit="10" d="M68.727,188.95
	c11.015,5.116,22.671,12.351,33.729,22.581"/>
<path fill="none" stroke="#FFFFFF" stroke-width="2" stroke-miterlimit="10" d="M133.141,117.65
	c6.766-5.012,16.875-11.436,29.854-16.678"/>
<path fill="none" stroke="#FFFFFF" stroke-width="2" stroke-miterlimit="10" d="M123.194,138.214c0,0,16.542-16.893,45.315-27.045"
	/>
<path fill="none" stroke="#FFFFFF" stroke-width="2" stroke-miterlimit="10" d="M132.54,142.577
	c8.317-6.207,21.882-14.699,39.769-20.394"/>
<path fill="none" stroke="#FFFFFF" stroke-width="2" stroke-miterlimit="10" d="M138.149,101.848
	c4.843-3.216,10.81-6.726,17.801-10.008"/>
<path fill="none" stroke="#FFFFFF" stroke-width="2" stroke-miterlimit="10" d="M141.717,148.614
	c8.367-5.179,19.339-10.715,32.562-14.671"/>
<path fill="none" stroke="#FFFFFF" stroke-width="2" stroke-miterlimit="10" d="M150.859,155.746
	c6.799-3.502,14.727-6.869,23.674-9.507"/>
<path fill="#FFFFFF" d="M-0.001,43.336c0,3.937,3.19,7.128,7.128,7.128c3.936,0,7.127-3.191,7.127-7.128s-3.191-7.128-7.127-7.128
	C3.189,36.208-0.001,39.399-0.001,43.336"/>
<path fill="#FFFFFF" d="M51.228,90.498L9.767,49.847l3.87-3.947c0,0,17.678,17.333,41.556,40.744
	C53.819,87.875,52.501,89.166,51.228,90.498"/>
<path fill="#FFFFFF" d="M157.183,186.642c7.813,7.662,14.22,13.942,18.509,18.146c29.854,29.272,25.688,32.929-3.871,3.947
	L153.426,190.7C154.734,189.4,155.979,188.039,157.183,186.642"/>
<path fill="#FFFFFF" d="M121.016,209.228l5.76,24.806c9.362,40.321,4.072,41.977-5.385,1.25c-1.344-5.785-3.342-14.39-5.779-24.892
	C117.436,210.066,119.242,209.689,121.016,209.228"/>
<path fill="#FFFFFF" d="M83.275,71.13c-7.593-32.695-13.217-56.918-13.217-56.918l5.385-1.25l13.197,56.84
	C86.824,70.171,85.039,70.626,83.275,71.13"/>
<path fill="#FFFFFF" d="M63.745,7.127c0,3.937,3.19,7.128,7.128,7.128c3.936,0,7.127-3.191,7.127-7.128s-3.191-7.128-7.127-7.128
	C66.936-0.001,63.745,3.19,63.745,7.127"/>
</svg>
