<?xml version="1.0" encoding="utf-8"?>
<!-- Generator: Adobe Illustrator 15.0.0, SVG Export Plug-In . SVG Version: 6.00 Build 0)  -->
<!DOCTYPE svg PUBLIC "-//W3C//DTD SVG 1.1//EN" "http://www.w3.org/Graphics/SVG/1.1/DTD/svg11.dtd">
<svg version="1.1" id="Layer_1" xmlns="http://www.w3.org/2000/svg" xmlns:xlink="http://www.w3.org/1999/xlink" x="0px" y="0px"
	 width="238.007px" height="175px" viewBox="0 0 238.007 175" enable-background="new 0 0 238.007 175" xml:space="preserve">
<line fill="none" stroke="#FFFFFF" stroke-width="2" stroke-miterlimit="10" x1="102.341" y1="39" x2="17.674" y2="39"/>
<line fill="none" stroke="#FFFFFF" stroke-width="2" stroke-miterlimit="10" x1="102.341" y1="57" x2="17.674" y2="57"/>
<line fill="none" stroke="#FFFFFF" stroke-width="2" stroke-miterlimit="10" x1="102.341" y1="75" x2="17.674" y2="75"/>
<line fill="none" stroke="#FFFFFF" stroke-width="2" stroke-miterlimit="10" x1="102.341" y1="93" x2="17.674" y2="93"/>
<line fill="none" stroke="#FFFFFF" stroke-width="2" stroke-miterlimit="10" x1="102.341" y1="111" x2="17.674" y2="111"/>
<line fill="none" stroke="#FFFFFF" stroke-width="2" stroke-miterlimit="10" x1="94.008" y1="129" x2="17.675" y2="129"/>
<line fill="none" stroke="#FFFFFF" stroke-width="2" stroke-miterlimit="10" x1="83.508" y1="147" x2="17.675" y2="147"/>
<rect x="139.095" y="53.863" transform="matrix(-0.8059 -0.592 0.592 -0.8059 208.3177 241.6022)" fill="none" stroke="#FFFFFF" stroke-width="2" stroke-miterlimit="10" width="9.333" height="65.583"/>
<rect x="112.723" y="110.8" transform="matrix(-0.8059 -0.592 0.592 -0.8059 139.4414 290.8138)" fill="none" stroke="#FFFFFF" stroke-width="2" stroke-miterlimit="10" width="9.333" height="23.5"/>
<polyline fill="none" stroke="#FFFFFF" stroke-width="2" stroke-miterlimit="10" points="114.783,134.145 113.776,135.515 
	101.924,143.766 106.255,129.989 107.65,128.09 "/>
<path fill="none" stroke="#FFFFFF" stroke-width="2" stroke-miterlimit="10" d="M166.664,70.235
	c0.986-1.343,26.445-35.996,26.445-35.996"/>
<path fill="none" stroke="#FFFFFF" stroke-width="2" stroke-miterlimit="10" d="M168.087,63.836l18.726-25.487
	c0,0,6.719-7.522,1.033-11.699c-5.686-4.178-10.855,4.483-10.855,4.483L158.266,56.62L168.087,63.836z"/>
<path fill="none" stroke="#FFFFFF" stroke-width="2" stroke-miterlimit="10" d="M119.001,111V39c0-14.975,1.75-38-35-38h-83v173h118
	v-45"/>
<path fill="none" stroke="#FFFFFF" stroke-width="2" stroke-miterlimit="10" d="M119.008,112.483V39c0-14.975-1.75-38,35-38h83v173
	h-118v-45.771"/>
</svg>
