<?xml version="1.0" encoding="utf-8"?>
<!-- Generator: Adobe Illustrator 15.0.0, SVG Export Plug-In . SVG Version: 6.00 Build 0)  -->
<!DOCTYPE svg PUBLIC "-//W3C//DTD SVG 1.1//EN" "http://www.w3.org/Graphics/SVG/1.1/DTD/svg11.dtd">
<svg version="1.1" id="Layer_1" xmlns="http://www.w3.org/2000/svg" xmlns:xlink="http://www.w3.org/1999/xlink" x="0px" y="0px"
	 width="319.331px" height="207.409px" viewBox="0 0 319.331 207.409" enable-background="new 0 0 319.331 207.409"
	 xml:space="preserve">
<path fill="none" stroke="#FFFFFF" stroke-width="2" stroke-miterlimit="10" d="M208.372,155.99L208.372,155.99
	c-9.106,0-16.558-7.449-16.558-16.556v-37.588c0-9.106,7.451-16.556,16.558-16.556c9.105,0,16.556,7.45,16.556,16.556v37.588
	C224.928,148.541,217.478,155.99,208.372,155.99z"/>
<path fill="none" stroke="#FFFFFF" stroke-width="2" stroke-miterlimit="10" d="M280.223,155.99L280.223,155.99
	c-9.105,0-16.557-7.449-16.557-16.556v-37.588c0-9.106,7.451-16.556,16.557-16.556c9.106,0,16.557,7.45,16.557,16.556v37.588
	C296.779,148.541,289.329,155.99,280.223,155.99z"/>
<path fill="#FFFFFF" d="M187.799,135.335c0,2.297-2.145,4.029-4.376,3.483c-8.012-1.962-13.957-9.19-13.957-17.808
	c0-8.616,5.945-15.846,13.957-17.807c2.231-0.546,4.376,1.187,4.376,3.484V135.335z"/>
<path fill="#FFFFFF" d="M319.129,120.641c0,8.617-5.945,15.845-13.957,17.808c-2.231,0.546-4.376-1.188-4.376-3.483v-28.648
	c0-2.296,2.145-4.03,4.376-3.484C313.184,104.796,319.129,112.023,319.129,120.641"/>
<path fill="none" stroke="#FFFFFF" stroke-width="2" stroke-miterlimit="10" d="M318.301,121.011h-5.09l0.005-53.121
	c0.013-0.226,1.036-23.126-14.879-40.242c-11.87-12.766-30.04-21.462-54.004-21.462c-23.966,0-42.135,8.696-54.006,21.462
	c-15.914,17.116-14.89,40.016-14.877,40.245l0.004,0.144v52.974h-5.09V68.104c-0.089-1.832-0.875-25.535,16.218-43.967
	C199.451,10.259,218.881,1,244.333,1c25.451,0,44.881,9.258,57.75,23.136c17.093,18.431,16.307,42.135,16.218,43.967V121.011z"/>
<polyline fill="none" stroke="#FFFFFF" stroke-width="2" stroke-miterlimit="10" points="28.518,152.661 28.518,81.961 
	72.468,70.689 72.468,141.391 "/>
<ellipse fill="none" stroke="#FFFFFF" stroke-width="2" stroke-miterlimit="10" cx="14.759" cy="154.288" rx="13.759" ry="9.645"/>
<ellipse fill="none" stroke="#FFFFFF" stroke-width="2" stroke-miterlimit="10" cx="58.709" cy="140.787" rx="13.759" ry="9.646"/>
<path fill="none" stroke="#FFFFFF" stroke-width="2" stroke-miterlimit="10" d="M28.518,99.874
	c2.78-0.713,43.95-11.295,43.95-11.295"/>
<polyline fill="none" stroke="#FFFFFF" stroke-width="2" stroke-miterlimit="10" points="98.362,195.138 98.362,124.438 
	142.312,113.166 142.312,183.867 "/>
<ellipse fill="none" stroke="#FFFFFF" stroke-width="2" stroke-miterlimit="10" cx="84.603" cy="196.765" rx="13.759" ry="9.645"/>
<ellipse fill="none" stroke="#FFFFFF" stroke-width="2" stroke-miterlimit="10" cx="128.553" cy="183.264" rx="13.759" ry="9.645"/>
<path fill="none" stroke="#FFFFFF" stroke-width="2" stroke-miterlimit="10" d="M98.362,142.351
	c2.78-0.713,43.95-11.295,43.95-11.295"/>
</svg>
