<?xml version="1.0" encoding="utf-8"?>
<!-- Generator: Adobe Illustrator 15.0.0, SVG Export Plug-In . SVG Version: 6.00 Build 0)  -->
<!DOCTYPE svg PUBLIC "-//W3C//DTD SVG 1.1//EN" "http://www.w3.org/Graphics/SVG/1.1/DTD/svg11.dtd">
<svg version="1.1" id="Layer_1" xmlns="http://www.w3.org/2000/svg" xmlns:xlink="http://www.w3.org/1999/xlink" x="0px" y="0px"
	 width="257.235px" height="135.66px" viewBox="0 0 257.235 135.66" enable-background="new 0 0 257.235 135.66"
	 xml:space="preserve">
<path fill="none" stroke="#FFFFFF" stroke-width="2" stroke-miterlimit="10" d="M122.517,1.39c0,0,8.312-3.253,12.288,9.036
	c3.976,12.288,12.289,23.674,16.986,29.34c4.699,5.666,2.53,16.199-13.011,21.982c-15.541,5.782-28.217,7.228-52.962,19.877
	c-24.744,12.65-31.972,14.067-31.972,14.067s-10.518,7.894-33.975,3.781C-3.586,95.36-2.175,77.289,7.945,72.952
	S29.63,69.15,40.111,57.678C50.593,46.207,69.783,5.366,69.783,5.366s2.495-5.422,11.531,2.891
	c9.035,8.313,7.31,13.373,17.931,9.397S118.309,1.591,122.517,1.39z"/>
<path fill="none" stroke="#FFFFFF" stroke-width="2" stroke-miterlimit="10" d="M148.636,35.762c0,0-14.915,16.04-38.408,21.917
	C86.735,63.555,49.601,103.617,8.895,95.694"/>
<line fill="none" stroke="#FFFFFF" stroke-width="2" stroke-miterlimit="10" x1="73.725" y1="29.22" x2="61.993" y2="22.281"/>
<line fill="none" stroke="#FFFFFF" stroke-width="2" stroke-miterlimit="10" x1="67.858" y1="40.424" x2="56.128" y2="33.485"/>
<line fill="none" stroke="#FFFFFF" stroke-width="2" stroke-miterlimit="10" x1="61.993" y1="51.628" x2="50.263" y2="44.689"/>
<path fill="none" stroke="#FFFFFF" stroke-width="2" stroke-miterlimit="10" d="M214.244,13.783c0,0,7.229-5.238,14.165,5.657
	c6.937,10.894,17.844,19.825,23.815,24.128c5.973,4.303,6.521,15.043-7.068,24.547c-13.588,9.502-25.493,14.088-46.264,32.552
	c-20.771,18.463-27.41,21.651-27.41,21.651s-8.195,10.284-31.934,12.199c-23.738,1.914-26.915-15.931-18.21-22.673
	c8.704-6.741,20.033-9.13,27.294-22.868c7.262-13.738,15.571-58.091,15.571-58.091s1.052-5.875,11.887-0.1
	s10.437,11.106,19.718,4.588C205.089,28.855,210.223,15.035,214.244,13.783z"/>
<path fill="none" stroke="#FFFFFF" stroke-width="2" stroke-miterlimit="10" d="M248.164,40.485c0,0-10.404,19.274-31.666,30.867
	c-21.261,11.593-47.134,59.701-88.524,62.265"/>
<line fill="none" stroke="#FFFFFF" stroke-width="2" stroke-miterlimit="10" x1="174.014" y1="52.983" x2="160.916" y2="49.215"/>
<line fill="none" stroke="#FFFFFF" stroke-width="2" stroke-miterlimit="10" x1="171.152" y1="65.301" x2="158.055" y2="61.534"/>
<line fill="none" stroke="#FFFFFF" stroke-width="2" stroke-miterlimit="10" x1="168.291" y1="77.62" x2="155.193" y2="73.853"/>
</svg>
