<?xml version="1.0" encoding="utf-8"?>
<!-- Generator: Adobe Illustrator 15.0.0, SVG Export Plug-In . SVG Version: 6.00 Build 0)  -->
<!DOCTYPE svg PUBLIC "-//W3C//DTD SVG 1.1//EN" "http://www.w3.org/Graphics/SVG/1.1/DTD/svg11.dtd">
<svg version="1.1" id="Layer_1" xmlns="http://www.w3.org/2000/svg" xmlns:xlink="http://www.w3.org/1999/xlink" x="0px" y="0px"
	 width="193.98px" height="112.686px" viewBox="0 0 193.98 112.686" enable-background="new 0 0 193.98 112.686"
	 xml:space="preserve">
<path fill="none" stroke="#FFFFFF" stroke-width="2" stroke-miterlimit="10" d="M192.98,60.455H43.853
	C24.737,60.455,0,58.557,0,40.636c0-17.71,12.783-19.818,18.132-19.818c3.309,0,19.817,0,19.817,19.818"/>
<path fill="none" stroke="#FFFFFF" stroke-width="2" stroke-miterlimit="10" d="M192.98,40.636h-84.95
	c-24.26,0-43.853-0.422-43.853-19.818C64.178,3.108,76.961,1,82.309,1c3.309,0,19.818,0,19.818,19.818"/>
<path fill="none" stroke="#FFFFFF" stroke-width="2" stroke-miterlimit="10" d="M192.98,72.05H58.549
	c-24.113,0-43.64,0.843-43.64,23.604c1.692,14.233,12.978,16.032,17.917,16.032c3.31,0,19.818,0,19.818-19.818"/>
</svg>
