<?xml version="1.0" encoding="utf-8"?>
<!-- Generator: Adobe Illustrator 15.0.0, SVG Export Plug-In . SVG Version: 6.00 Build 0)  -->
<!DOCTYPE svg PUBLIC "-//W3C//DTD SVG 1.1//EN" "http://www.w3.org/Graphics/SVG/1.1/DTD/svg11.dtd">
<svg version="1.1" id="Layer_1" xmlns="http://www.w3.org/2000/svg" xmlns:xlink="http://www.w3.org/1999/xlink" x="0px" y="0px"
	 width="464.321px" height="509.751px" viewBox="0 0 464.321 509.751" enable-background="new 0 0 464.321 509.751"
	 xml:space="preserve">
<path fill="none" stroke="#FFFFFF" stroke-width="7" stroke-miterlimit="10" d="M181.162,170.729c0,0-11.841-115.885-55.487-102.426
	C82.028,81.764,16.829,162.327,9.407,247.531c-7.423,85.204-19.929,248.794,50.109,257.883
	c70.038,9.088,121.146-58.033,124.147-91.802C186.665,379.845,191.08,243.854,181.162,170.729z"/>
<path fill="none" stroke="#FFFFFF" stroke-width="7" stroke-miterlimit="10" d="M183.663,184.737c0,0-108.262,15.405-72.431,225.53"
	/>
<path fill="none" stroke="#FFFFFF" stroke-width="7" stroke-miterlimit="10" d="M107.038,381.286c0,0-40.651,39.233-44.92,70.383"/>
<path fill="none" stroke="#FFFFFF" stroke-width="7" stroke-miterlimit="10" d="M105.375,294.798c0,0-46.701,24.097-53.784,68.538"
	/>
<path fill="none" stroke="#FFFFFF" stroke-width="7" stroke-miterlimit="10" d="M132.886,220.233c0,0-37.358-14.234-70.789-0.476"/>
<path fill="none" stroke="#FFFFFF" stroke-width="7" stroke-miterlimit="10" d="M80.106,152.22c0,0,23.592,31.587,26.931,64.779"/>
<path fill="none" stroke="#FFFFFF" stroke-width="7" stroke-miterlimit="10" d="M115.257,254.913
	c0.112-0.318,37.644,23.793,44.314,74.154"/>
<path fill="none" stroke="#FFFFFF" stroke-width="7" stroke-miterlimit="10" d="M103.962,359.416c0,0,43.936,20.825,55.609,50.852"
	/>
<path fill="none" stroke="#FFFFFF" stroke-width="7" stroke-miterlimit="10" d="M77.701,416.478c0,0,25.528,18.728,29.336,42.16"/>
<path fill="none" stroke="#FFFFFF" stroke-width="7" stroke-miterlimit="10" d="M184.848,213.764
	c33.828-24.941,65.153-25.25,93.881,0"/>
<path fill="none" stroke="#FFFFFF" stroke-width="7" stroke-miterlimit="10" d="M180.409,175.733c0,0,13.494-14.495,34.368-15.259V0
	"/>
<path fill="none" stroke="#FFFFFF" stroke-width="7" stroke-miterlimit="10" d="M283.167,175.733c0,0-13.494-14.495-34.368-15.259V0
	"/>
<path fill="none" stroke="#FFFFFF" stroke-width="7" stroke-miterlimit="10" d="M283.158,170.729c0,0,11.842-115.885,55.487-102.426
	c43.647,13.46,108.846,94.023,116.269,179.227c7.423,85.204,19.929,248.794-50.109,257.883
	c-70.038,9.088-121.146-58.033-124.147-91.802C277.655,379.845,273.24,243.854,283.158,170.729z"/>
<path fill="none" stroke="#FFFFFF" stroke-width="7" stroke-miterlimit="10" d="M280.657,184.737c0,0,108.262,15.405,72.432,225.53"
	/>
<path fill="none" stroke="#FFFFFF" stroke-width="7" stroke-miterlimit="10" d="M357.283,381.286c0,0,40.65,39.233,44.92,70.383"/>
<path fill="none" stroke="#FFFFFF" stroke-width="7" stroke-miterlimit="10" d="M358.946,294.798c0,0,46.701,24.097,53.784,68.538"
	/>
<path fill="none" stroke="#FFFFFF" stroke-width="7" stroke-miterlimit="10" d="M331.435,220.233c0,0,37.358-14.234,70.789-0.476"/>
<path fill="none" stroke="#FFFFFF" stroke-width="7" stroke-miterlimit="10" d="M384.214,152.22c0,0-23.592,31.587-26.931,64.779"/>
<path fill="none" stroke="#FFFFFF" stroke-width="7" stroke-miterlimit="10" d="M349.063,254.913
	c-0.111-0.318-37.644,23.793-44.313,74.154"/>
<path fill="none" stroke="#FFFFFF" stroke-width="7" stroke-miterlimit="10" d="M360.358,359.416c0,0-43.936,20.825-55.609,50.852"
	/>
<path fill="none" stroke="#FFFFFF" stroke-width="7" stroke-miterlimit="10" d="M386.619,416.478c0,0-25.526,18.728-29.336,42.16"/>
</svg>
