<?xml version="1.0" encoding="utf-8"?>
<!-- Generator: Adobe Illustrator 15.0.0, SVG Export Plug-In . SVG Version: 6.00 Build 0)  -->
<!DOCTYPE svg PUBLIC "-//W3C//DTD SVG 1.1//EN" "http://www.w3.org/Graphics/SVG/1.1/DTD/svg11.dtd">
<svg version="1.1" id="Layer_1" xmlns="http://www.w3.org/2000/svg" xmlns:xlink="http://www.w3.org/1999/xlink" x="0px" y="0px"
	 width="73.044px" height="77.074px" viewBox="0 0 73.044 77.074" enable-background="new 0 0 73.044 77.074" xml:space="preserve">
<path fill="none" stroke="#FFFFFF" stroke-miterlimit="10" d="M21.139,41.034H0.619c0,0,2.684,12.467,13.231,12.467h7.289"/>
<path fill="none" stroke="#FFFFFF" stroke-miterlimit="10" d="M21.139,38.784h51.285c0,0-3.158,14.666-15.568,14.666H21.139V38.784z
	"/>
<line fill="none" stroke="#FFFFFF" stroke-miterlimit="10" x1="25.933" y1="43.145" x2="64.29" y2="43.145"/>
<path fill="none" stroke="#FFFFFF" stroke-miterlimit="10" d="M20.852,53.542c5.049,0,9.141,4.091,9.141,9.141
	c0,5.049-4.092,9.142-9.141,9.142"/>
<path fill="none" stroke="#FFFFFF" stroke-miterlimit="10" d="M57.078,53.447c-5.073,0-9.188,4.112-9.188,9.187
	s4.114,9.188,9.188,9.188"/>
<path fill="none" stroke="#FFFFFF" stroke-miterlimit="10" d="M59.577,71.853H46.021c0.698,1.236,1.1,2.661,1.1,4.182
	c0,0.183-0.016,0.36-0.025,0.54h12.482c1.305,0,2.361-1.058,2.361-2.361S60.882,71.853,59.577,71.853z"/>
<path fill="none" stroke="#FFFFFF" stroke-miterlimit="10" d="M30.052,76.034c0-1.521,0.403-2.945,1.1-4.182H17.595
	c-1.304,0-2.36,1.057-2.36,2.36s1.056,2.361,2.36,2.361h12.483C30.068,76.395,30.052,76.217,30.052,76.034z"/>
<path fill="none" stroke="#FFFFFF" stroke-miterlimit="10" d="M30.052,76.034c0-4.713,3.821-8.534,8.534-8.534
	c4.714,0,8.534,3.821,8.534,8.534"/>
<line fill="none" stroke="#FFFFFF" stroke-miterlimit="10" x1="29.002" y1="58.583" x2="48.755" y2="58.583"/>
<line fill="none" stroke="#FFFFFF" stroke-miterlimit="10" x1="36.522" y1="32.25" x2="36.522" y2="0"/>
<line fill="none" stroke="#FFFFFF" stroke-miterlimit="10" x1="46.022" y1="32.25" x2="46.022" y2="4"/>
<line fill="none" stroke="#FFFFFF" stroke-miterlimit="10" x1="27.022" y1="32.25" x2="27.022" y2="4"/>
</svg>
