<?xml version="1.0" encoding="utf-8"?>
<!-- Generator: Adobe Illustrator 15.0.0, SVG Export Plug-In . SVG Version: 6.00 Build 0)  -->
<!DOCTYPE svg PUBLIC "-//W3C//DTD SVG 1.1//EN" "http://www.w3.org/Graphics/SVG/1.1/DTD/svg11.dtd">
<svg version="1.1" id="Layer_1" xmlns="http://www.w3.org/2000/svg" xmlns:xlink="http://www.w3.org/1999/xlink" x="0px" y="0px"
	 width="66.157px" height="61.546px" viewBox="0 0 66.157 61.546" enable-background="new 0 0 66.157 61.546" xml:space="preserve">
<line fill="none" stroke="#FFFFFF" stroke-miterlimit="10" x1="33.079" y1="22.508" x2="33.079" y2="26.591"/>
<line fill="none" stroke="#FFFFFF" stroke-miterlimit="10" x1="33.079" y1="36.418" x2="33.079" y2="43.436"/>
<path fill="none" stroke="#FFFFFF" stroke-miterlimit="10" d="M33.079,47.009c-6.099,0-1.839-10.591,0-10.591
	C34.921,36.418,39.181,47.009,33.079,47.009z"/>
<path fill="none" stroke="#FFFFFF" stroke-miterlimit="10" d="M36.015,19.062c0-0.986,0.8-1.786,1.787-1.786
	c0.701,0,1.295,0.414,1.587,1.004c1.144-1.414,1.832-2.664,1.832-2.664s-3.646-2.041-8.143-2.041c-4.495,0-8.139,2.041-8.139,2.041
	s0.688,1.251,1.832,2.665c0.291-0.591,0.885-1.005,1.588-1.005c0.985,0,1.786,0.8,1.786,1.786c0,0.706-0.419,1.304-1.015,1.594
	c1.17,0.919,2.516,1.596,3.948,1.596c1.436,0,2.779-0.678,3.95-1.597C36.434,20.364,36.015,19.768,36.015,19.062z"/>
<polyline fill="none" stroke="#FFFFFF" stroke-miterlimit="10" points="25.802,30.292 27.588,35.524 29.375,30.292 36.783,30.292 
	38.57,35.524 40.355,30.292 "/>
<path fill="none" stroke="#FFFFFF" stroke-miterlimit="10" d="M33.203,26.22c-4.299,0-8.038,1.457-8.167,7.772
	c-0.128,6.316,1.786,7.657,2.297,12.379c0.441,4.067-3.318,11.357,5.487,11.357h0.518c8.806,0,5.045-7.29,5.487-11.357
	c0.511-4.722,2.425-6.062,2.296-12.379c-0.128-6.315-3.867-7.772-8.166-7.772"/>
<polyline fill="none" stroke="#FFFFFF" stroke-miterlimit="10" points="38.697,55.814 35.891,50.583 34.996,53.262 31.161,53.262 
	30.267,50.583 27.461,55.814 "/>
<path fill="none" stroke="#FFFFFF" stroke-miterlimit="10" d="M16.613,4.004c0,0-7.273-5.551-15.696-2.68
	c0,0-2.679,11.677,5.551,13.973"/>
<path fill="none" stroke="#FFFFFF" stroke-miterlimit="10" d="M12.019,8.024c0,0-1.722-5.551-8.23-3.254"/>
<circle fill="none" stroke="#FFFFFF" stroke-miterlimit="10" cx="22.42" cy="16.191" r="1.978"/>
<path fill="none" stroke="#FFFFFF" stroke-miterlimit="10" d="M17.507,13.703c0,0,3.191-1.914,6.381,1.149"/>
<path fill="none" stroke="#FFFFFF" stroke-miterlimit="10" d="M22.611,18.169c0,0-1.913,1.531-1.403,7.273
	c0.51,5.743,2.805,12.123,0.254,15.697"/>
<path fill="none" stroke="#FFFFFF" stroke-miterlimit="10" d="M43.547,18.169c0,0,1.913,1.531,1.403,7.273
	c-0.511,5.743-2.807,12.123-0.255,15.697"/>
<path fill="none" stroke="#FFFFFF" stroke-miterlimit="10" d="M24.908,47.392c0,0-2.516,5.366,0.128,10.464"/>
<circle fill="none" stroke="#FFFFFF" stroke-miterlimit="10" cx="43.738" cy="16.191" r="1.978"/>
<path fill="none" stroke="#FFFFFF" stroke-miterlimit="10" d="M59.689,15.297c8.231-2.296,5.552-13.973,5.552-13.973
	c-8.422-2.871-15.696,2.68-15.696,2.68l4.594,4.02c0,0,1.724-5.551,8.231-3.254"/>
<path fill="none" stroke="#FFFFFF" stroke-miterlimit="10" d="M42.27,14.852c3.19-3.063,6.382-1.149,6.382-1.149"/>
<path fill="none" stroke="#FFFFFF" stroke-miterlimit="10" d="M32.5,61.046c-4.881-0.098-11.414-6.347-17.61-11.103
	c-5.956-4.569-11.676-7.656-11.676-7.656l1.148-6.316l-3.637,3.062C2.641,8.981,16.805,3.622,22.93,2.473
	c6.125-1.149,10.015,1.914,10.015,1.914s4.159-3.063,10.284-1.914c6.125,1.149,20.29,6.508,22.204,36.561l-3.637-3.062l1.148,6.316
	c0,0-5.72,3.087-11.677,7.656c-6.197,4.756-12.729,11.005-17.61,11.103H32.5z"/>
<path fill="none" stroke="#FFFFFF" stroke-miterlimit="10" d="M41.25,47.392c0,0,2.515,5.366-0.128,10.464"/>
</svg>
