<?xml version="1.0" encoding="utf-8"?>
<!-- Generator: Adobe Illustrator 15.0.0, SVG Export Plug-In . SVG Version: 6.00 Build 0)  -->
<!DOCTYPE svg PUBLIC "-//W3C//DTD SVG 1.1//EN" "http://www.w3.org/Graphics/SVG/1.1/DTD/svg11.dtd">
<svg version="1.1" id="Layer_1" xmlns="http://www.w3.org/2000/svg" xmlns:xlink="http://www.w3.org/1999/xlink" x="0px" y="0px"
	 width="87.857px" height="72.201px" viewBox="0 0 87.857 72.201" enable-background="new 0 0 87.857 72.201" xml:space="preserve">
<path fill="none" stroke="#FFFFFF" stroke-miterlimit="10" d="M46.847,36.341V54.65c0,1.611-1.308,2.917-2.917,2.917
	c-1.611,0-2.917-1.306-2.917-2.917V36.341"/>
<path fill="none" stroke="#FFFFFF" stroke-miterlimit="10" d="M45.452,25.972c0.833-0.513,1.395-1.426,1.395-2.478
	c0-1.61-1.307-2.917-2.918-2.917c-1.611,0-2.917,1.307-2.917,2.917c0,1.052,0.561,1.965,1.394,2.478"/>
<path fill="none" stroke="#FFFFFF" stroke-miterlimit="10" d="M45.452,25.972c-0.444,0.274-0.964,0.44-1.523,0.44
	c-0.56,0-1.079-0.166-1.523-0.44c-1.293,1.06-2.195,3.419-2.195,6.167c0,3.736,1.665,6.765,3.718,6.765
	c2.053,0,3.718-3.029,3.718-6.765C47.646,29.391,46.745,27.032,45.452,25.972z"/>
<path fill="none" stroke="#FFFFFF" stroke-miterlimit="10" d="M42.406,25.972c0.444,0.274,0.963,0.44,1.523,0.44
	c0.561,0,1.079-0.166,1.523-0.44"/>
<line fill="none" stroke="#FFFFFF" stroke-miterlimit="10" x1="43.929" y1="7.827" x2="43.929" y2="20.613"/>
<polyline fill="none" stroke="#FFFFFF" stroke-miterlimit="10" points="46.422,27.456 54.166,19.713 54.166,11.068 64.88,0.353 "/>
<polyline fill="none" stroke="#FFFFFF" stroke-miterlimit="10" points="47.502,33.939 58.667,43.104 58.667,54.11 68.122,63.564 "/>
<polyline fill="none" stroke="#FFFFFF" stroke-miterlimit="10" points="46.603,37.181 52.455,43.035 52.455,58.072 63.276,71.893 
	"/>
<path fill="none" stroke="#FFFFFF" stroke-miterlimit="10" d="M87.347,27.006c0.074-1.83-0.165-2.941-2.837-2.836
	c-2.671,0.106-36.171,7.969-36.171,7.969s7.987,7.023,29.418,2.882C84.104,33.793,87.271,28.837,87.347,27.006z"/>
<polyline fill="none" stroke="#FFFFFF" stroke-miterlimit="10" points="41.436,27.456 33.691,19.713 33.691,11.068 22.978,0.353 "/>
<polyline fill="none" stroke="#FFFFFF" stroke-miterlimit="10" points="40.355,33.939 29.19,43.104 29.19,54.11 19.735,63.564 "/>
<polyline fill="none" stroke="#FFFFFF" stroke-miterlimit="10" points="41.255,37.181 35.402,43.035 35.402,58.072 24.582,71.893 
	"/>
<path fill="none" stroke="#FFFFFF" stroke-miterlimit="10" d="M0.511,27.006c-0.075-1.83,0.165-2.941,2.836-2.836
	c2.671,0.106,36.171,7.969,36.171,7.969s-7.987,7.023-29.418,2.882C3.753,33.793,0.586,28.837,0.511,27.006z"/>
</svg>
