<?xml version="1.0" encoding="utf-8"?>
<!-- Generator: Adobe Illustrator 15.0.0, SVG Export Plug-In . SVG Version: 6.00 Build 0)  -->
<!DOCTYPE svg PUBLIC "-//W3C//DTD SVG 1.1//EN" "http://www.w3.org/Graphics/SVG/1.1/DTD/svg11.dtd">
<svg version="1.1" id="Layer_1" xmlns="http://www.w3.org/2000/svg" xmlns:xlink="http://www.w3.org/1999/xlink" x="0px" y="0px"
	 width="84.689px" height="45.751px" viewBox="0 0 84.689 45.751" enable-background="new 0 0 84.689 45.751" xml:space="preserve">
<circle fill="none" stroke="#FFFFFF" stroke-miterlimit="10" cx="79.149" cy="27.037" r="1.315"/>
<path fill="none" stroke="#FFFFFF" stroke-miterlimit="10" d="M72.731,23.437c-0.83-0.833-0.83-2.181,0-3.014
	c0.833-0.831,2.183-0.831,3.015,0"/>
<path fill="none" stroke="#FFFFFF" stroke-miterlimit="10" d="M43.577,37.08l-3.095,4.542c2.003,0,3.628,1.625,3.628,3.63h-7.259"/>
<polyline fill="none" stroke="#FFFFFF" stroke-miterlimit="10" points="59.998,45.251 54.931,45.251 53.21,36.487 "/>
<path fill="none" stroke="#FFFFFF" stroke-miterlimit="10" d="M29.183,36.487l2.191,8.765h8.354c0-2.004-1.625-3.629-3.629-3.629
	l3.43-4.817h17.47"/>
<path fill="none" stroke="#FFFFFF" stroke-miterlimit="10" d="M56.573,36.487l2.191,8.765h7.259c0-2.004-1.626-3.629-3.63-3.629
	c0,0,0.129-8.475,5.744-8.475c3.698,0,5.067,1.969,7.519,3.287c2.451,1.319,7.777-1.095,7.777-1.095
	c2.965-8.989-3.76-17.206-3.76-17.206l-1.339-8.95"/>
<line fill="none" stroke="#FFFFFF" stroke-miterlimit="10" x1="75.172" y1="16.947" x2="67.503" y2="4.264"/>
<line fill="none" stroke="#FFFFFF" stroke-miterlimit="10" x1="69.324" y1="20.782" x2="61.792" y2="15.441"/>
<line fill="none" stroke="#FFFFFF" stroke-miterlimit="10" x1="68.204" y1="24.096" x2="58.641" y2="19.823"/>
<line fill="none" stroke="#FFFFFF" stroke-miterlimit="10" x1="63.527" y1="26.083" x2="48.139" y2="27.543"/>
<line fill="none" stroke="#FFFFFF" stroke-miterlimit="10" x1="60.581" y1="29.74" x2="47.663" y2="34.285"/>
<line fill="none" stroke="#FFFFFF" stroke-miterlimit="10" x1="72.2" y1="18.399" x2="65.626" y2="9.415"/>
<line fill="none" stroke="#FFFFFF" stroke-miterlimit="10" x1="66.859" y1="15.988" x2="60.148" y2="5.854"/>
<line fill="none" stroke="#FFFFFF" stroke-miterlimit="10" x1="62.108" y1="13.155" x2="50.973" y2="3.252"/>
<line fill="none" stroke="#FFFFFF" stroke-miterlimit="10" x1="58.915" y1="13.797" x2="47.134" y2="9.066"/>
<line fill="none" stroke="#FFFFFF" stroke-miterlimit="10" x1="51.986" y1="21.502" x2="40.153" y2="14.071"/>
<line fill="none" stroke="#FFFFFF" stroke-miterlimit="10" x1="39.605" y1="23.658" x2="21.116" y2="22.699"/>
<line fill="none" stroke="#FFFFFF" stroke-miterlimit="10" x1="52.864" y1="29.282" x2="37.576" y2="32.552"/>
<line fill="none" stroke="#FFFFFF" stroke-miterlimit="10" x1="53.301" y1="9.278" x2="41.933" y2="1.197"/>
<line fill="none" stroke="#FFFFFF" stroke-miterlimit="10" x1="46.407" y1="15.075" x2="31.357" y2="4.029"/>
<line fill="none" stroke="#FFFFFF" stroke-miterlimit="10" x1="35.359" y1="17.632" x2="22.282" y2="13.876"/>
<line fill="none" stroke="#FFFFFF" stroke-miterlimit="10" x1="43.166" y1="26.397" x2="29.334" y2="27.31"/>
<line fill="none" stroke="#FFFFFF" stroke-miterlimit="10" x1="44.124" y1="33.519" x2="25.773" y2="36.897"/>
<line fill="none" stroke="#FFFFFF" stroke-miterlimit="10" x1="32.696" y1="14.388" x2="23.104" y2="7.24"/>
<line fill="none" stroke="#FFFFFF" stroke-miterlimit="10" x1="31.133" y1="20.246" x2="18.059" y2="17.134"/>
<line fill="none" stroke="#FFFFFF" stroke-miterlimit="10" x1="28.421" y1="33.245" x2="17.966" y2="37.765"/>
<line fill="none" stroke="#FFFFFF" stroke-miterlimit="10" x1="61.29" y1="18.271" x2="48.324" y2="13.34"/>
<line fill="none" stroke="#FFFFFF" stroke-miterlimit="10" x1="60.377" y1="23.84" x2="49.877" y2="16.718"/>
<line fill="none" stroke="#FFFFFF" stroke-miterlimit="10" x1="56.452" y1="24.023" x2="42.3" y2="23.932"/>
<line fill="none" stroke="#FFFFFF" stroke-miterlimit="10" x1="16.552" y1="27.95" x2="28.513" y2="25.21"/>
<line fill="none" stroke="#FFFFFF" stroke-miterlimit="10" x1="41.796" y1="28.862" x2="31.113" y2="32.423"/>
<line fill="none" stroke="#FFFFFF" stroke-miterlimit="10" x1="30.566" y1="29.546" x2="19.199" y2="31.328"/>
<line fill="none" stroke="#FFFFFF" stroke-miterlimit="10" x1="34.812" y1="19.823" x2="46.315" y2="21.055"/>
<line fill="none" stroke="#FFFFFF" stroke-miterlimit="10" x1="31.798" y1="8.182" x2="39.605" y2="18.043"/>
<line fill="none" stroke="#FFFFFF" stroke-miterlimit="10" x1="35.633" y1="1.061" x2="44.946" y2="10.236"/>
<line fill="none" stroke="#FFFFFF" stroke-miterlimit="10" x1="64.942" y1="7.908" x2="61.655" y2="0.649"/>
<line fill="none" stroke="#FFFFFF" stroke-miterlimit="10" x1="58.003" y1="6.539" x2="54.579" y2="0.239"/>
<line fill="none" stroke="#FFFFFF" stroke-miterlimit="10" x1="20.157" y1="33.656" x2="11.986" y2="38.997"/>
<line fill="none" stroke="#FFFFFF" stroke-miterlimit="10" x1="11.529" y1="36.257" x2="1.12" y2="36.257"/>
<line fill="none" stroke="#FFFFFF" stroke-miterlimit="10" x1="10.981" y1="38.723" x2="0.024" y2="39.271"/>
<line fill="none" stroke="#FFFFFF" stroke-miterlimit="10" x1="11.94" y1="40.778" x2="5.229" y2="42.695"/>
<line fill="none" stroke="#FFFFFF" stroke-miterlimit="10" x1="23.718" y1="37.627" x2="17.418" y2="42.148"/>
<line fill="none" stroke="#FFFFFF" stroke-miterlimit="10" x1="16.871" y1="38.586" x2="12.625" y2="43.243"/>
<line fill="none" stroke="#FFFFFF" stroke-miterlimit="10" x1="16.323" y1="32.971" x2="9.475" y2="33.382"/>
<line fill="none" stroke="#FFFFFF" stroke-miterlimit="10" x1="76.439" y1="13.508" x2="72.772" y2="4.341"/>
</svg>
