<?xml version="1.0" encoding="utf-8"?>
<!-- Generator: Adobe Illustrator 15.0.0, SVG Export Plug-In . SVG Version: 6.00 Build 0)  -->
<!DOCTYPE svg PUBLIC "-//W3C//DTD SVG 1.1//EN" "http://www.w3.org/Graphics/SVG/1.1/DTD/svg11.dtd">
<svg version="1.1" id="Layer_1" xmlns="http://www.w3.org/2000/svg" xmlns:xlink="http://www.w3.org/1999/xlink" x="0px" y="0px"
	 width="78.881px" height="82.609px" viewBox="0 0 78.881 82.609" enable-background="new 0 0 78.881 82.609" xml:space="preserve">
<path fill="none" stroke="#FFFFFF" stroke-miterlimit="10" d="M26.197,33.196c0,8.706-5.649,15.764-12.616,15.764
	c-6.967,0-12.616-7.058-12.616-15.764c0-8.707,1.006-17.765,12.616-17.765C25.19,15.431,26.197,24.489,26.197,33.196z"/>
<path fill="none" stroke="#FFFFFF" stroke-miterlimit="10" d="M19.356,47.108l6.646,2.329c0,0,8.468-8.206,19.019,1.304"/>
<path fill="none" stroke="#FFFFFF" stroke-miterlimit="10" d="M63.65,55.691c0,0-3.388-7.817-11.855-7.817
	c-8.467,0-11.724,10.943-11.724,10.943"/>
<path fill="none" stroke="#FFFFFF" stroke-miterlimit="10" d="M72.861,65.235c-1.545,1.217-5.323,0.646-5.323,0.646
	s-4.931,5.628-13.658,5.628s-13.157-3.703-13.157-3.703s-1.033,9.804-3.783,14.554"/>
<path fill="none" stroke="#FFFFFF" stroke-miterlimit="10" d="M64.841,38.051c1.45-4.031-0.54-4.637-0.54-4.637
	c-1.562,3.127-7.295,1.695-7.295,1.695s0,1.953-2.345,1.823c-5.217-0.29-4.168-8.728-1.303-11.334
	c2.866-2.605,13.548-0.912,15.763,1.173c2.058,1.936,8.404,20.441,5.295,30.038"/>
<path fill="none" stroke="#FFFFFF" stroke-miterlimit="10" d="M60.263,51.392c0,0-0.85-2.443,1.958-8.098"/>
<path fill="none" stroke="#FFFFFF" stroke-miterlimit="10" d="M45.021,61.683c0,0,6.515,3.648,15.502-1.953"/>
<line fill="none" stroke="#FFFFFF" stroke-miterlimit="10" x1="13.581" y1="55.446" x2="13.581" y2="61.927"/>
<rect x="37.432" y="4.952" transform="matrix(0.8959 -0.4443 0.4443 0.8959 0.7071 22.4176)" fill="none" stroke="#FFFFFF" stroke-miterlimit="10" width="21.505" height="9.497"/>
<polyline fill="none" stroke="#FFFFFF" stroke-miterlimit="10" points="53.363,25.771 48.109,15.176 52.59,12.957 58.184,24.237 "/>
<polyline fill="none" stroke="#FFFFFF" stroke-miterlimit="10" points="63.251,34.455 78.211,64.621 73.73,66.843 58.032,35.188 "/>
<path fill="none" stroke="#FFFFFF" stroke-miterlimit="10" d="M25.815,49.733c0,6.926-5.357,19.915-12.458,19.915
	S0.5,56.034,0.5,49.108l7.023-2.083"/>
<path fill="none" stroke="#FFFFFF" stroke-miterlimit="10" d="M13.092,36.618c0,1.512-1.479,2.738-3.304,2.738
	c-1.825,0-3.303-1.226-3.303-2.738c0,0,1.952,1.245,3.378,1.245S13.092,36.618,13.092,36.618z"/>
<path fill="none" stroke="#FFFFFF" stroke-miterlimit="10" d="M20.676,36.618c0,1.512-1.479,2.738-3.304,2.738
	c-1.824,0-3.303-1.226-3.303-2.738c0,0,1.952,1.245,3.378,1.245C18.875,37.863,20.676,36.618,20.676,36.618z"/>
<path fill="none" stroke="#FFFFFF" stroke-miterlimit="10" d="M26.065,49.358c0,0,4.875,22.75,13.875,22.75"/>
</svg>
