<?xml version="1.0" encoding="utf-8"?>
<!-- Generator: Adobe Illustrator 15.0.0, SVG Export Plug-In . SVG Version: 6.00 Build 0)  -->
<!DOCTYPE svg PUBLIC "-//W3C//DTD SVG 1.1//EN" "http://www.w3.org/Graphics/SVG/1.1/DTD/svg11.dtd">
<svg version="1.1" id="Layer_1" xmlns="http://www.w3.org/2000/svg" xmlns:xlink="http://www.w3.org/1999/xlink" x="0px" y="0px"
	 width="39.826px" height="81.599px" viewBox="0 0 39.826 81.599" enable-background="new 0 0 39.826 81.599" xml:space="preserve">
<rect x="18.495" y="0.5" fill="none" stroke="#FFFFFF" stroke-miterlimit="10" width="1.509" height="8.021"/>
<path fill="none" stroke="#FFFFFF" stroke-miterlimit="10" d="M17.509,29.562c-0.246-2.465-5.496-2.801-5.496-2.801
	c-2.685,0-4.86-2.176-4.86-4.861v-9.327c0-2.685,2.175-4.862,4.86-4.862h6.821"/>
<path fill="none" stroke="#FFFFFF" stroke-miterlimit="10" d="M18.834,2.938H7.895C3.811,2.938,0.5,6.25,0.5,10.334v13.065
	c0,2.506,0.912,5.424,3.153,6.059c6.461,1.83,7.57,16.745,7.324,21.798c-0.247,5.054-5.054,18.98-2.712,23.911
	c0,0,1.972-10.724,5.793-17.379c0.616-1.074,1.295-2.722,1.712-4.419"/>
<line fill="none" stroke="#FFFFFF" stroke-miterlimit="10" x1="12.949" y1="60.008" x2="12.949" y2="76.277"/>
<rect x="20.067" y="0.5" fill="none" stroke="#FFFFFF" stroke-miterlimit="10" width="1.509" height="8.021"/>
<path fill="none" stroke="#FFFFFF" stroke-miterlimit="10" d="M21.607,7.711h7.685c2.685,0,4.86,2.177,4.86,4.862V21.9
	c0,1.306-0.515,2.491-1.353,3.365c0,0-16.522,2.448-17.385,6.639c-0.863,4.191,1.479,43.387,1.479,43.387h6.039l1.232-38.456
	l12.188-7.508c1.805-1.349,2.974-3.502,2.974-5.928V10.334c0-4.085-3.311-7.396-7.396-7.396H21.607"/>
<rect x="18.496" y="75.306" fill="none" stroke="#FFFFFF" stroke-miterlimit="10" width="2.712" height="2.928"/>
<rect x="17.139" y="78.237" fill="none" stroke="#FFFFFF" stroke-miterlimit="10" width="5.177" height="2.861"/>
<circle fill="none" stroke="#FFFFFF" stroke-miterlimit="10" cx="19.851" cy="36.218" r="1.726"/>
<circle fill="none" stroke="#FFFFFF" stroke-miterlimit="10" cx="10.114" cy="30.918" r="1.422"/>
<circle fill="none" stroke="#FFFFFF" stroke-miterlimit="10" cx="12.641" cy="38.868" r="0.98"/>
</svg>
