<?xml version="1.0" encoding="utf-8"?>
<!-- Generator: Adobe Illustrator 15.0.0, SVG Export Plug-In . SVG Version: 6.00 Build 0)  -->
<!DOCTYPE svg PUBLIC "-//W3C//DTD SVG 1.1//EN" "http://www.w3.org/Graphics/SVG/1.1/DTD/svg11.dtd">
<svg version="1.1" id="Layer_1" xmlns="http://www.w3.org/2000/svg" xmlns:xlink="http://www.w3.org/1999/xlink" x="0px" y="0px"
	 width="51.168px" height="92.167px" viewBox="0 0 51.168 92.167" enable-background="new 0 0 51.168 92.167" xml:space="preserve">
<path fill="none" stroke="#FFFFFF" stroke-miterlimit="10" d="M36.028,49.207c-1.004-8.162-8.362-13.453-15.083-12.034l3.585,38.951
	C24.53,76.124,37.655,62.449,36.028,49.207z"/>
<path fill="none" stroke="#FFFFFF" stroke-miterlimit="10" d="M29.519,72.12c8.579-1.812,16.673-12.401,14.458-22.889
	c-2.834-13.417-20.098-12.491-11.76-21.407"/>
<path fill="none" stroke="#FFFFFF" stroke-miterlimit="10" d="M33.673,20.836c-1.374-3.263-4.602-5.554-8.365-5.554H0"/>
<line fill="none" stroke="#FFFFFF" stroke-miterlimit="10" x1="1.527" y1="18.147" x2="15.089" y2="18.147"/>
<line fill="none" stroke="#FFFFFF" stroke-miterlimit="10" x1="2.674" y1="20.503" x2="15.089" y2="20.503"/>
<line fill="none" stroke="#FFFFFF" stroke-miterlimit="10" x1="4.966" y1="22.859" x2="15.089" y2="22.859"/>
<line fill="none" stroke="#FFFFFF" stroke-miterlimit="10" x1="6.685" y1="25.214" x2="28.459" y2="25.214"/>
<circle fill="none" stroke="#FFFFFF" stroke-miterlimit="10" cx="25.117" cy="21.108" r="1.241"/>
<polygon fill="none" stroke="#FFFFFF" stroke-miterlimit="10" points="28.459,25.405 33.808,20.439 48.829,24.833 31.707,27.888 "/>
<polyline fill="none" stroke="#FFFFFF" stroke-miterlimit="10" points="39.875,65.208 43.375,68.583 50.5,56.5 "/>
<polyline fill="none" stroke="#FFFFFF" stroke-miterlimit="10" points="28.973,70.344 37.784,89.675 32.279,90.838 31.913,90.916 
	28.833,70.772 "/>
<line fill="none" stroke="#FFFFFF" stroke-miterlimit="10" x1="14.708" y1="25.5" x2="20.945" y2="37"/>
<line fill="none" stroke="#FFFFFF" stroke-miterlimit="10" x1="50.668" y1="92.167" x2="50.668" y2="0"/>
<path fill="none" stroke="#FFFFFF" stroke-miterlimit="10" d="M50.583,56.872c-1.172,0-2.12-0.95-2.12-2.121s0.948-2.121,2.12-2.121
	"/>
</svg>
