<?xml version="1.0" encoding="utf-8"?>
<!-- Generator: Adobe Illustrator 15.0.0, SVG Export Plug-In . SVG Version: 6.00 Build 0)  -->
<!DOCTYPE svg PUBLIC "-//W3C//DTD SVG 1.1//EN" "http://www.w3.org/Graphics/SVG/1.1/DTD/svg11.dtd">
<svg version="1.1" id="Layer_1" xmlns="http://www.w3.org/2000/svg" xmlns:xlink="http://www.w3.org/1999/xlink" x="0px" y="0px"
	 width="79.96px" height="79.96px" viewBox="0 0 79.96 79.96" enable-background="new 0 0 79.96 79.96" xml:space="preserve">
<g>
	<circle fill="none" stroke="#FFFFFF" stroke-width="2" stroke-miterlimit="10" cx="39.981" cy="39.979" r="38.98"/>
	<path fill="none" stroke="#FFFFFF" stroke-width="2" stroke-linecap="round" stroke-miterlimit="10" d="M19.778,38.363
		c0,0-7.64,5.107-7.64,0C12.14,33.257,19.778,38.363,19.778,38.363z"/>
	<path fill="none" stroke="#FFFFFF" stroke-width="2" stroke-linecap="round" stroke-miterlimit="10" d="M14.284,31.04
		c0,0-7.64,5.107-7.64,0C6.646,25.934,14.284,31.04,14.284,31.04z"/>
	<path fill="none" stroke="#FFFFFF" stroke-width="2" stroke-miterlimit="10" d="M75.71,55.898c0,0-12.574-2.764-20.74-10.832
		c-7.521-8.432-14.99-15.932-20.434-14.924c-5.463,1.089-5.494,4.732-6.166,9.732c-0.525,5.627-0.933,15.499-9.183,13.102"/>
	<path fill="none" stroke="#FFFFFF" stroke-width="2" stroke-miterlimit="10" d="M42.863,57.689c0,0-2.111,8.211-7.167,8.516
		c-7.396,0.01-7.687-7.146-4.259-12.166c3.707-6.69,3.027-9.731,1.011-9.58c-2.017,0.152-2.419,5.232-0.252,8.137"/>
	<path fill="#FFFFFF" d="M32.548,45.066c-0.604,0-1.09,1.545-1.09,3.451c0,1.904,0.486,3.449,1.09,3.449
		c0.602,0,1.09-1.545,1.09-3.449C33.638,46.611,33.148,45.066,32.548,45.066"/>
</g>
</svg>
