<?xml version="1.0" encoding="utf-8"?>
<!-- Generator: Adobe Illustrator 15.0.0, SVG Export Plug-In . SVG Version: 6.00 Build 0)  -->
<!DOCTYPE svg PUBLIC "-//W3C//DTD SVG 1.1//EN" "http://www.w3.org/Graphics/SVG/1.1/DTD/svg11.dtd">
<svg version="1.1" id="Layer_1" xmlns="http://www.w3.org/2000/svg" xmlns:xlink="http://www.w3.org/1999/xlink" x="0px" y="0px"
	 width="79.96px" height="79.96px" viewBox="0 0 79.96 79.96" enable-background="new 0 0 79.96 79.96" xml:space="preserve">
<g>
	<circle fill="none" stroke="#FFFFFF" stroke-width="2" stroke-miterlimit="10" cx="39.981" cy="39.979" r="38.98"/>
	<path fill="none" stroke="#FFFFFF" stroke-width="2" stroke-linecap="round" stroke-miterlimit="10" d="M38.365,60.181
		c0,0,5.107,7.64,0,7.64C33.259,67.82,38.365,60.181,38.365,60.181z"/>
	<path fill="none" stroke="#FFFFFF" stroke-width="2" stroke-linecap="round" stroke-miterlimit="10" d="M31.042,65.675
		c0,0,5.107,7.64,0,7.64C25.936,73.314,31.042,65.675,31.042,65.675z"/>
	<path fill="none" stroke="#FFFFFF" stroke-width="2" stroke-miterlimit="10" d="M55.9,4.249c0,0-2.764,12.574-10.832,20.74
		c-8.432,7.521-15.932,14.99-14.924,20.435c1.089,5.462,4.732,5.494,9.732,6.166c5.627,0.524,15.498,0.932,13.102,9.182"/>
	<path fill="none" stroke="#FFFFFF" stroke-width="2" stroke-miterlimit="10" d="M57.691,37.097c0,0,8.211,2.111,8.516,7.167
		c0.009,7.395-7.146,7.687-12.166,4.259c-6.691-3.707-9.732-3.028-9.58-1.011s5.232,2.419,8.136,0.252"/>
	<path fill="#FFFFFF" d="M45.068,47.412c0,0.603,1.545,1.09,3.451,1.09c1.905,0,3.45-0.487,3.45-1.09c0-0.602-1.545-1.09-3.45-1.09
		C46.613,46.322,45.068,46.811,45.068,47.412"/>
</g>
</svg>
