<?xml version="1.0" encoding="utf-8"?>
<!-- Generator: Adobe Illustrator 15.0.0, SVG Export Plug-In . SVG Version: 6.00 Build 0)  -->
<!DOCTYPE svg PUBLIC "-//W3C//DTD SVG 1.1//EN" "http://www.w3.org/Graphics/SVG/1.1/DTD/svg11.dtd">
<svg version="1.1" id="Layer_1" xmlns="http://www.w3.org/2000/svg" xmlns:xlink="http://www.w3.org/1999/xlink" x="0px" y="0px"
	 width="66.57px" height="70.997px" viewBox="0 0 66.57 70.997" enable-background="new 0 0 66.57 70.997" xml:space="preserve">
<path fill="none" stroke="#FFFFFF" stroke-miterlimit="10" d="M52.41,48.531c0,12.132-8.302,21.966-18.541,21.966
	s-18.541-9.834-18.541-21.966"/>
<circle fill="none" stroke="#FFFFFF" stroke-miterlimit="10" cx="25.619" cy="47.781" r="2.5"/>
<circle fill="none" stroke="#FFFFFF" stroke-miterlimit="10" cx="42.119" cy="47.781" r="2.5"/>
<path fill="none" stroke="#FFFFFF" stroke-miterlimit="10" d="M12.953,40.616c0,0,24.5,2.334,32.667-11.833"/>
<path fill="none" stroke="#FFFFFF" stroke-miterlimit="10" d="M42.452,32.616c0,0,2,7.001,12.5,9.167"/>
<path fill="none" stroke="#FFFFFF" stroke-miterlimit="10" d="M11.786,22.783c0,0-11.148,4.565-5.167,26.166
	c3,10.834-5.833,13.5-5.833,13.5s4.167,6.333,12.333,1"/>
<path fill="none" stroke="#FFFFFF" stroke-miterlimit="10" d="M54.785,22.783c0,0,11.148,4.565,5.167,26.166
	c-3,10.834,5.833,13.5,5.833,13.5s-4.167,6.333-12.333,1"/>
<path fill="none" stroke="#FFFFFF" stroke-miterlimit="10" d="M52.546,31.262c0,0-8.585-4.79-19.177-4.79
	c-10.591,0-19.177,4.79-19.177,4.79l-4.28-19.601c0,0,10.502-11.161,23.457-11.161c12.956,0,23.458,11.161,23.458,11.161
	L52.546,31.262z"/>
<polygon fill="none" stroke="#FFFFFF" stroke-miterlimit="10" points="40.619,11.448 35.286,11.448 35.286,6.115 31.452,6.115 
	31.452,11.448 26.119,11.448 26.119,15.281 31.452,15.281 31.452,20.615 35.286,20.615 35.286,15.281 40.619,15.281 "/>
</svg>
