<?xml version="1.0" encoding="utf-8"?>
<!-- Generator: Adobe Illustrator 15.0.0, SVG Export Plug-In . SVG Version: 6.00 Build 0)  -->
<!DOCTYPE svg PUBLIC "-//W3C//DTD SVG 1.1//EN" "http://www.w3.org/Graphics/SVG/1.1/DTD/svg11.dtd">
<svg version="1.1" id="Layer_1" xmlns="http://www.w3.org/2000/svg" xmlns:xlink="http://www.w3.org/1999/xlink" x="0px" y="0px"
	 width="26.255px" height="26.255px" viewBox="0 0 26.255 26.255" enable-background="new 0 0 26.255 26.255" xml:space="preserve">
<path fill="#FFFFFF" d="M9.202,7.405c0-0.132,0.122-0.248,0.26-0.248h0.52c0.138,0,0.26,0.116,0.26,0.248v2.239
	c0,0.132-0.122,0.249-0.26,0.249h-0.52c-0.138,0-0.26-0.117-0.26-0.249V7.405z M15.44,7.405c0-0.132,0.122-0.248,0.26-0.248h0.521
	c0.138,0,0.26,0.116,0.26,0.248v2.239c0,0.132-0.122,0.249-0.26,0.249H15.7c-0.138,0-0.26-0.117-0.26-0.249V7.405z M18.561,13.785
	v0.089v2.487v0.498v2.239h-2.34H15.7h-2.599h-0.093l-0.057,0.055l-0.057-0.055h-0.313h-2.6h-0.52h-2.34v-2.239v-0.498v-2.487v-0.498
	v-2.239h2.34h0.52h2.6h0.52H15.7h0.521h0.92l2.402-2.299c-0.139-0.395-0.526-0.686-0.982-0.686h-1.04V7.405
	c0-0.684-0.585-1.244-1.3-1.244H15.7c-0.715,0-1.3,0.56-1.3,1.244v0.747h-3.119V7.405c0-0.684-0.585-1.244-1.3-1.244h-0.52
	c-0.715,0-1.3,0.56-1.3,1.244v0.747h-1.04c-0.568,0-1.039,0.451-1.039,0.995v9.952c0,0.544,0.471,0.994,1.039,0.994h11.439
	c0.569,0,1.04-0.45,1.04-0.994V12.79L18.561,13.785z"/>
<polygon fill="#FFFFFF" points="12.952,18.151 9.336,14.69 10.382,13.689 12.952,16.148 20.5,8.925 21.547,9.926 "/>
<polygon fill="#FFFFFF" points="20.5,8.925 21.547,9.927 12.952,18.15 9.336,14.69 10.382,13.688 12.952,16.147 "/>
<circle fill="none" stroke="#FFFFFF" stroke-width="2" cx="13.127" cy="13.127" r="12.127"/>
</svg>
