<?xml version="1.0" encoding="utf-8"?>
<!-- Generator: Adobe Illustrator 15.0.0, SVG Export Plug-In . SVG Version: 6.00 Build 0)  -->
<!DOCTYPE svg PUBLIC "-//W3C//DTD SVG 1.1//EN" "http://www.w3.org/Graphics/SVG/1.1/DTD/svg11.dtd">
<svg version="1.1" id="Layer_1" xmlns="http://www.w3.org/2000/svg" xmlns:xlink="http://www.w3.org/1999/xlink" x="0px" y="0px"
	 width="712.651px" height="411.284px" viewBox="0 0 712.651 411.284" enable-background="new 0 0 712.651 411.284"
	 xml:space="preserve">
<circle fill="none" stroke="#FFFFFF" stroke-width="4" stroke-miterlimit="10" cx="519.132" cy="124.246" r="101.609"/>
<line fill="none" stroke="#FFFFFF" stroke-width="4" stroke-miterlimit="10" x1="519.151" y1="225.874" x2="519.151" y2="211.775"/>
<line fill="none" stroke="#FFFFFF" stroke-width="4" stroke-miterlimit="10" x1="569.965" y1="212.259" x2="563.158" y2="200.469"/>
<line fill="none" stroke="#FFFFFF" stroke-width="4" stroke-miterlimit="10" x1="607.163" y1="175.06" x2="594.967" y2="168.018"/>
<line fill="none" stroke="#FFFFFF" stroke-width="4" stroke-miterlimit="10" x1="620.779" y1="124.246" x2="606.681" y2="124.246"/>
<line fill="none" stroke="#FFFFFF" stroke-width="4" stroke-miterlimit="10" x1="607.163" y1="73.433" x2="595.371" y2="80.24"/>
<line fill="none" stroke="#FFFFFF" stroke-width="4" stroke-miterlimit="10" x1="569.965" y1="36.234" x2="562.922" y2="48.433"/>
<line fill="none" stroke="#FFFFFF" stroke-width="4" stroke-miterlimit="10" x1="519.151" y1="22.619" x2="519.151" y2="36.717"/>
<line fill="none" stroke="#FFFFFF" stroke-width="4" stroke-miterlimit="10" x1="468.337" y1="36.234" x2="475.379" y2="48.431"/>
<line fill="none" stroke="#FFFFFF" stroke-width="4" stroke-miterlimit="10" x1="431.139" y1="73.433" x2="442.929" y2="80.239"/>
<line fill="none" stroke="#FFFFFF" stroke-width="4" stroke-miterlimit="10" x1="417.523" y1="124.246" x2="431.622" y2="124.246"/>
<line fill="none" stroke="#FFFFFF" stroke-width="4" stroke-miterlimit="10" x1="431.139" y1="175.06" x2="443.339" y2="168.016"/>
<line fill="none" stroke="#FFFFFF" stroke-width="4" stroke-miterlimit="10" x1="468.337" y1="212.259" x2="475.381" y2="200.058"/>
<path fill="none" stroke="#FFFFFF" stroke-width="4" stroke-miterlimit="10" d="M410.323,250.288v27.669c0,6.6-5.4,12-12,12H14
	c-6.6,0-12-5.4-12-12v-27.669c0-6.601,5.4-12,12-12h384.323C404.923,238.288,410.323,243.688,410.323,250.288z"/>
<line fill="none" stroke="#FFFFFF" stroke-width="4" stroke-miterlimit="10" x1="303.777" y1="264.122" x2="303.777" y2="238.287"/>
<line fill="none" stroke="#FFFFFF" stroke-width="4" stroke-miterlimit="10" x1="206.162" y1="264.122" x2="206.162" y2="238.287"/>
<line fill="none" stroke="#FFFFFF" stroke-width="4" stroke-miterlimit="10" x1="108.546" y1="264.122" x2="108.546" y2="238.287"/>
<line fill="none" stroke="#FFFFFF" stroke-width="4" stroke-miterlimit="10" x1="59.162" y1="251.205" x2="59.162" y2="238.288"/>
<line fill="none" stroke="#FFFFFF" stroke-width="4" stroke-miterlimit="10" x1="157.162" y1="251.205" x2="157.162" y2="238.288"/>
<line fill="none" stroke="#FFFFFF" stroke-width="4" stroke-miterlimit="10" x1="255.162" y1="251.205" x2="255.162" y2="238.288"/>
<line fill="none" stroke="#FFFFFF" stroke-width="4" stroke-miterlimit="10" x1="353.162" y1="251.205" x2="353.162" y2="238.288"/>
<line fill="none" stroke="#FFFFFF" stroke-width="4" stroke-miterlimit="10" x1="519.132" y1="124.246" x2="485.527" y2="68.25"/>
<path fill="none" stroke="#FFFFFF" stroke-width="4" stroke-miterlimit="10" d="M327.651,225.874V76.621
	c0-9.732,7.889-17.621,17.621-17.621h69.712c0,0,31.521-57,104.167-57c72.645,0,104.167,57,104.167,57h69.712
	c9.731,0,17.621,7.889,17.621,17.621v315.042c0,9.732-7.89,17.621-17.621,17.621H345.272c-9.732,0-17.621-7.889-17.621-17.621
	v-88.791"/>
</svg>
