<?xml version="1.0" encoding="utf-8"?>
<!-- Generator: Adobe Illustrator 15.0.0, SVG Export Plug-In . SVG Version: 6.00 Build 0)  -->
<!DOCTYPE svg PUBLIC "-//W3C//DTD SVG 1.1//EN" "http://www.w3.org/Graphics/SVG/1.1/DTD/svg11.dtd">
<svg version="1.1" id="Layer_1" xmlns="http://www.w3.org/2000/svg" xmlns:xlink="http://www.w3.org/1999/xlink" x="0px" y="0px"
	 width="626.875px" height="543.3px" viewBox="0 0 626.875 543.3" enable-background="new 0 0 626.875 543.3" xml:space="preserve">
<path fill="none" stroke="#FFFFFF" stroke-width="7" stroke-miterlimit="10" d="M3.5,169.491l184.719-67.779l183.253,67.779
	c0,0-6.403,296.033-183.986,332.828C3.5,460.687,3.5,169.491,3.5,169.491z"/>
<polygon fill="none" stroke="#FFFFFF" stroke-width="7" stroke-miterlimit="10" points="276.869,277.167 206.245,277.167 
	206.245,206.543 168.726,206.543 168.726,277.167 98.103,277.167 98.103,314.687 168.726,314.687 168.726,385.311 206.245,385.311 
	206.245,314.687 276.869,314.687 "/>
<line fill="none" stroke="#FFFFFF" stroke-width="7" stroke-miterlimit="10" x1="303.361" y1="96.194" x2="563.786" y2="96.194"/>
<line fill="none" stroke="#FFFFFF" stroke-width="7" stroke-miterlimit="10" x1="371.472" y1="142.541" x2="563.785" y2="142.541"/>
<line fill="none" stroke="#FFFFFF" stroke-width="7" stroke-miterlimit="10" x1="402.676" y1="188.888" x2="563.786" y2="188.888"/>
<line fill="none" stroke="#FFFFFF" stroke-width="7" stroke-miterlimit="10" x1="403.779" y1="235.234" x2="563.786" y2="235.234"/>
<line fill="none" stroke="#FFFFFF" stroke-width="7" stroke-miterlimit="10" x1="397.158" y1="281.581" x2="563.786" y2="281.581"/>
<line fill="none" stroke="#FFFFFF" stroke-width="7" stroke-miterlimit="10" x1="382.812" y1="327.929" x2="563.786" y2="327.929"/>
<line fill="none" stroke="#FFFFFF" stroke-width="7" stroke-miterlimit="10" x1="368.467" y1="374.275" x2="563.786" y2="374.275"/>
<line fill="none" stroke="#FFFFFF" stroke-width="7" stroke-miterlimit="10" x1="346.397" y1="420.622" x2="563.786" y2="420.622"/>
<path fill="#FFFFFF" d="M511.966,48.933H355.181c-8.446,0-15.317-6.872-15.317-15.319V15.318C339.863,6.872,346.734,0,355.181,0
	h156.785c8.447,0,15.319,6.872,15.319,15.318v18.296C527.285,42.061,520.413,48.933,511.966,48.933 M355.181,7
	c-4.587,0-8.317,3.731-8.317,8.318v18.296c0,4.587,3.73,8.319,8.317,8.319h156.785c4.587,0,8.319-3.732,8.319-8.319V15.318
	c0-4.587-3.732-8.318-8.319-8.318H355.181z"/>
<path fill="#FFFFFF" d="M589.891,20.967h-69.605v7h69.605c16.533,0,29.984,13.451,29.984,29.984v448.331
	c0,16.553-13.466,30.019-30.02,30.019H279.502c-16.555,0-30.023-13.469-30.023-30.023V495.66h-7v10.616
	c0,20.415,16.608,37.023,37.023,37.023h310.354c20.412,0,37.02-16.606,37.02-37.019V57.951
	C626.875,37.558,610.284,20.967,589.891,20.967"/>
<path fill="#FFFFFF" d="M249.479,57.817c0-16.46,13.391-29.851,29.851-29.851h67.533v-7H279.33
	c-20.32,0-36.851,16.532-36.851,36.851v49.411h7V57.817z"/>
</svg>
