<?xml version="1.0" encoding="utf-8"?>
<!-- Generator: Adobe Illustrator 15.0.0, SVG Export Plug-In . SVG Version: 6.00 Build 0)  -->
<!DOCTYPE svg PUBLIC "-//W3C//DTD SVG 1.1//EN" "http://www.w3.org/Graphics/SVG/1.1/DTD/svg11.dtd">
<svg version="1.1" id="Layer_1" xmlns="http://www.w3.org/2000/svg" xmlns:xlink="http://www.w3.org/1999/xlink" x="0px" y="0px"
	 width="230.29px" height="237.946px" viewBox="0 0 230.29 237.946" enable-background="new 0 0 230.29 237.946"
	 xml:space="preserve">
<path fill="#FFFFFF" d="M217.345,142.745c0,5.594-4.547,10.145-10.144,10.145h-9.341h-54.445h-4.077
	c-5.593,0-10.144-4.551-10.144-10.145v-5.714c0-0.687,0.069-1.353,0.199-1.999c0.434-1.062,0.837-2.106,1.208-3.127
	c1.766-2.999,5.018-5.018,8.736-5.018h67.863c5.597,0,10.144,4.547,10.144,10.144V142.745z M208.005,175.51
	c0,5.593-4.552,10.145-10.145,10.145h-7.562h-35.813h-11.069c-5.597,0-10.145-4.552-10.145-10.145v-5.713
	c0-5.594,4.548-10.146,10.145-10.146h54.445c5.593,0,10.145,4.552,10.145,10.146V175.51z M200.442,208.276
	c0,5.592-4.553,10.145-10.145,10.145h-26.735c-3.439,0-7.014-0.046-10.661-0.138c-4.844-0.762-8.566-4.951-8.566-10.007v-5.714
	c0-5.593,4.552-10.144,10.149-10.144h35.813c5.592,0,10.145,4.551,10.145,10.144V208.276z M133.271,104.041
	c0-5.593,4.548-10.145,10.145-10.145h54.445c5.593,0,10.145,4.552,10.145,10.145v5.713c0,5.597-4.552,10.145-10.145,10.145h-54.445
	c-3.647,0-6.842-1.941-8.629-4.835v-0.029c0.129-1.191-0.379-2.299-1.249-2.999c-0.171-0.732-0.267-1.495-0.267-2.282V104.041z
	 M210.874,120.536c2.432-2.928,3.895-6.688,3.895-10.782v-5.713c0-9.32-7.584-16.908-16.908-16.908h-48.728
	c6.696-8.795,19.693-26.402,27.103-39.895c7.812-14.225,4.983-28.509-8.396-42.456c-3.864-4.026-7.566-5.526-10.998-4.439
	c-4.044,1.27-6.621,5.822-7.892,13.913c-1.85,11.815-13.371,22.751-18.235,26.907c-2.507,2.136-8.708,6.488-14.705,10.694
	c-7.134,5.005-13.872,9.732-16.612,12.206c-4.905,4.431-10.948,9.736-30.737,25.761c-15.854,12.834-22.775,12.972-23.912,12.888
	l-0.225-0.162l-38.321,0.125l0.021,6.763l37.005-0.121c0.446,0.088,1.037,0.163,1.791,0.163c4.018,0,12.63-2.041,27.897-14.401
	c19.947-16.154,25.848-21.33,31.016-25.994c2.432-2.199,9.308-7.025,15.962-11.69c6.404-4.497,12.46-8.741,15.209-11.089
	c6.759-5.768,18.405-17.462,20.529-31.004c1.216-7.788,3.215-8.504,3.236-8.508c0.333-0.1,1.695,0.179,4.089,2.669
	c7.18,7.488,15.754,19.206,7.352,34.519c-8.722,15.879-26.074,38.479-29.931,43.439c-7.879,1.436-13.871,8.337-13.871,16.62v5.713
	c0,2.274,0.458,4.444,1.274,6.426c-0.442,2.574-1.47,7.542-3.558,13.313c-0.474,0.953-0.861,1.953-1.152,2.994
	c-4.902,11.96-14.326,26.053-32.066,29.685c-1.828,0.374-3.007,2.161-2.632,3.988c0.329,1.604,1.737,2.707,3.311,2.707
	c0.221,0,0.45-0.024,0.679-0.07c12.584-2.578,23.054-9.979,30.687-21.58c1.263,4.577,4.39,8.379,8.521,10.527
	c-3.123,3.069-5.063,7.339-5.063,12.053v5.713c0,8.541,6.371,15.607,14.608,16.732c-2.211,2.861-3.544,6.435-3.544,10.319v5.714
	c0,3.527,1.091,6.805,2.949,9.52c-22.768-1.232-46.45-4.39-60.222-10.437c-0.741-0.333-3.264-2.307-5.492-4.047
	c-8.446-6.604-22.584-17.657-34.286-17.657H24.963l2.24,6.764h13.318c9.37,0,22.871,10.552,30.121,16.224
	c3.673,2.869,5.505,4.281,6.938,4.91c19.814,8.695,55.416,10.906,74.593,11.456c0.758,0.104,1.524,0.175,2.312,0.175h35.813
	c9.324,0,16.907-7.583,16.907-16.907v-5.714c0-4.198-1.545-8.033-4.085-10.994c6.755-2.215,11.648-8.569,11.648-16.058v-5.713
	c0-4.012-1.408-7.696-3.748-10.596c7.486-1.735,13.088-8.448,13.088-16.457v-5.714C224.108,128.969,218.438,122.218,210.874,120.536
	"/>
<path fill="#FFFFFF" d="M187.268,33.111c-0.125,2.732-0.562,5.335-1.216,7.783c16.612,14.397,28.805,33.757,34.277,55.741
	c0.441,1.345,0.758,2.74,0.954,4.177c1.281,6.192,2.036,12.58,2.207,19.11c3.086,2.948,5.363,6.705,6.521,10.861
	c0.179-2.637,0.279-5.298,0.279-7.983C230.29,86.59,213.482,54.237,187.268,33.111"/>
<path fill="#FFFFFF" d="M127.868,230.433c-4.174,0.491-8.416,0.75-12.723,0.75c-29.992,0-57.177-12.248-76.821-32.004h-0.191
	c-6.068-6.146-11.336-12.972-15.738-20.289h0.038c-2.399-3.952-4.548-8.07-6.434-12.335c-0.071-0.162-0.15-0.32-0.221-0.483
	c-0.166-0.383-0.321-0.77-0.483-1.156c-0.408-0.968-0.812-1.938-1.191-2.92c-0.083-0.212-0.162-0.43-0.246-0.646
	c-0.454-1.204-0.895-2.415-1.311-3.636c-0.021-0.059-0.042-0.116-0.063-0.179c-2.307-6.834-3.939-13.905-4.856-21.105
	c-0.025-0.196-0.05-0.391-0.07-0.591c-0.142-1.158-0.263-2.324-0.363-3.49c-0.029-0.329-0.062-0.658-0.087-0.987
	c-0.083-1.062-0.146-2.124-0.2-3.186c-0.017-0.379-0.046-0.758-0.058-1.137c-0.05-1.245-0.075-2.494-0.079-3.743
	c-0.005-0.159-0.009-0.317-0.009-0.476c0-1.286,0.029-2.573,0.075-3.86c0.021-0.512,0.046-1.024,0.075-1.536
	c0.579-11.631,3.048-23.358,7.608-34.756c3.315-8.275,7.542-15.908,12.515-22.85c-0.009-0.009-0.021-0.017-0.03-0.025
	c19.681-27.456,51.86-45.375,88.14-45.375c8.912,0,17.569,1.086,25.861,3.123c0.583-1.433,1.037-2.882,1.261-4.331
	c0.092-0.583,0.217-1.354,0.384-2.228c-8.82-2.17-18.027-3.327-27.506-3.327c-54.237,0-99.833,37.696-111.972,88.264h0.054
	c-1.633,6.746-2.624,13.534-3.015,20.301H0.192c-0.029,0.496-0.042,0.991-0.067,1.491c-0.016,0.425-0.041,0.854-0.054,1.283
	C0.025,120.26,0,121.526,0,122.8c0,0.096,0.004,0.187,0.004,0.283c0,0.575,0.021,1.149,0.034,1.724
	c0.016,1.008,0.033,2.012,0.079,3.011c0.021,0.476,0.054,0.941,0.079,1.412c0.062,1.133,0.133,2.261,0.229,3.386
	c0.029,0.324,0.067,0.646,0.096,0.967c0.121,1.291,0.258,2.577,0.42,3.855c0.025,0.18,0.05,0.358,0.075,0.537
	c0.188,1.434,0.404,2.857,0.646,4.27c0.012,0.062,0.021,0.125,0.033,0.187c1.075,6.222,2.645,12.272,4.677,18.111
	c0.016,0.046,0.033,0.092,0.046,0.137c0.458,1.308,0.941,2.603,1.445,3.89c0.083,0.222,0.162,0.438,0.249,0.658
	c0.371,0.938,0.767,1.861,1.162,2.79c8.221,19.294,21.643,36.372,39.312,48.89l0.063-0.161c18.794,13.342,41.744,21.2,66.497,21.2
	c12.973,0,25.448-2.157,37.093-6.13c-0.204-0.021-0.392-0.034-0.604-0.059C145.088,231.566,136.788,231.183,127.868,230.433"/>
</svg>
