<?xml version="1.0" encoding="utf-8"?>
<!-- Generator: Adobe Illustrator 15.0.0, SVG Export Plug-In . SVG Version: 6.00 Build 0)  -->
<!DOCTYPE svg PUBLIC "-//W3C//DTD SVG 1.1//EN" "http://www.w3.org/Graphics/SVG/1.1/DTD/svg11.dtd">
<svg version="1.1" id="Layer_1" xmlns="http://www.w3.org/2000/svg" xmlns:xlink="http://www.w3.org/1999/xlink" x="0px" y="0px"
	 width="456.169px" height="189.31px" viewBox="0 0 456.169 189.31" enable-background="new 0 0 456.169 189.31"
	 xml:space="preserve">
<path fill="none" stroke="#FFFFFF" stroke-width="4" stroke-miterlimit="10" d="M134.091,186.482
	c23.717-23.717,54.613-50.487,77.325-77.196c5.038-5.924,9.672-11.845,13.737-17.729c19.396-28.077,25.807-55.312,1.019-78.01
	c-44.104-35.76-92.081,33.146-92.081,33.146S87.287-25.408,42.01,13.547c-24.788,22.699-18.377,49.933,1.02,78.011
	c4.064,5.884,8.699,11.804,13.736,17.727C79.478,135.995,110.374,162.765,134.091,186.482z"/>
<polyline fill="none" stroke="#FFFFFF" stroke-width="4" stroke-miterlimit="10" points="0,101.864 83.573,101.864 92.919,44.83 
	107.35,138.28 122.169,60.531 130.883,99.864 456.169,99.864 "/>
</svg>
