<?xml version="1.0" encoding="utf-8"?>
<!-- Generator: Adobe Illustrator 21.1.0, SVG Export Plug-In . SVG Version: 6.00 Build 0)  -->
<svg version="1.1" id="Layer_1" xmlns="http://www.w3.org/2000/svg" xmlns:xlink="http://www.w3.org/1999/xlink" x="0px" y="0px"
	 viewBox="0 0 348.9 348.9" style="enable-background:new 0 0 348.9 348.9;" xml:space="preserve">
<style type="text/css">
	.st0{fill:#FFFFFF;}
</style>
<g>
	<path class="st0" d="M99.1,99c-0.9,0-1.8-0.3-2.4-1l-21-20.3c-1.4-1.3-1.4-3.6-0.1-4.9c1.3-1.4,3.6-1.4,4.9-0.1l21,20.3
		c1.4,1.3,1.4,3.6,0.1,4.9C100.9,98.7,100,99,99.1,99z"/>
	<path class="st0" d="M72.5,133c-0.8,0.3-1.7,0.4-2.6,0l-27.1-10.8c-1.8-0.7-2.7-2.8-2-4.5c0.7-1.8,2.8-2.7,4.5-2l27.1,10.8
		c1.8,0.7,2.7,2.8,2,4.5C74,132,73.3,132.7,72.5,133z"/>
	<path class="st0" d="M310.3,228.2c-0.8,0.3-1.8,0.3-2.6,0l-26.9-11.5c-1.8-0.8-2.6-2.8-1.8-4.6c0.8-1.8,2.8-2.6,4.6-1.8l26.9,11.5
		c1.8,0.8,2.6,2.8,1.8,4.6C311.9,227.2,311.2,227.9,310.3,228.2z"/>
	<path class="st0" d="M251,97.3c-0.9,0-1.7-0.3-2.4-0.9c-1.4-1.3-1.5-3.5-0.2-4.9l19.7-21.3c1.3-1.4,3.5-1.5,4.9-0.2
		c1.4,1.3,1.5,3.5,0.2,4.9l-19.7,21.3C252.9,96.9,252,97.3,251,97.3z"/>
	<path class="st0" d="M176,69c-1.9,0-3.5-1.6-3.5-3.5V38c0-1.9,1.6-3.5,3.5-3.5s3.5,1.6,3.5,3.5v27.6C179.5,67.5,177.9,69,176,69z"
		/>
	<path class="st0" d="M274,273.3c-0.9,0-1.8-0.3-2.4-1l-21-20.3c-1.4-1.3-1.4-3.6-0.1-4.9c1.3-1.4,3.6-1.4,4.9-0.1l21,20.3
		c1.4,1.3,1.4,3.6,0.1,4.9C275.8,272.9,274.9,273.3,274,273.3z"/>
	<path class="st0" d="M81.3,276c-0.9,0-1.7-0.3-2.4-0.9c-1.4-1.3-1.5-3.5-0.2-4.9l19.7-21.3c1.3-1.4,3.5-1.5,4.9-0.2
		c1.4,1.3,1.5,3.5,0.2,4.9l-19.7,21.3C83.2,275.6,82.3,276,81.3,276z"/>
	<path class="st0" d="M176.1,310.5c-1.9,0-3.5-1.6-3.5-3.5v-27.6c0-1.9,1.6-3.5,3.5-3.5s3.5,1.6,3.5,3.5V307
		C179.6,308.9,178,310.5,176.1,310.5z"/>
	<path class="st0" d="M284.9,172.3c0-1.9,1.6-3.5,3.5-3.5h27.6c1.9,0,3.5,1.6,3.5,3.5s-1.6,3.5-3.5,3.5h-27.6
		C286.4,175.8,284.9,174.2,284.9,172.3z"/>
	<path class="st0" d="M28.2,172.3c0-1.9,1.6-3.5,3.5-3.5h27.6c1.9,0,3.5,1.6,3.5,3.5s-1.6,3.5-3.5,3.5H31.7
		C29.8,175.8,28.2,174.2,28.2,172.3z"/>
	<path class="st0" d="M174.5,348.9C78.3,348.9,0,270.7,0,174.5C0,78.3,78.3,0,174.5,0s174.5,78.3,174.5,174.5
		C348.9,270.7,270.7,348.9,174.5,348.9z M174.5,6.6C81.9,6.6,6.6,81.9,6.6,174.5s75.3,167.9,167.9,167.9S342.3,267,342.3,174.5
		S267,6.6,174.5,6.6z"/>
	<g>
		<path class="st0" d="M130.5,77.5c-0.8-0.3-1.5-0.9-1.9-1.8l-12.3-26.5c-0.8-1.8-0.1-3.8,1.7-4.6c1.7-0.8,3.8-0.1,4.6,1.7
			l12.3,26.5c0.8,1.8,0.1,3.8-1.7,4.6C132.3,77.8,131.3,77.8,130.5,77.5z"/>
		<path class="st0" d="M273,130.1c-0.8-0.3-1.5-0.9-1.9-1.7c-0.9-1.7-0.1-3.8,1.6-4.7l26-12.9c1.7-0.9,3.8-0.1,4.7,1.6
			c0.9,1.7,0.1,3.8-1.6,4.7l-26,12.9C274.9,130.4,273.9,130.4,273,130.1z"/>
		<path class="st0" d="M213,76.9c-1.8-0.7-2.7-2.7-2-4.5l9.8-25.7c0.7-1.8,2.7-2.7,4.5-2c1.8,0.7,2.7,2.7,2,4.5l-9.8,25.7
			C216.8,76.7,214.8,77.6,213,76.9z"/>
		<path class="st0" d="M231.7,302.7c-0.8-0.3-1.5-0.9-1.9-1.8l-12.3-26.5c-0.8-1.8-0.1-3.8,1.7-4.6c1.8-0.8,3.8-0.1,4.6,1.7
			l12.3,26.5c0.8,1.8,0.1,3.8-1.7,4.6C233.5,303,232.6,303,231.7,302.7z"/>
		<path class="st0" d="M50.8,236.5c-0.8-0.3-1.5-0.9-1.9-1.7c-0.9-1.7-0.1-3.8,1.6-4.7l26-12.9c1.7-0.9,3.8-0.1,4.7,1.6
			c0.9,1.7,0.1,3.8-1.6,4.7l-26,12.9C52.7,236.8,51.6,236.8,50.8,236.5z"/>
		<path class="st0" d="M127,302.5c-1.8-0.7-2.7-2.7-2-4.5l9.8-25.7c0.7-1.8,2.7-2.7,4.5-2c1.8,0.7,2.7,2.7,2,4.5l-9.8,25.7
			C130.8,302.3,128.8,303.2,127,302.5z"/>
	</g>
</g>
</svg>
