<?xml version="1.0" encoding="utf-8"?>
<!-- Generator: Adobe Illustrator 15.0.0, SVG Export Plug-In . SVG Version: 6.00 Build 0)  -->
<!DOCTYPE svg PUBLIC "-//W3C//DTD SVG 1.1//EN" "http://www.w3.org/Graphics/SVG/1.1/DTD/svg11.dtd">
<svg version="1.1" id="Layer_1" xmlns="http://www.w3.org/2000/svg" xmlns:xlink="http://www.w3.org/1999/xlink" x="0px" y="0px"
	 width="69.207px" height="69.207px" viewBox="0 0 69.207 69.207" enable-background="new 0 0 69.207 69.207" xml:space="preserve">
<g>
	<line fill="none" stroke="#FFFFFF" stroke-miterlimit="10" x1="34.823" y1="35.529" x2="16.822" y2="17.528"/>
	<polygon fill="none" stroke="#FFFFFF" stroke-miterlimit="10" points="9.634,1.207 9.635,10.341 0.5,10.341 8.437,18.277 
		17.57,18.277 17.569,9.144 	"/>
	<path fill="none" stroke="#FFFFFF" stroke-miterlimit="10" d="M20.164,5.516c12.406-6.04,27.785-3.916,38.09,6.389
		c12.994,12.994,12.994,34.061,0,47.056s-34.062,12.994-47.056,0C0.893,48.655-1.23,33.278,4.81,20.871"/>
	<path fill="none" stroke="#FFFFFF" stroke-miterlimit="10" d="M25.636,14.75c8.278-3.636,18.288-2.07,25.065,4.707
		c8.824,8.823,8.824,23.128,0,31.951c-8.822,8.823-23.128,8.823-31.951,0.001c-6.776-6.777-8.343-16.79-4.706-25.066"/>
	<path fill="none" stroke="#FFFFFF" stroke-miterlimit="10" d="M31.16,24.072c4.096-1.281,8.745-0.308,11.99,2.938
		c4.652,4.652,4.652,12.194-0.001,16.845c-4.653,4.652-12.194,4.652-16.847,0.001c-3.244-3.244-4.22-7.895-2.937-11.99"/>
</g>
</svg>
