<?xml version="1.0" encoding="utf-8"?>
<!-- Generator: Adobe Illustrator 21.1.0, SVG Export Plug-In . SVG Version: 6.00 Build 0)  -->
<svg version="1.1" id="Layer_1" xmlns="http://www.w3.org/2000/svg" xmlns:xlink="http://www.w3.org/1999/xlink" x="0px" y="0px"
	 width="256px" height="213px" viewBox="0 0 256 213" style="enable-background:new 0 0 256 213;" xml:space="preserve">
<style type="text/css">
	.st0{display:none;}
	.st1{display:inline;}
	.st2{fill:#FFFFFF;}
	.st3{fill:#F16A3F;}
	.st4{fill:none;}
	.st5{fill:none;stroke:#FFFFFF;stroke-width:4;stroke-linecap:round;stroke-linejoin:round;stroke-miterlimit:10;}
	.st6{fill:#E8AD62;}
	.st7{fill:#010000;}
	.st8{fill:#0094CA;}
</style>
<g class="st0">
	<g class="st1">
		<path class="st2" d="M121.6,85.1c-0.8,0-1.5-0.6-1.6-1.4c-1.1-6.2,2.9-11.2,6.8-16.1c5.8-7.3,10.9-13.5-0.3-23.4
			C111.3,30.8,100.3,21,107.5,9c4.2-6.9,10.7-10.2,17.4-8.7c5.7,1.2,10,5.6,10.6,10.5c0.6,5.1-2.9,9.8-9.6,12.9
			c-0.8,0.4-1.8,0-2.2-0.8c-0.4-0.8,0-1.8,0.8-2.2c5.3-2.5,8.1-5.9,7.7-9.5c-0.4-3.5-3.7-6.7-7.9-7.6c-2.5-0.6-9-1-13.9,7.2
			c-5.6,9.2,2.5,17,18.3,31c13.5,12,6.4,20.9,0.7,28c-3.6,4.5-7,8.7-6.1,13.4c0.2,0.9-0.4,1.8-1.3,1.9
			C121.8,85.1,121.7,85.1,121.6,85.1z"/>
	</g>
	<g class="st1">
		<g>
			<path class="st3" d="M186.7,188.9H73.9c-31.2,0-41.9-18.1-51.7-44.8c-4.5-12.4-12.1-44.8-12.1-44.8s21.4,0,39,0h157.3
				c17.6,0,39,0,39,0s-6.4,31.4-10,42.5C226.7,168.8,215.2,188.9,186.7,188.9z"/>
			<path class="st2" d="M186.7,190.5H73.9c-15.2,0-26.4-4.1-35.1-12.9c-8.5-8.6-13.7-20.9-18.2-33c-4.5-12.3-11.9-43.7-12.2-45
				c-0.1-0.5,0-1,0.3-1.4s0.8-0.6,1.3-0.6h235.2c0.5,0,1,0.2,1.3,0.6s0.4,0.9,0.3,1.4c-0.3,1.3-6.5,31.6-10,42.7
				C227.6,171.2,215.5,190.5,186.7,190.5z M12.2,100.9c1.7,7.3,7.8,32.2,11.6,42.6c4.3,11.7,9.4,23.7,17.4,31.8s18.4,11.9,32.7,11.9
				h112.8c26.7,0,38.2-18.4,47.1-46c3-9.3,8.1-33.2,9.5-40.3C243.3,100.9,12.2,100.9,12.2,100.9z"/>
		</g>
		<g>
			<line class="st4" x1="1.7" y1="99.2" x2="254.3" y2="99.2"/>
			<path class="st2" d="M254.3,100.9H1.7c-0.9,0-1.7-0.7-1.7-1.7c0-0.9,0.7-1.7,1.7-1.7h252.6c0.9,0,1.7,0.7,1.7,1.7
				C256,100.2,255.2,100.9,254.3,100.9z"/>
		</g>
		<g>
			<line class="st4" x1="195.2" y1="189.4" x2="201" y2="211.3"/>
			<path class="st2" d="M201,213c-0.7,0-1.4-0.5-1.6-1.2l-5.7-21.9c-0.2-0.9,0.3-1.8,1.2-2s1.8,0.3,2,1.2l5.7,21.9
				c0.2,0.9-0.3,1.8-1.2,2C201.2,213,201.1,213,201,213z"/>
		</g>
		<g>
			<line class="st4" x1="64" y1="189.4" x2="58.3" y2="211.3"/>
			<path class="st2" d="M58.3,213c-0.1,0-0.3,0-0.4-0.1c-0.9-0.2-1.4-1.1-1.2-2l5.7-21.9c0.2-0.9,1.1-1.4,2-1.2
				c0.9,0.2,1.4,1.1,1.2,2l-5.7,21.9C59.7,212.5,59,213,58.3,213z"/>
		</g>
	</g>
	<g class="st1">
		<g>
			<g>
				<path class="st2" d="M26.9,81.5L26.9,81.5c-1-0.1-1.7-0.8-1.7-1.8c0.4-6.2-0.6-7.5-5.3-12.3c-5.3-5.5-10.4-11.8-8.1-16.9
					c0.4-0.8,1.4-1.2,2.2-0.8s1.2,1.4,0.8,2.2c-1.7,3.7,5.2,10.9,7.5,13.2c5,5.2,6.7,7.3,6.2,14.8C28.5,80.8,27.8,81.5,26.9,81.5z"
					/>
			</g>
			<g>
				<path class="st2" d="M50.6,78c-0.4,0-0.8-0.2-1.2-0.5c-0.7-0.6-0.7-1.7,0-2.4c6.9-7.1,12.5-14.1,5.4-22
					c-4.1-4.6-6.1-9.4-5.8-14.4c0.4-8.1,6.5-13.6,6.7-13.8c0.7-0.6,1.7-0.6,2.4,0.1c0.6,0.7,0.6,1.7-0.1,2.4
					c-0.1,0-5.3,4.8-5.6,11.5c-0.2,4.1,1.5,8.1,4.9,12c9.8,10.8-0.1,21.1-5.5,26.6C51.5,77.8,51,78,50.6,78z"/>
			</g>
		</g>
		<g>
			<path class="st2" d="M37.1,66.2c-0.4,0-0.7-0.1-1.1-0.4c-0.3-0.3-8.3-6.9-4.7-15.3c4.2-9.8,3.8-10.2,0.5-13.9
				c-0.6-0.7-0.6-1.7,0.1-2.4c0.7-0.6,1.7-0.6,2.4,0.1c4.7,5.3,4.3,7.3,0.1,17.4c-2.6,6.2,3.7,11.4,3.7,11.4
				c0.7,0.6,0.8,1.6,0.2,2.3C38.1,66,37.6,66.2,37.1,66.2z"/>
		</g>
	</g>
	<g class="st1">
		<g>
			<g>
				<path class="st2" d="M219.5,81.5c-0.9,0-1.6-0.7-1.7-1.6c-0.4-7.5,1.3-9.7,6.2-14.8c2.3-2.3,9.1-9.5,7.5-13.2
					c-0.4-0.8,0-1.8,0.8-2.2s1.8,0,2.2,0.8c2.3,5.1-2.8,11.4-8.1,16.9c-4.7,4.9-5.7,6.1-5.3,12.3C221.2,80.6,220.5,81.4,219.5,81.5
					L219.5,81.5z"/>
			</g>
			<g>
				<path class="st2" d="M195.8,78c-0.4,0-0.9-0.2-1.2-0.5c-5.4-5.5-15.3-15.7-5.5-26.6c3.5-3.9,5.2-7.9,4.9-12
					c-0.3-6.7-5.6-11.5-5.6-11.5c-0.7-0.6-0.7-1.7-0.1-2.4c0.6-0.7,1.7-0.7,2.4-0.1c0.3,0.2,6.3,5.7,6.7,13.8
					c0.3,5-1.7,9.9-5.8,14.4c-7.1,7.9-1.5,14.9,5.4,22c0.6,0.7,0.6,1.7,0,2.4C196.6,77.8,196.2,78,195.8,78z"/>
			</g>
		</g>
		<g>
			<path class="st2" d="M209.3,66.2c-0.5,0-1-0.2-1.3-0.6c-0.6-0.7-0.5-1.8,0.2-2.3c0.3-0.2,6.3-5.3,3.7-11.4
				c-4.3-10.2-4.6-12.2,0.1-17.4c0.6-0.7,1.7-0.8,2.4-0.1c0.7,0.6,0.8,1.7,0.1,2.4c-3.3,3.7-3.6,4.1,0.5,13.9
				c3.6,8.5-4.4,15-4.7,15.3C210,66.1,209.6,66.2,209.3,66.2z"/>
		</g>
	</g>
</g>
<g>
	<g class="st0">
		<g class="st1">
			<g>
				<g>
					<path class="st2" d="M128,111.5c-0.1,0-0.3,0-0.4-0.1L94.2,103c-0.4-0.1-0.8-0.4-1-0.8s-0.3-0.8-0.2-1.3l8.4-33.4
						c0.2-0.9,1.1-1.4,2-1.2l33.4,8.4c0.4,0.1,0.8,0.4,1,0.8s0.3,0.8,0.2,1.3l-8.4,33.4C129.4,111,128.7,111.5,128,111.5z
						 M96.6,100.2l30.2,7.6l7.6-30.2L104.2,70L96.6,100.2z"/>
				</g>
			</g>
			<g>
				<g>
					<path class="st2" d="M133.7,107.8c-0.2,0-0.5,0-0.7-0.1c-0.4-0.2-0.7-0.5-0.9-0.9l-2.3-5.8c-0.3-0.9,0.1-1.8,0.9-2.2
						c0.9-0.3,1.8,0.1,2.2,0.9l1.7,4.3l28.9-11.5L152,63.6l-27.4,10.9c-0.9,0.3-1.8-0.1-2.2-0.9c-0.3-0.9,0.1-1.8,0.9-2.2l29-11.5
						c0.4-0.2,0.9-0.2,1.3,0c0.4,0.2,0.7,0.5,0.9,0.9l12.7,32c0.3,0.9-0.1,1.8-0.9,2.2l-32,12.7
						C134.2,107.8,133.9,107.8,133.7,107.8z"/>
				</g>
				<g>
					<path class="st5" d="M116.7,72.3"/>
				</g>
			</g>
			<g>
				<g>
					<path class="st2" d="M113.4,71.7c-0.7,0-1.4-0.5-1.6-1.2L105,44.7c-0.2-0.9,0.3-1.8,1.2-2l32.8-9.3c0.4-0.1,0.9-0.1,1.3,0.2
						c0.4,0.2,0.7,0.6,0.8,1l7.2,27.2c0.2,0.9-0.3,1.8-1.2,2c-0.9,0.2-1.8-0.3-2-1.2L138.3,37l-29.6,8.4l6.4,24.1
						c0.2,0.9-0.3,1.8-1.2,2C113.7,71.7,113.6,71.7,113.4,71.7z"/>
				</g>
			</g>
		</g>
	</g>
	<g>
		<g>
			<g>
				<path class="st2" d="M44.4,99.2C44.4,99.2,44.3,99.2,44.4,99.2l-21-0.2c-0.9,0-1.7-0.8-1.7-1.7l0.3-21c0-0.9,0.8-1.7,1.7-1.7
					l0,0l20.9,0.2c0.9,0,1.7,0.8,1.7,1.7l-0.3,21C46,98.4,45.3,99.2,44.4,99.2z M25.1,95.6l17.6,0.2l0.2-17.6L25.3,78L25.1,95.6z"/>
			</g>
			<g>
				<path class="st5" d="M46.6,74.6"/>
			</g>
		</g>
		<g>
			<g>
				<path class="st2" d="M64.7,102.2c-0.3,0-0.6-0.1-0.9-0.3L46.3,90.4c-0.4-0.2-0.6-0.6-0.7-1.1c-0.1-0.4,0-0.9,0.2-1.3l11.6-17.5
					c0.5-0.8,1.5-1,2.3-0.5l17.5,11.6c0.4,0.2,0.6,0.6,0.7,1.1c0.1,0.4,0,0.9-0.2,1.3l-11.6,17.5C65.8,102,65.2,102.2,64.7,102.2z
					 M49.5,88.5l14.7,9.7l9.7-14.7l-14.7-9.7L49.5,88.5z"/>
			</g>
		</g>
		<g>
			<g>
				<path class="st2" d="M55.8,77.5c-0.1,0-0.1,0-0.2,0l-16.8-1.7c-0.4,0-0.8-0.3-1.1-0.6c-0.3-0.3-0.4-0.8-0.4-1.2l2-20.8
					c0.1-0.9,0.9-1.6,1.8-1.5l20.8,2c0.4,0,0.8,0.3,1.1,0.6s0.4,0.8,0.4,1.2l-1.6,16c-0.1,0.9-0.9,1.6-1.8,1.5
					c-0.9-0.1-1.6-0.9-1.5-1.8l1.4-14.3l-17.5-1.7l-1.7,17.5L56,74.2c0.9,0.1,1.6,0.9,1.5,1.8S56.7,77.5,55.8,77.5z"/>
			</g>
		</g>
	</g>
	<g>
		<g>
			<g>
				<path class="st2" d="M217.4,99.6c-0.9,0-1.7-0.7-1.7-1.7L215.5,77c0-0.9,0.7-1.7,1.7-1.7l20.9-0.2l0,0c0.9,0,1.7,0.7,1.7,1.7
					l0.2,20.9c0,0.9-0.7,1.7-1.7,1.7L217.4,99.6L217.4,99.6z M218.9,78.6l0.2,17.6l17.6-0.2l-0.2-17.6L218.9,78.6z"/>
			</g>
			<g>
				<path class="st4" d="M215.2,75"/>
			</g>
		</g>
		<g>
			<g>
				<path class="st2" d="M197.1,102.7c-0.1,0-0.2,0-0.3,0c-0.4-0.1-0.8-0.3-1.1-0.7l-11.6-17.5c-0.5-0.8-0.3-1.8,0.5-2.3l17.5-11.6
					c0.4-0.2,0.8-0.3,1.3-0.2c0.4,0.1,0.8,0.3,1.1,0.7L216,88.5c0.5,0.8,0.3,1.8-0.5,2.3L198,102.4
					C197.8,102.6,197.4,102.7,197.1,102.7z M187.8,84l9.7,14.7l14.7-9.7l-9.7-14.7L187.8,84z"/>
			</g>
		</g>
		<g>
			<g>
				<path class="st2" d="M206,78c-0.8,0-1.6-0.6-1.7-1.5c-0.1-0.9,0.6-1.7,1.5-1.8l15.2-1.5l-1.7-17.5l-17.5,1.7l1.4,14.3
					c0.1,0.9-0.6,1.7-1.5,1.8c-0.9,0.1-1.7-0.6-1.8-1.5l-1.6-16c-0.1-0.9,0.6-1.7,1.5-1.8l20.8-2c0.9-0.1,1.7,0.6,1.8,1.5l2,20.8
					c0,0.4-0.1,0.9-0.4,1.2c-0.3,0.3-0.7,0.6-1.1,0.6L206.1,78H206z"/>
			</g>
		</g>
	</g>
	<g>
		<g>
			<path class="st6" d="M130.6,117.1c0,0,2.9,36.8,6.7,56.5c3.8,19.9,8.7,2.7,10.1-19.6c0.9-15,1.8-38.9,1.8-38.9l-0.4-16.5l-1-19.8
				l1,19.8c-0.1,5.1,0,27.2,0,27.2c8.3,0.5,13.6-15,12.2-44.3C159.7,56.3,146.2,54,146.2,54h-18.4H112c0,0-14.6,0.9-16.3,15.8
				s-0.4,30.7,0.5,36c1.2,7.5,4.4,23.6,13.8,20.2c0,0-0.3-39.4,0.2-48.3l-1.1,19.9c0,0,0.5,23.6,1.1,32c1.4,21.4,5.9,70.1,12.5,49.1
				c1.7-5.3,4.6-22.2,5.2-29.7C129.5,128.9,130.6,117.1,130.6,117.1"/>
			<path class="st7" d="M119.5,185.5c-0.1,0-0.2,0-0.3,0c-2.1-0.2-4.6-2.2-7.3-22.1c-1.8-12.9-2.9-27.8-3.2-33.6
				c0-0.5-0.1-1.2-0.1-1.8c-1.7,0.2-3.4-0.1-4.9-1c-4.2-2.5-7.2-9.3-9-20.9c-0.7-4.5-2.3-20.7-0.5-36.4c1.9-16,17.6-17.1,17.8-17.1
				h0.1h34.4c0.6,0.1,14.8,2.8,16.1,28.9c1.1,22.1-1.5,37.5-7.5,43.3c-1.5,1.4-3.1,2.3-4.8,2.5c-0.3,8.2-0.8,18.8-1.3,26.8
				c-0.5,8.9-2.4,29.5-7.8,29.8c-2.4,0.2-4-2.8-5.4-10c-2.1-10.9-3.9-27.1-5.1-39.4c-0.4,4.2-0.8,9.1-1.2,14.7
				c-0.7,7.8-3.6,24.7-5.3,30C123.1,182.3,121.8,185.5,119.5,185.5z M111.5,126c0.1,1.4,0.1,2.6,0.2,3.6c2.1,31.6,5.4,50.1,7.7,52.6
				c0.3-0.4,0.9-1.4,1.7-3.9c1.6-5.1,4.5-21.8,5.1-29.3c1.7-20,2.7-31.9,2.8-32h3.1c0,0.4,3,37,6.6,56.4c0.9,5,1.8,6.7,2.2,7.3
				c1.5-1.9,3.9-11.6,4.8-26.7c0.5-8.8,1.1-20.9,1.4-29.3c0-4.6-0.1-21.6,0-26l-1-19.8l3.1-0.2l1,19.9l0,0l0.4,16.5l0,0
				c0,0.1-0.1,3.7-0.3,9c0.9-0.2,1.7-0.7,2.5-1.5c5.1-5.1,7.6-20.4,6.5-41c-1.1-22.5-12.2-25.7-13.4-26H112
				c-0.9,0.1-13.3,1.2-14.9,14.4c-1.8,15.3-0.2,31.2,0.5,35.6c1.7,10.5,4.2,16.7,7.5,18.7c1,0.6,2,0.7,3.2,0.5
				c-0.5-10.3-0.8-26.9-0.8-27.1v-0.1v-0.1l1.1-19.9l0,0l0,0l3.1,0.2C111.3,86.4,111.5,124.5,111.5,126z"/>
		</g>
		<g>
			<circle class="st6" cx="127.8" cy="31.6" r="21"/>
			<path class="st7" d="M127.8,54.1c-12.4,0-22.6-10.1-22.6-22.6S115.3,9,127.8,9s22.6,10.1,22.6,22.6S140.2,54.1,127.8,54.1z
				 M127.8,12.1c-10.7,0-19.5,8.7-19.5,19.5S117,51,127.8,51s19.5-8.7,19.5-19.5S138.5,12.1,127.8,12.1z"/>
		</g>
	</g>
	<g>
		<g>
			<g>
				<path class="st8" d="M186.7,188.9H73.9c-31.2,0-41.9-18.1-51.7-44.8c-4.5-12.4-12.1-44.8-12.1-44.8s21.4,0,39,0h157.3
					c17.6,0,39,0,39,0s-6.4,31.4-10,42.5C226.7,168.8,215.2,188.9,186.7,188.9z"/>
				<path class="st2" d="M186.7,190.5H73.9c-15.2,0-26.4-4.1-35.1-12.9c-8.5-8.6-13.7-20.9-18.2-33c-4.5-12.4-11.9-43.7-12.2-45
					c-0.1-0.5,0-1,0.3-1.4s0.8-0.6,1.3-0.6h235.3c0.5,0,1,0.2,1.3,0.6s0.4,0.9,0.3,1.4c-0.3,1.3-6.5,31.6-10,42.7
					C227.6,171.2,215.5,190.5,186.7,190.5z M12.2,100.9c1.7,7.3,7.8,32.2,11.6,42.6c4.3,11.7,9.4,23.7,17.4,31.8
					s18.4,11.9,32.7,11.9h112.8c26.7,0,38.2-18.4,47.1-46c3-9.3,8.1-33.2,9.5-40.3C243.3,100.9,12.2,100.9,12.2,100.9z"/>
			</g>
			<g>
				<polyline class="st8" points="1.7,99.2 121.5,99.2 254.3,99.2 				"/>
				<path class="st2" d="M254.3,100.9H1.7c-0.9,0-1.7-0.7-1.7-1.7s0.7-1.7,1.7-1.7h252.7c0.9,0,1.7,0.7,1.7,1.7
					S255.3,100.9,254.3,100.9z"/>
			</g>
			<g>
				<line class="st4" x1="195.3" y1="189.4" x2="201" y2="211.3"/>
				<path class="st2" d="M201,213c-0.7,0-1.4-0.5-1.6-1.2l-5.7-21.9c-0.2-0.9,0.3-1.8,1.2-2s1.8,0.3,2,1.2l5.7,21.9
					c0.2,0.9-0.3,1.8-1.2,2C201.3,213,201.1,213,201,213z"/>
			</g>
			<g>
				<line class="st4" x1="64" y1="189.4" x2="58.3" y2="211.3"/>
				<path class="st2" d="M58.3,213c-0.1,0-0.3,0-0.4-0.1c-0.9-0.2-1.4-1.1-1.2-2l5.7-21.9c0.2-0.9,1.1-1.4,2-1.2
					c0.9,0.2,1.4,1.1,1.2,2l-5.7,21.9C59.7,212.5,59,213,58.3,213z"/>
			</g>
		</g>
	</g>
</g>
<polygon class="st2" points="74.5,109 111.9,150.3 221.9,14.1 244,14.1 112.4,178.9 52,109.1 "/>
<g class="st0">
	<g class="st1">
		<polygon class="st2" points="48,171.9 185.3,0.9 208,0.9 70.7,172.1 		"/>
	</g>
	<g class="st1">
		<polygon class="st2" points="208,171.9 70.7,0.9 48,0.9 185.3,172.1 		"/>
	</g>
</g>
</svg>
