<?xml version="1.0" encoding="utf-8"?>
<!-- Generator: Adobe Illustrator 21.1.0, SVG Export Plug-In . SVG Version: 6.00 Build 0)  -->
<svg version="1.1" id="Layer_1" xmlns="http://www.w3.org/2000/svg" xmlns:xlink="http://www.w3.org/1999/xlink" x="0px" y="0px"
	 width="75px" height="190px" viewBox="0 0 75 190" style="enable-background:new 0 0 75 190;" xml:space="preserve">
<style type="text/css">
	.st0{fill:#19529C;}
	.st1{fill:#FCFDFF;}
</style>
<g>
	<g>
		<path class="st0" d="M40.3,116.4c0,0,3.1,39.6,7.2,60.9c4.1,21.5,9.4,2.9,10.9-21.1c1-16.1,1.9-41.9,1.9-41.9l-0.4-17.7l-1.1-21.3
			l1.1,21.3c-0.1,5.5,0,29.3,0,29.3c8.9,0.6,14.7-16.2,13.1-47.6C71.6,51.1,57,48.5,57,48.5H37.2h-17c0,0-15.7,0.9-17.6,17
			s-0.4,33.1,0.5,38.8c1.3,8.1,4.7,25.4,14.9,21.7c0,0-0.3-42.4,0.2-52l-1.2,21.5c0,0,0.6,25.4,1.2,34.5c1.5,23,6.3,75.5,13.4,52.8
			c1.8-5.7,4.9-23.9,5.6-32C39.1,129,40.3,116.4,40.3,116.4"/>
		<path class="st1" d="M28.3,190c-0.1,0-0.2,0-0.4,0c-2.3-0.3-4.9-2.3-7.8-23.7c-1.9-13.9-3.1-29.9-3.5-36.2c0-0.6-0.1-1.2-0.1-2
			c-1.9,0.2-3.6-0.1-5.3-1.1c-4.6-2.7-7.7-10-9.7-22.5C0.8,99.7-1,82.2,1,65.3c2-17.2,19-18.4,19.2-18.4l0.1,0l37,0
			C58,47,73.2,50,74.6,78.1c1.2,23.8-1.7,40.3-8,46.6c-1.6,1.5-3.3,2.4-5.2,2.7c-0.4,8.8-0.9,20.2-1.4,28.9
			c-0.6,9.5-2.5,31.7-8.4,32.1c-2.6,0.2-4.3-3-5.8-10.8c-2.2-11.7-4.2-29.2-5.5-42.4c-0.4,4.5-0.8,9.8-1.3,15.8
			c-0.7,8.4-3.9,26.6-5.7,32.3C32.3,186.6,30.9,190,28.3,190z M19.8,125.9c0.1,1.5,0.1,2.8,0.2,3.9c2.2,34.1,5.8,53.9,8.3,56.7
			c0.3-0.4,1-1.5,1.9-4.2c1.7-5.5,4.9-23.5,5.5-31.6c1.8-21.5,3-34.3,3-34.5l3.3,0c0,0.4,3.2,39.8,7.2,60.7c1,5.4,2,7.2,2.4,7.9
			c1.6-2,4.2-12.4,5.2-28.7c0.6-9.5,1.1-22.5,1.5-31.5c0-5-0.1-23.2,0-28l-1.1-21.3l3.3-0.2l1.1,21.4l0,0l0.4,17.7l0,0
			c0,0.1-0.1,4-0.4,9.7c0.9-0.3,1.8-0.8,2.7-1.6c5.5-5.5,8.2-21.9,7-44.1c-1.2-24.2-13.1-27.7-14.4-28H20.3c-1,0.1-14.3,1.3-16,15.5
			C2.4,82.2,4.1,99.3,4.9,104c1.8,11.3,4.5,18,8.1,20.1c1,0.6,2.2,0.8,3.4,0.6c-0.5-11-0.9-29-0.9-29.2l0-0.1l0-0.1l1.2-21.4
			c0,0,0,0,0,0v0l3.3,0.2C19.5,83.4,19.8,124.3,19.8,125.9z"/>
	</g>
	<g>
		<circle class="st0" cx="37.2" cy="24.3" r="22.6"/>
		<path class="st1" d="M37.2,48.6C23.8,48.6,13,37.7,13,24.3S23.8,0,37.2,0s24.3,10.9,24.3,24.3S50.6,48.6,37.2,48.6z M37.2,3.3
			c-11.6,0-20.9,9.4-20.9,20.9s9.4,20.9,20.9,20.9s20.9-9.4,20.9-20.9S48.8,3.3,37.2,3.3z"/>
	</g>
</g>
</svg>
