<?xml version="1.0" encoding="utf-8"?>
<!-- Generator: Adobe Illustrator 21.1.0, SVG Export Plug-In . SVG Version: 6.00 Build 0)  -->
<svg version="1.1" id="Layer_1" xmlns="http://www.w3.org/2000/svg" xmlns:xlink="http://www.w3.org/1999/xlink" x="0px" y="0px"
	 width="256px" height="213px" viewBox="0 0 256 213" style="enable-background:new 0 0 256 213;" xml:space="preserve">
<style type="text/css">
	.st0{display:none;fill:#EDA152;}
	.st1{display:none;}
	.st2{display:inline;fill:#FFFFFF;}
	.st3{display:inline;}
	.st4{fill:#F16A3F;}
	.st5{fill:#FFFFFF;}
	.st6{fill:none;}
</style>
<rect y="-0.1" class="st0" width="256" height="213.1"/>
<g>
	<g class="st1">
		<path class="st2" d="M121.6,85.1c-0.8,0-1.5-0.6-1.6-1.4c-1.1-6.2,2.9-11.2,6.8-16.1c5.8-7.3,10.9-13.5-0.3-23.4
			C111.3,30.8,100.3,21,107.5,9c4.2-6.9,10.7-10.2,17.4-8.7c5.7,1.2,10,5.6,10.6,10.5c0.6,5.1-2.9,9.8-9.6,12.9
			c-0.8,0.4-1.8,0-2.2-0.8c-0.4-0.8,0-1.8,0.8-2.2c5.3-2.5,8.1-5.9,7.7-9.5c-0.4-3.5-3.7-6.7-7.9-7.6c-2.5-0.6-9-1-13.9,7.2
			c-5.6,9.2,2.5,17,18.3,31c13.5,12,6.4,20.9,0.7,28c-3.6,4.5-7,8.7-6.1,13.4c0.2,0.9-0.4,1.8-1.3,1.9
			C121.8,85.1,121.7,85.1,121.6,85.1z"/>
	</g>
	<g class="st1">
		<g class="st3">
			<path class="st4" d="M186.7,188.9H73.9c-31.2,0-41.9-18.1-51.7-44.8c-4.5-12.4-12.1-44.8-12.1-44.8s21.4,0,39,0h157.3
				c17.6,0,39,0,39,0s-6.4,31.4-10,42.5C226.7,168.8,215.2,188.9,186.7,188.9z"/>
			<path class="st5" d="M186.7,190.5H73.9c-15.2,0-26.4-4.1-35.1-12.9c-8.5-8.6-13.7-20.9-18.2-33c-4.5-12.3-11.9-43.7-12.2-45
				c-0.1-0.5,0-1,0.3-1.4s0.8-0.6,1.3-0.6h235.2c0.5,0,1,0.2,1.3,0.6s0.4,0.9,0.3,1.4c-0.3,1.3-6.5,31.6-10,42.7
				C227.6,171.2,215.5,190.5,186.7,190.5z M12.2,100.9c1.7,7.3,7.8,32.2,11.6,42.6c4.3,11.7,9.4,23.7,17.4,31.8s18.4,11.9,32.7,11.9
				h112.8c26.7,0,38.2-18.4,47.1-46c3-9.3,8.1-33.2,9.5-40.3C243.3,100.9,12.2,100.9,12.2,100.9z"/>
		</g>
		<g class="st3">
			<line class="st6" x1="1.7" y1="99.2" x2="254.3" y2="99.2"/>
			<path class="st5" d="M254.3,100.9H1.7c-0.9,0-1.7-0.7-1.7-1.7c0-0.9,0.7-1.7,1.7-1.7h252.6c0.9,0,1.7,0.7,1.7,1.7
				C256,100.2,255.2,100.9,254.3,100.9z"/>
		</g>
		<g class="st3">
			<line class="st6" x1="195.2" y1="189.4" x2="201" y2="211.3"/>
			<path class="st5" d="M201,213c-0.7,0-1.4-0.5-1.6-1.2l-5.7-21.9c-0.2-0.9,0.3-1.8,1.2-2s1.8,0.3,2,1.2l5.7,21.9
				c0.2,0.9-0.3,1.8-1.2,2C201.2,213,201.1,213,201,213z"/>
		</g>
		<g class="st3">
			<line class="st6" x1="64" y1="189.4" x2="58.3" y2="211.3"/>
			<path class="st5" d="M58.3,213c-0.1,0-0.3,0-0.4-0.1c-0.9-0.2-1.4-1.1-1.2-2l5.7-21.9c0.2-0.9,1.1-1.4,2-1.2
				c0.9,0.2,1.4,1.1,1.2,2l-5.7,21.9C59.7,212.5,59,213,58.3,213z"/>
		</g>
	</g>
	<g>
		<g>
			<g>
				<path class="st5" d="M26.9,81.5L26.9,81.5c-1-0.1-1.7-0.8-1.7-1.8c0.4-6.2-0.6-7.5-5.3-12.3c-5.3-5.5-10.4-11.8-8.1-16.9
					c0.4-0.8,1.4-1.2,2.2-0.8s1.2,1.4,0.8,2.2c-1.7,3.7,5.2,10.9,7.5,13.2c5,5.2,6.7,7.3,6.2,14.8C28.5,80.8,27.8,81.5,26.9,81.5z"
					/>
			</g>
			<g>
				<path class="st5" d="M50.6,78c-0.4,0-0.8-0.2-1.2-0.5c-0.7-0.6-0.7-1.7,0-2.4c6.9-7.1,12.5-14.1,5.4-22
					c-4.1-4.6-6.1-9.4-5.8-14.4c0.4-8.1,6.5-13.6,6.7-13.8c0.7-0.6,1.7-0.6,2.4,0.1c0.6,0.7,0.6,1.7-0.1,2.4
					c-0.1,0-5.3,4.8-5.6,11.5c-0.2,4.1,1.5,8.1,4.9,12c9.8,10.8-0.1,21.1-5.5,26.6C51.5,77.8,51,78,50.6,78z"/>
			</g>
		</g>
		<g>
			<path class="st5" d="M37.1,66.2c-0.4,0-0.7-0.1-1.1-0.4c-0.3-0.3-8.3-6.9-4.7-15.3c4.2-9.8,3.8-10.2,0.5-13.9
				c-0.6-0.7-0.6-1.7,0.1-2.4c0.7-0.6,1.7-0.6,2.4,0.1c4.7,5.3,4.3,7.3,0.1,17.4c-2.6,6.2,3.7,11.4,3.7,11.4
				c0.7,0.6,0.8,1.6,0.2,2.3C38.1,66,37.6,66.2,37.1,66.2z"/>
		</g>
	</g>
	<g>
		<g>
			<g>
				<path class="st5" d="M219.5,81.5c-0.9,0-1.6-0.7-1.7-1.6c-0.4-7.5,1.3-9.7,6.2-14.8c2.3-2.3,9.1-9.5,7.5-13.2
					c-0.4-0.8,0-1.8,0.8-2.2s1.8,0,2.2,0.8c2.3,5.1-2.8,11.4-8.1,16.9c-4.7,4.9-5.7,6.1-5.3,12.3C221.2,80.6,220.5,81.4,219.5,81.5
					L219.5,81.5z"/>
			</g>
			<g>
				<path class="st5" d="M195.8,78c-0.4,0-0.9-0.2-1.2-0.5c-5.4-5.5-15.3-15.7-5.5-26.6c3.5-3.9,5.2-7.9,4.9-12
					c-0.3-6.7-5.6-11.5-5.6-11.5c-0.7-0.6-0.7-1.7-0.1-2.4c0.6-0.7,1.7-0.7,2.4-0.1c0.3,0.2,6.3,5.7,6.7,13.8
					c0.3,5-1.7,9.9-5.8,14.4c-7.1,7.9-1.5,14.9,5.4,22c0.6,0.7,0.6,1.7,0,2.4C196.6,77.8,196.2,78,195.8,78z"/>
			</g>
		</g>
		<g>
			<path class="st5" d="M209.3,66.2c-0.5,0-1-0.2-1.3-0.6c-0.6-0.7-0.5-1.8,0.2-2.3c0.3-0.2,6.3-5.3,3.7-11.4
				c-4.3-10.2-4.6-12.2,0.1-17.4c0.6-0.7,1.7-0.8,2.4-0.1c0.7,0.6,0.8,1.7,0.1,2.4c-3.3,3.7-3.6,4.1,0.5,13.9
				c3.6,8.5-4.4,15-4.7,15.3C210,66.1,209.6,66.2,209.3,66.2z"/>
		</g>
	</g>
</g>
</svg>
