<?xml version="1.0" encoding="utf-8"?>
<!-- Generator: Adobe Illustrator 21.1.0, SVG Export Plug-In . SVG Version: 6.00 Build 0)  -->
<svg version="1.1" id="Layer_1" xmlns="http://www.w3.org/2000/svg" xmlns:xlink="http://www.w3.org/1999/xlink" x="0px" y="0px"
	 width="256px" height="213px" viewBox="0 0 256 213" style="enable-background:new 0 0 256 213;" xml:space="preserve">
<style type="text/css">
	.st0{display:none;}
	.st1{display:inline;}
	.st2{fill:#FFFFFF;}
	.st3{fill:#F16A3F;}
	.st4{fill:none;}
	.st5{fill:#58C9E7;}
	.st6{display:inline;fill:#58C9E7;}
	.st7{fill:#0094CA;}
</style>
<g class="st0">
	<g class="st1">
		<path class="st2" d="M121.6,85.1c-0.8,0-1.5-0.6-1.6-1.4c-1.1-6.2,2.9-11.2,6.8-16.1c5.8-7.3,10.9-13.5-0.3-23.4
			C111.3,30.8,100.3,21,107.5,9c4.2-6.9,10.7-10.2,17.4-8.7c5.7,1.2,10,5.6,10.6,10.5c0.6,5.1-2.9,9.8-9.6,12.9
			c-0.8,0.4-1.8,0-2.2-0.8c-0.4-0.8,0-1.8,0.8-2.2c5.3-2.5,8.1-5.9,7.7-9.5c-0.4-3.5-3.7-6.7-7.9-7.6c-2.5-0.6-9-1-13.9,7.2
			c-5.6,9.2,2.5,17,18.3,31c13.5,12,6.4,20.9,0.7,28c-3.6,4.5-7,8.7-6.1,13.4c0.2,0.9-0.4,1.8-1.3,1.9
			C121.8,85.1,121.7,85.1,121.6,85.1z"/>
	</g>
	<g class="st1">
		<g>
			<path class="st3" d="M186.7,188.9H73.9c-31.2,0-41.9-18.1-51.7-44.8c-4.5-12.4-12.1-44.8-12.1-44.8s21.4,0,39,0h157.3
				c17.6,0,39,0,39,0s-6.4,31.4-10,42.5C226.7,168.8,215.2,188.9,186.7,188.9z"/>
			<path class="st2" d="M186.7,190.5H73.9c-15.2,0-26.4-4.1-35.1-12.9c-8.5-8.6-13.7-20.9-18.2-33c-4.5-12.3-11.9-43.7-12.2-45
				c-0.1-0.5,0-1,0.3-1.4s0.8-0.6,1.3-0.6h235.2c0.5,0,1,0.2,1.3,0.6s0.4,0.9,0.3,1.4c-0.3,1.3-6.5,31.6-10,42.7
				C227.6,171.2,215.5,190.5,186.7,190.5z M12.2,100.9c1.7,7.3,7.8,32.2,11.6,42.6c4.3,11.7,9.4,23.7,17.4,31.8s18.4,11.9,32.7,11.9
				h112.8c26.7,0,38.2-18.4,47.1-46c3-9.3,8.1-33.2,9.5-40.3C243.3,100.9,12.2,100.9,12.2,100.9z"/>
		</g>
		<g>
			<line class="st4" x1="1.7" y1="99.2" x2="254.3" y2="99.2"/>
			<path class="st2" d="M254.3,100.9H1.7c-0.9,0-1.7-0.7-1.7-1.7c0-0.9,0.7-1.7,1.7-1.7h252.6c0.9,0,1.7,0.7,1.7,1.7
				C256,100.2,255.2,100.9,254.3,100.9z"/>
		</g>
		<g>
			<line class="st4" x1="195.2" y1="189.4" x2="201" y2="211.3"/>
			<path class="st2" d="M201,213c-0.7,0-1.4-0.5-1.6-1.2l-5.7-21.9c-0.2-0.9,0.3-1.8,1.2-2s1.8,0.3,2,1.2l5.7,21.9
				c0.2,0.9-0.3,1.8-1.2,2C201.2,213,201.1,213,201,213z"/>
		</g>
		<g>
			<line class="st4" x1="64" y1="189.4" x2="58.3" y2="211.3"/>
			<path class="st2" d="M58.3,213c-0.1,0-0.3,0-0.4-0.1c-0.9-0.2-1.4-1.1-1.2-2l5.7-21.9c0.2-0.9,1.1-1.4,2-1.2
				c0.9,0.2,1.4,1.1,1.2,2l-5.7,21.9C59.7,212.5,59,213,58.3,213z"/>
		</g>
	</g>
	<g class="st1">
		<g>
			<g>
				<path class="st2" d="M26.9,81.5L26.9,81.5c-1-0.1-1.7-0.8-1.7-1.8c0.4-6.2-0.6-7.5-5.3-12.3c-5.3-5.5-10.4-11.8-8.1-16.9
					c0.4-0.8,1.4-1.2,2.2-0.8s1.2,1.4,0.8,2.2c-1.7,3.7,5.2,10.9,7.5,13.2c5,5.2,6.7,7.3,6.2,14.8C28.5,80.8,27.8,81.5,26.9,81.5z"
					/>
			</g>
			<g>
				<path class="st2" d="M50.6,78c-0.4,0-0.8-0.2-1.2-0.5c-0.7-0.6-0.7-1.7,0-2.4c6.9-7.1,12.5-14.1,5.4-22
					c-4.1-4.6-6.1-9.4-5.8-14.4c0.4-8.1,6.5-13.6,6.7-13.8c0.7-0.6,1.7-0.6,2.4,0.1c0.6,0.7,0.6,1.7-0.1,2.4
					c-0.1,0-5.3,4.8-5.6,11.5c-0.2,4.1,1.5,8.1,4.9,12c9.8,10.8-0.1,21.1-5.5,26.6C51.5,77.8,51,78,50.6,78z"/>
			</g>
		</g>
		<g>
			<path class="st2" d="M37.1,66.2c-0.4,0-0.7-0.1-1.1-0.4c-0.3-0.3-8.3-6.9-4.7-15.3c4.2-9.8,3.8-10.2,0.5-13.9
				c-0.6-0.7-0.6-1.7,0.1-2.4c0.7-0.6,1.7-0.6,2.4,0.1c4.7,5.3,4.3,7.3,0.1,17.4c-2.6,6.2,3.7,11.4,3.7,11.4
				c0.7,0.6,0.8,1.6,0.2,2.3C38.1,66,37.6,66.2,37.1,66.2z"/>
		</g>
	</g>
	<g class="st1">
		<g>
			<g>
				<path class="st2" d="M219.5,81.5c-0.9,0-1.6-0.7-1.7-1.6c-0.4-7.5,1.3-9.7,6.2-14.8c2.3-2.3,9.1-9.5,7.5-13.2
					c-0.4-0.8,0-1.8,0.8-2.2s1.8,0,2.2,0.8c2.3,5.1-2.8,11.4-8.1,16.9c-4.7,4.9-5.7,6.1-5.3,12.3C221.2,80.6,220.5,81.4,219.5,81.5
					L219.5,81.5z"/>
			</g>
			<g>
				<path class="st2" d="M195.8,78c-0.4,0-0.9-0.2-1.2-0.5c-5.4-5.5-15.3-15.7-5.5-26.6c3.5-3.9,5.2-7.9,4.9-12
					c-0.3-6.7-5.6-11.5-5.6-11.5c-0.7-0.6-0.7-1.7-0.1-2.4c0.6-0.7,1.7-0.7,2.4-0.1c0.3,0.2,6.3,5.7,6.7,13.8
					c0.3,5-1.7,9.9-5.8,14.4c-7.1,7.9-1.5,14.9,5.4,22c0.6,0.7,0.6,1.7,0,2.4C196.6,77.8,196.2,78,195.8,78z"/>
			</g>
		</g>
		<g>
			<path class="st2" d="M209.3,66.2c-0.5,0-1-0.2-1.3-0.6c-0.6-0.7-0.5-1.8,0.2-2.3c0.3-0.2,6.3-5.3,3.7-11.4
				c-4.3-10.2-4.6-12.2,0.1-17.4c0.6-0.7,1.7-0.8,2.4-0.1c0.7,0.6,0.8,1.7,0.1,2.4c-3.3,3.7-3.6,4.1,0.5,13.9
				c3.6,8.5-4.4,15-4.7,15.3C210,66.1,209.6,66.2,209.3,66.2z"/>
		</g>
	</g>
</g>
<g class="st0">
	<g class="st1">
		<g>
			<polygon class="st5" points="106.5,44 115.6,76.4 148.5,67.7 139.1,34.9 			"/>
			<g>
				<path class="st2" d="M149.5,69.5c-0.1,0-0.3,0.1-0.4,0.1l-33.2,9.1c-0.4,0.1-0.9,0-1.3-0.2c-0.4-0.3-0.7-0.6-0.8-1l-9.1-33.2
					c-0.3-0.9,0.3-1.8,1.2-2l33.2-9.1c0.4-0.1,0.9,0,1.3,0.2c0.4,0.3,0.7,0.6,0.8,1l9.1,33.2C150.5,68.3,150.1,69.1,149.5,69.5z
					 M116.6,75l30-8.2l-8.2-30l-30,8.2L116.6,75z"/>
			</g>
		</g>
		<g>
			<polygon class="st5" points="121.2,74.6 134.1,105.7 165.8,93.2 152.5,61.7 			"/>
			<g>
				<path class="st2" d="M166.9,94.8c-0.1,0.1-0.2,0.2-0.4,0.2l-31.9,12.9c-0.4,0.2-0.9,0.1-1.3-0.1s-0.7-0.5-0.9-0.9l-12.9-31.9
					c-0.4-0.8,0.1-1.8,0.9-2.1l31.9-12.9c0.4-0.2,0.9-0.1,1.3,0.1c0.4,0.2,0.7,0.5,0.9,0.9l12.9,31.9
					C167.8,93.5,167.5,94.4,166.9,94.8z M134.9,104.2l28.9-11.7l-11.7-28.9l-28.9,11.7L134.9,104.2z"/>
			</g>
		</g>
		<g>
			<polygon class="st5" points="103,68.2 95,100.9 128,109.5 135.9,76.2 			"/>
			<g>
				<path class="st2" d="M128,111.5c-0.1,0-0.3,0-0.4-0.1L94.2,103c-0.4-0.1-0.8-0.4-1-0.8s-0.3-0.8-0.2-1.3l8.4-33.4
					c0.2-0.9,1.1-1.4,2-1.2l33.4,8.4c0.4,0.1,0.8,0.4,1,0.8s0.3,0.8,0.2,1.3l-8.4,33.4C129.4,111,128.7,111.5,128,111.5z
					 M96.6,100.2l30.2,7.6l7.6-30.2L104.2,70L96.6,100.2z"/>
			</g>
		</g>
	</g>
</g>
<g>
	<g class="st0">
		<polygon class="st6" points="44.2,77.1 44.2,97.5 23.7,97 23.7,77.1 		"/>
		<g class="st1">
			<path class="st2" d="M44.6,99.7l-21.2-0.2c-1,0-1.7-0.8-1.7-1.7l0.2-21.2c0-1,0.8-1.7,1.7-1.7l0,0L44.8,75c1,0,1.7,0.8,1.7,1.7
				l-0.2,21.2C46.3,98.9,45.5,99.7,44.6,99.7L44.6,99.7z M25.2,78.2L25,96l17.8,0.2l0.2-17.8L25.2,78.2z"/>
		</g>
	</g>
	<g>
		<polygon class="st5" points="62.2,56 60,76 39.2,73.7 41,53.2 		"/>
		<g>
			<path class="st2" d="M59.6,78.1l-21.1-2.4c-1-0.1-1.6-0.9-1.5-1.8l2.4-21c0.1-0.5,0.4-0.9,0.7-1.1c0.4-0.3,0.8-0.4,1.3-0.4
				l21.1,2.4c1,0.1,1.6,0.9,1.5,1.8l-2.4,21.1c-0.1,0.5-0.4,0.9-0.7,1.1c-0.1,0-0.2,0.1-0.3,0.1C60.3,78.1,59.9,78.2,59.6,78.1z
				 M42.7,54.8l-2,17.7l17.7,2l2-17.7L42.7,54.8z"/>
		</g>
	</g>
	<g class="st0">
		<polygon class="st6" points="59.4,72 76.4,83.6 64.9,100.9 48.2,89.8 		"/>
		<g class="st1">
			<path class="st2" d="M64.3,102.5L46.5,90.7c-0.8-0.5-1-1.5-0.5-2.3l11.7-17.6c0.3-0.4,0.7-0.6,1.1-0.7c0.5-0.1,0.9,0,1.3,0.2
				L77.8,82c0.8,0.5,1,1.5,0.5,2.3l-11.8,17.7c-0.3,0.4-0.7,0.6-1.1,0.7c-0.1,0-0.2,0-0.3,0C64.9,102.8,64.5,102.7,64.3,102.5z
				 M59.7,74l-9.8,14.9l14.9,9.8l9.8-14.9L59.7,74z"/>
		</g>
	</g>
</g>
<g class="st0">
	<g class="st1">
		<polygon class="st5" points="217.8,77.4 217.8,97.5 238,97 238,77.4 		"/>
		<g>
			<path class="st2" d="M217.4,99.6c-0.9,0-1.7-0.7-1.7-1.7L215.5,77c0-0.9,0.7-1.7,1.7-1.7l20.9-0.2l0,0c0.9,0,1.7,0.7,1.7,1.7
				l0.2,20.9c0,0.9-0.7,1.7-1.7,1.7L217.4,99.6L217.4,99.6z M218.9,78.6l0.2,17.6l17.6-0.2l-0.2-17.6L218.9,78.6z"/>
		</g>
	</g>
	<g class="st1">
		<polygon class="st5" points="200.1,56.5 202.2,76.2 222.8,74 221,53.8 		"/>
		<g>
			<path class="st2" d="M201.6,78.2c-0.1,0-0.2-0.1-0.3-0.1c-0.3-0.3-0.6-0.6-0.7-1.1l-2.4-20.9c-0.1-0.9,0.5-1.7,1.5-1.8l20.9-2.4
				c0.4,0,0.8,0.1,1.2,0.4c0.3,0.3,0.6,0.6,0.7,1.1l2.4,20.7c0.1,0.9-0.5,1.7-1.5,1.8l-20.9,2.4C202.3,78.4,201.9,78.3,201.6,78.2z
				 M201.8,57.3l2,17.5l17.5-2l-2-17.5L201.8,57.3z"/>
		</g>
	</g>
	<g class="st1">
		<polygon class="st5" points="202.8,72.3 186,83.8 197.4,100.9 213.9,89.9 		"/>
		<g>
			<path class="st2" d="M197.1,102.7c-0.1,0-0.2,0-0.3,0c-0.4-0.1-0.8-0.3-1.1-0.7l-11.6-17.5c-0.5-0.8-0.3-1.8,0.5-2.3l17.5-11.6
				c0.4-0.2,0.8-0.3,1.3-0.2c0.4,0.1,0.8,0.3,1.1,0.7L216,88.5c0.5,0.8,0.3,1.8-0.5,2.3L198,102.4
				C197.8,102.6,197.4,102.7,197.1,102.7z M187.8,84l9.7,14.7l14.7-9.7l-9.7-14.7L187.8,84z"/>
		</g>
	</g>
</g>
<g class="st0">
	<g class="st1">
		<g>
			<path class="st7" d="M186.7,188.9H73.9c-31.2,0-41.9-18.1-51.7-44.8c-4.5-12.4-12.1-44.8-12.1-44.8s21.4,0,39,0h157.3
				c17.6,0,39,0,39,0s-6.4,31.4-10,42.5C226.7,168.8,215.2,188.9,186.7,188.9z"/>
			<path class="st2" d="M186.7,190.5H73.9c-15.2,0-26.4-4.1-35.1-12.9c-8.5-8.6-13.7-20.9-18.2-33c-4.5-12.4-11.9-43.7-12.2-45
				c-0.1-0.5,0-1,0.3-1.4s0.8-0.6,1.3-0.6h235.3c0.5,0,1,0.2,1.3,0.6s0.4,0.9,0.3,1.4c-0.3,1.3-6.5,31.6-10,42.7
				C227.6,171.2,215.5,190.5,186.7,190.5z M12.2,100.9c1.7,7.3,7.8,32.2,11.6,42.6c4.3,11.7,9.4,23.7,17.4,31.8s18.4,11.9,32.7,11.9
				h112.8c26.7,0,38.2-18.4,47.1-46c3-9.3,8.1-33.2,9.5-40.3C243.3,100.9,12.2,100.9,12.2,100.9z"/>
		</g>
		<g>
			<polyline class="st7" points="1.7,99.2 121.5,99.2 254.3,99.2 			"/>
			<path class="st2" d="M254.3,100.9H1.7c-0.9,0-1.7-0.7-1.7-1.7s0.7-1.7,1.7-1.7h252.7c0.9,0,1.7,0.7,1.7,1.7
				S255.3,100.9,254.3,100.9z"/>
		</g>
		<g>
			<line class="st4" x1="195.3" y1="189.4" x2="201" y2="211.3"/>
			<path class="st2" d="M201,213c-0.7,0-1.4-0.5-1.6-1.2l-5.7-21.9c-0.2-0.9,0.3-1.8,1.2-2s1.8,0.3,2,1.2l5.7,21.9
				c0.2,0.9-0.3,1.8-1.2,2C201.3,213,201.1,213,201,213z"/>
		</g>
		<g>
			<line class="st4" x1="64" y1="189.4" x2="58.3" y2="211.3"/>
			<path class="st2" d="M58.3,213c-0.1,0-0.3,0-0.4-0.1c-0.9-0.2-1.4-1.1-1.2-2l5.7-21.9c0.2-0.9,1.1-1.4,2-1.2
				c0.9,0.2,1.4,1.1,1.2,2l-5.7,21.9C59.7,212.5,59,213,58.3,213z"/>
		</g>
	</g>
</g>
</svg>
