<?xml version="1.0" encoding="utf-8"?>
<!-- Generator: Adobe Illustrator 15.0.0, SVG Export Plug-In . SVG Version: 6.00 Build 0)  -->
<!DOCTYPE svg PUBLIC "-//W3C//DTD SVG 1.1//EN" "http://www.w3.org/Graphics/SVG/1.1/DTD/svg11.dtd">
<svg version="1.1" id="Layer_1" xmlns="http://www.w3.org/2000/svg" xmlns:xlink="http://www.w3.org/1999/xlink" x="0px" y="0px"
	 width="351px" height="456px" viewBox="0 0 351 456" enable-background="new 0 0 351 456" xml:space="preserve">
<path fill="none" stroke="#FFFFFF" stroke-width="8" stroke-linecap="round" stroke-miterlimit="10" d="M124,267.02
	c0,0,71.204,105.766,90.113,183.145l71.551-21.344c0,0-47.998-174.889-0.363-218.11c27.121,9.302,81.904-33.268,52.488-75.901
	c0,0,16.748-58.15-30.551-69.782c0,0-6.898-81.425-64.162-42.081c0,0-45.48-42.089-79.745,5.7c0,0-67.233-23.077-91.395,33.524
	c0,0-29.825,2.636-35.932,28.807c0,0-61.026,28.64-6.967,86.257c0,0-41.521,82.371,52.604,85.393
	C81.643,262.627,101.767,288.107,124,267.02z"/>
<path fill="none" stroke="#FFFFFF" stroke-width="8" stroke-linecap="round" stroke-miterlimit="10" d="M100.612,221.279
	c0,0-14.326-27.033,16.228-45.886c30.551-18.854,52.295,9.727,52.295,9.727"/>
<path fill="none" stroke="#FFFFFF" stroke-width="8" stroke-linecap="round" stroke-miterlimit="10" d="M151.145,124.809
	c23.506-54.136,70.257-39.67,77.701-3.521c8.631-5.157,19.639-6.133,29.045-2.576c9.404,3.559,17.01,11.577,20.064,21.156"/>
<path fill="none" stroke="#FFFFFF" stroke-width="8" stroke-linecap="round" stroke-miterlimit="10" d="M138.051,262.828
	c0,0,37.166,26.637,64.107-11.314c0,0,19.344,22.865,31.908,2.016"/>
<path fill="none" stroke="#FFFFFF" stroke-width="8" stroke-linecap="round" stroke-miterlimit="10" d="M165.436,271.891
	c3.558-0.045,40.123,51.656,45.269,68.904c5.145,17.25-18.103-77.008-18.103-77.008"/>
<path fill="none" stroke="#FFFFFF" stroke-width="8" stroke-linecap="round" stroke-miterlimit="10" d="M209.05,258.88
	c1.582,4.715,11.84,60.094,11.84,60.094s-0.561-47.983,8.236-59.577"/>
<rect x="24.724" y="5.84" transform="matrix(-0.9583 0.2859 -0.2859 -0.9583 456.0072 388.2746)" fill="none" width="349.882" height="443.16"/>
</svg>
