<?xml version="1.0" encoding="utf-8"?>
<!-- Generator: Adobe Illustrator 15.0.0, SVG Export Plug-In . SVG Version: 6.00 Build 0)  -->
<!DOCTYPE svg PUBLIC "-//W3C//DTD SVG 1.1//EN" "http://www.w3.org/Graphics/SVG/1.1/DTD/svg11.dtd">
<svg version="1.1" id="Layer_1" xmlns="http://www.w3.org/2000/svg" xmlns:xlink="http://www.w3.org/1999/xlink" x="0px" y="0px"
	 width="837.681px" height="409.728px" viewBox="0 0 837.681 409.728" enable-background="new 0 0 837.681 409.728"
	 xml:space="preserve">
<circle fill="none" stroke="#FFFFFF" stroke-width="4" stroke-miterlimit="10" cx="797.348" cy="192.103" r="38.333"/>
<circle fill="none" stroke="#FFFFFF" stroke-width="4" stroke-miterlimit="10" cx="49.721" cy="62.449" r="13.392"/>
<circle fill="none" stroke="#FFFFFF" stroke-width="4" stroke-miterlimit="10" cx="126.239" cy="38.549" r="13.392"/>
<path fill="none" stroke="#FFFFFF" stroke-width="4" stroke-miterlimit="10" d="M36.938,66.442c0,0-53.638,7.159-27.995,66.898
	c23.921,55.727,44.452,106.436,54.493,120.323"/>
<path fill="none" stroke="#FFFFFF" stroke-width="4" stroke-miterlimit="10" d="M37.531,68.338
	c-13.442,4.225-41.43,18.888-21.493,65.334c25.643,59.738,45.8,108.618,54.906,117.647"/>
<path fill="none" stroke="#FFFFFF" stroke-width="4" stroke-miterlimit="10" d="M138.422,34.744c0,0,48.178-24.642,61.094,39.071
	c12.916,63.714,24.267,117.894,21.919,130.5"/>
<path fill="none" stroke="#FFFFFF" stroke-width="4" stroke-miterlimit="10" d="M139.014,36.641
	c13.457-4.176,44.815-8.05,54.857,41.487c12.916,63.713,24.164,115.376,21.816,127.983"/>
<path fill="none" stroke="#FFFFFF" stroke-width="4" stroke-miterlimit="10" d="M176.591,338.107
	c68.659-21.444,58.994-106.928,54.891-130.657c-0.569-3.291-4.157-5.214-7.664-4.118l-12.153,3.796
	c-2.873,0.896-4.725,3.551-4.381,6.268c2.385,18.89,8.023,89.047-37.401,103.235c-45.424,14.188-80.72-46.707-89.509-63.595
	c-1.264-2.431-4.298-3.559-7.171-2.661l-12.152,3.796c-3.508,1.096-5.363,4.72-3.958,7.748
	C67.226,283.765,107.932,359.552,176.591,338.107z"/>
<path fill="none" stroke="#FFFFFF" stroke-width="4" stroke-miterlimit="10" d="M293.939,407.728c-2.909,0-5.83-0.122-8.765-0.367
	c-33.091-2.756-61.623-20.882-79.73-35.602c-19.521-15.869-32.168-31.928-32.654-32.559l7.52-2.348
	c0.457,0.594,45.435,58.556,105.481,63.535c30.033,2.493,58.825-8.854,85.544-33.721c39.871-37.106,45.689-93.685,51.849-153.583
	c9.037-87.877,18.382-178.748,141.766-206.542l0.117-0.023c66.727-12.663,129.544,1.487,176.879,39.843
	c36.396,29.491,59.491,70.618,60.272,107.331l-6.998,0.148c-0.739-34.71-22.842-73.81-57.681-102.041
	C691.846,14.776,631.083,1.134,566.432,13.385c-28.525,6.432-51.452,16.369-70.091,30.378
	c-16.513,12.412-29.272,27.782-39.006,46.989c-18.232,35.973-22.785,80.239-27.188,123.048
	c-6.021,58.55-12.247,119.093-54.043,157.992C350.454,395.665,322.851,407.728,293.939,407.728z"/>
<circle fill="none" stroke="#FFFFFF" stroke-width="4" stroke-miterlimit="10" cx="797.348" cy="192.103" r="30.495"/>
</svg>
