<?xml version="1.0" encoding="utf-8"?>
<!-- Generator: Adobe Illustrator 15.0.0, SVG Export Plug-In . SVG Version: 6.00 Build 0)  -->
<!DOCTYPE svg PUBLIC "-//W3C//DTD SVG 1.1//EN" "http://www.w3.org/Graphics/SVG/1.1/DTD/svg11.dtd">
<svg version="1.1" id="Layer_1" xmlns="http://www.w3.org/2000/svg" xmlns:xlink="http://www.w3.org/1999/xlink" x="0px" y="0px"
	 width="421.633px" height="347.709px" viewBox="0 0 421.633 347.709" enable-background="new 0 0 421.633 347.709"
	 xml:space="preserve">
<ellipse fill="none" stroke="#FFFFFF" stroke-width="5" stroke-miterlimit="10" cx="141" cy="233.166" rx="138.5" ry="79.5"/>
<path fill="none" stroke="#FFFFFF" stroke-width="5" stroke-miterlimit="10" d="M2.5,233.166v32.519c0,0,1,75.02,138.5,79.5
	c0,0,120.5,3.481,138.5-73.519v-43"/>
<line fill="none" stroke="#FFFFFF" stroke-width="5" stroke-miterlimit="10" x1="141" y1="153.666" x2="141" y2="312.666"/>
<ellipse transform="matrix(0.9701 0.2427 -0.2427 0.9701 29.5067 -66.191)" fill="none" stroke="#FFFFFF" stroke-width="5" stroke-miterlimit="10" cx="283.378" cy="86.653" rx="138.5" ry="79.499"/>
<path fill="none" stroke="#FFFFFF" stroke-width="5" stroke-miterlimit="10" d="M264.683,197.355
	c27.409,5.896,113.484,19.062,143.709-39.737l10.437-41.714"/>
<line fill="none" stroke="#FFFFFF" stroke-width="5" stroke-miterlimit="10" x1="302.675" y1="9.53" x2="264.082" y2="163.775"/>
<path fill="none" stroke="#FFFFFF" stroke-width="5" stroke-miterlimit="10" d="M149.02,53.035l-7.893,31.547
	c0,0-8.652,36.647,33.342,71.428"/>
</svg>
