<?xml version="1.0" encoding="utf-8"?>
<!-- Generator: Adobe Illustrator 15.0.0, SVG Export Plug-In . SVG Version: 6.00 Build 0)  -->
<!DOCTYPE svg PUBLIC "-//W3C//DTD SVG 1.1//EN" "http://www.w3.org/Graphics/SVG/1.1/DTD/svg11.dtd">
<svg version="1.1" id="Layer_1" xmlns="http://www.w3.org/2000/svg" xmlns:xlink="http://www.w3.org/1999/xlink" x="0px" y="0px"
	 width="73.756px" height="79.299px" viewBox="0 0 73.756 79.299" enable-background="new 0 0 73.756 79.299" xml:space="preserve">
<g>
	<line fill="none" stroke="#FFFFFF" stroke-miterlimit="10" x1="35.741" y1="9.165" x2="41.588" y2="6.623"/>
	<line fill="none" stroke="#FFFFFF" stroke-miterlimit="10" x1="26.57" y1="13.152" x2="32.417" y2="10.61"/>
	<line fill="none" stroke="#FFFFFF" stroke-miterlimit="10" x1="17.343" y1="17.165" x2="23.246" y2="14.598"/>
	<line fill="none" stroke="#FFFFFF" stroke-miterlimit="10" x1="8.287" y1="21.103" x2="14.133" y2="18.56"/>
	<path fill="none" stroke="#FFFFFF" stroke-miterlimit="10" d="M45.256,5.028l1.669-0.726c2.026-0.881,4.383,0.047,5.264,2.073
		l20.734,47.687c0.881,2.026-0.047,4.382-2.073,5.263L26.831,78.466c-2.025,0.881-4.383-0.047-5.264-2.074L0.833,28.706
		c-0.881-2.026,0.048-4.383,2.073-5.264l1.884-0.819"/>
	<path fill="none" stroke="#FFFFFF" stroke-miterlimit="10" d="M66.507,61.216l-1.919-4.414c-0.881-2.027,0.047-4.383,2.073-5.264
		l4.336-1.885"/>
	<line fill="none" stroke="#FFFFFF" stroke-miterlimit="10" x1="5.035" y1="38.055" x2="56.161" y2="15.825"/>
	<path fill="none" stroke="#FFFFFF" stroke-miterlimit="10" d="M29.484,40.078c0.317-2.235,1.754-4.255,3.975-5.221
		c3.403-1.479,7.361,0.081,8.841,3.482c1.479,3.404-0.079,7.363-3.482,8.841"/>
	<path fill="none" stroke="#FFFFFF" stroke-miterlimit="10" d="M37.727,59.034c1.851,1.291,4.309,1.619,6.529,0.654
		c3.403-1.479,4.962-5.438,3.482-8.84c-1.479-3.404-5.438-4.963-8.841-3.484"/>
	<path fill="none" stroke="#FFFFFF" stroke-miterlimit="10" d="M9.026,23.115l-2.404-5.528c-0.397-0.914-1.461-1.334-2.375-0.937
		c-0.916,0.397-1.334,1.462-0.937,2.376l2.404,5.529"/>
	<path fill="none" stroke="#FFFFFF" stroke-miterlimit="10" d="M9.026,23.115l0.697,1.604c0.396,0.914-0.021,1.979-0.936,2.376
		c-0.915,0.398-1.979-0.022-2.377-0.936l-0.696-1.604c-0.685,0.966-0.87,2.249-0.364,3.413c0.771,1.772,2.833,2.584,4.605,1.813
		c1.772-0.771,2.585-2.832,1.814-4.604C11.265,24.012,10.198,23.273,9.026,23.115z"/>
	<path fill="none" stroke="#FFFFFF" stroke-miterlimit="10" d="M5.715,24.555l0.696,1.604c0.398,0.914,1.462,1.334,2.377,0.936
		c0.914-0.397,1.332-1.462,0.936-2.376l-0.697-1.604"/>
	<path fill="none" stroke="#FFFFFF" stroke-miterlimit="10" d="M18.226,19.115l-2.404-5.528c-0.397-0.914-1.461-1.334-2.375-0.937
		c-0.916,0.398-1.334,1.462-0.936,2.376l2.403,5.529"/>
	<path fill="none" stroke="#FFFFFF" stroke-miterlimit="10" d="M18.226,19.115l0.697,1.604c0.396,0.914-0.021,1.979-0.936,2.376
		c-0.916,0.398-1.979-0.021-2.376-0.936l-0.697-1.604c-0.685,0.965-0.87,2.248-0.364,3.412c0.771,1.772,2.833,2.584,4.605,1.813
		c1.772-0.771,2.585-2.832,1.814-4.604C20.464,20.012,19.397,19.273,18.226,19.115z"/>
	<path fill="none" stroke="#FFFFFF" stroke-miterlimit="10" d="M14.914,20.555l0.697,1.604c0.397,0.914,1.461,1.334,2.376,0.936
		c0.914-0.397,1.332-1.462,0.936-2.376l-0.697-1.604"/>
	<path fill="none" stroke="#FFFFFF" stroke-miterlimit="10" d="M27.425,15.115l-2.404-5.529c-0.396-0.914-1.461-1.333-2.375-0.936
		c-0.916,0.397-1.334,1.462-0.936,2.376l2.403,5.529"/>
	<path fill="none" stroke="#FFFFFF" stroke-miterlimit="10" d="M27.425,15.115l0.697,1.604c0.397,0.914-0.021,1.979-0.936,2.376
		c-0.915,0.398-1.979-0.022-2.376-0.936l-0.697-1.604c-0.684,0.965-0.87,2.248-0.364,3.412c0.771,1.772,2.833,2.584,4.605,1.814
		c1.773-0.771,2.585-2.833,1.814-4.605C29.663,16.012,28.597,15.273,27.425,15.115z"/>
	<path fill="none" stroke="#FFFFFF" stroke-miterlimit="10" d="M24.113,16.555l0.697,1.604c0.397,0.914,1.461,1.334,2.376,0.936
		c0.914-0.397,1.333-1.462,0.936-2.376l-0.697-1.604"/>
	<path fill="none" stroke="#FFFFFF" stroke-miterlimit="10" d="M36.623,11.115L34.22,5.586c-0.398-0.914-1.461-1.334-2.375-0.937
		c-0.916,0.398-1.334,1.462-0.936,2.376l2.403,5.529"/>
	<path fill="none" stroke="#FFFFFF" stroke-miterlimit="10" d="M36.623,11.115l0.697,1.604c0.397,0.914-0.021,1.978-0.935,2.376
		c-0.915,0.398-1.979-0.022-2.376-0.936l-0.697-1.604c-0.683,0.965-0.87,2.248-0.364,3.412c0.771,1.772,2.833,2.584,4.605,1.814
		c1.773-0.771,2.585-2.833,1.814-4.605C38.862,12.012,37.796,11.273,36.623,11.115z"/>
	<path fill="none" stroke="#FFFFFF" stroke-miterlimit="10" d="M33.312,12.555l0.697,1.604c0.397,0.914,1.461,1.334,2.376,0.936
		c0.914-0.398,1.333-1.462,0.936-2.376l-0.697-1.604"/>
	<path fill="none" stroke="#FFFFFF" stroke-miterlimit="10" d="M45.823,7.115l-2.404-5.528c-0.396-0.914-1.461-1.334-2.375-0.937
		c-0.916,0.398-1.334,1.462-0.936,2.376l2.403,5.529"/>
	<path fill="none" stroke="#FFFFFF" stroke-miterlimit="10" d="M45.823,7.115l0.697,1.604c0.397,0.914-0.021,1.979-0.936,2.376
		c-0.915,0.398-1.979-0.022-2.376-0.936l-0.697-1.604c-0.683,0.965-0.87,2.248-0.364,3.412c0.771,1.772,2.833,2.585,4.605,1.814
		c1.773-0.771,2.586-2.833,1.814-4.605C48.062,8.012,46.996,7.273,45.823,7.115z"/>
	<path fill="none" stroke="#FFFFFF" stroke-miterlimit="10" d="M42.512,8.555l0.697,1.604c0.397,0.914,1.461,1.334,2.376,0.936
		c0.914-0.397,1.333-1.462,0.936-2.376l-0.697-1.604"/>
	<line fill="none" stroke="#FFFFFF" stroke-miterlimit="10" x1="66.494" y1="61.083" x2="70.965" y2="49.735"/>
</g>
</svg>
