<?xml version="1.0" encoding="utf-8"?>
<!-- Generator: Adobe Illustrator 15.0.0, SVG Export Plug-In . SVG Version: 6.00 Build 0)  -->
<!DOCTYPE svg PUBLIC "-//W3C//DTD SVG 1.1//EN" "http://www.w3.org/Graphics/SVG/1.1/DTD/svg11.dtd">
<svg version="1.1" id="Layer_1" xmlns="http://www.w3.org/2000/svg" xmlns:xlink="http://www.w3.org/1999/xlink" x="0px" y="0px"
	 width="251.415px" height="237.3px" viewBox="0 0 251.415 237.3" enable-background="new 0 0 251.415 237.3" xml:space="preserve">
<path fill="#FFFFFF" d="M247.581,147.376v-16.033L203.86,83.192h-16.923v-30.62h-24.922v-3.833c0-8.462-6.872-15.334-15.333-15.334
	s-15.333,6.872-15.333,15.334v3.833H18.41v128.322h38.614c1.87,12.948,13.043,23,26.506,23c13.464,0,24.637-10.005,26.507-23h69.561
	c1.87,12.948,13.043,23,26.506,23s24.636-10.005,26.506-23h14.971v-8.695c2.291-1.31,3.834-3.787,3.834-6.638v-11.5
	C251.415,151.209,249.872,148.731,247.581,147.376 M139.062,48.692c0-4.207,3.459-7.667,7.667-7.667
	c4.207,0,7.667,3.413,7.667,7.667v3.833h-15.334V48.692z M83.53,196.181c-10.565,0-19.166-8.602-19.166-19.167
	c0-10.564,8.601-19.167,19.166-19.167s19.167,8.603,19.167,19.167C102.697,187.579,94.095,196.181,83.53,196.181 M179.271,173.181
	h-69.234c-1.87-12.949-13.043-23-26.507-23c-13.463,0-24.636,10.005-26.506,23H26.077v-28.701h153.194V173.181z M179.271,136.812
	H26.078V60.192h153.194V136.812z M186.938,90.812h13.744l33.811,38.287h-47.555V90.812z M206.104,196.181
	c-10.565,0-19.167-8.602-19.167-19.167c0-10.564,8.602-19.167,19.167-19.167c10.564,0,19.167,8.603,19.167,19.167
	C225.271,187.579,216.669,196.181,206.104,196.181 M243.748,165.514h-3.833v7.667h-7.305c-1.87-12.949-13.043-23-26.506-23
	c-7.48,0-14.258,3.086-19.167,8.088v-21.502h52.978v17.2h3.833V165.514z"/>
<path fill="#FFFFFF" d="M52.864,125.312h23v-15.333h15.333v-23H75.864V71.645h-23v15.334H37.577v23h15.334v15.333H52.864z
	 M45.244,102.312v-7.667h15.333V79.359h7.667v15.333h15.334v7.667H68.244v15.333h-7.713v-15.333H45.244V102.312z"/>
<path fill="#FFFFFF" d="M34.305,45.572C54.792,21.958,85.007,7,118.65,7c55.285,0,101.305,40.392,110.12,93.212l8.154,8.98
	C232.089,48.173,180.891,0,118.65,0C80.768,0,46.977,17.846,25.238,45.572H34.305z"/>
<path fill="#FFFFFF" d="M188.368,205.789c-19.119,15.327-43.364,24.51-69.717,24.51c-35.429,0-67.053-16.589-87.521-42.404h-8.768
	c21.564,29.901,56.689,49.404,96.289,49.404c29.218,0,55.998-10.621,76.696-28.199C192.89,208.262,190.549,207.148,188.368,205.789"
	/>
<path fill="#FFFFFF" d="M11.411,149.743C8.542,139.868,7,129.437,7,118.649c0-10.786,1.543-21.219,4.411-31.093V67.913
	C4.1,83.305,0,100.506,0,118.649c0,18.143,4.1,35.345,11.411,50.736V149.743z"/>
</svg>
