<?xml version="1.0" encoding="utf-8"?>
<!-- Generator: Adobe Illustrator 15.0.0, SVG Export Plug-In . SVG Version: 6.00 Build 0)  -->
<!DOCTYPE svg PUBLIC "-//W3C//DTD SVG 1.1//EN" "http://www.w3.org/Graphics/SVG/1.1/DTD/svg11.dtd">
<svg version="1.1" id="Layer_1" xmlns="http://www.w3.org/2000/svg" xmlns:xlink="http://www.w3.org/1999/xlink" x="0px" y="0px"
	 width="280.545px" height="244.3px" viewBox="0 0 280.545 244.3" enable-background="new 0 0 280.545 244.3" xml:space="preserve">
<polygon fill="#FFFFFF" points="185.522,93.109 178.585,92.174 185.365,42.466 192.303,43.401 "/>
<path fill="#FFFFFF" d="M280.507,95.595c1.476-27.243-40.708-52.046-96.659-56.651c-56.44-4.645-102.436,13.273-104.7,40.797
	c-0.148,1.795-0.094,3.586,0.134,5.369c0.001,0,0.002,0,0.003-0.001c-47.5,13.902-80.317,41.218-79.114,65.583H0v27.714h0.14
	c-0.024,2.254,0.237,4.484,0.797,6.682c3.378,13.23,17.018,22.767,38.408,26.853c7.52,1.436,15.71,2.147,24.338,2.147
	c14.863,0,31.026-2.112,47.299-6.266c35.89-9.165,64.382-25.997,77.903-44.033c-0.001,0.002-0.002,0.004-0.003,0.005
	c1.5,0.032,2.991,0.05,4.472,0.05c47.886,0,84.697-16.762,87.064-41.16h0.088v-1.303c0.037-0.809,0.039-1.616,0-2.421V95.595z
	 M88.347,89.871c15.722-4.014,31.287-6.055,45.547-6.055c8.184,0,15.939,0.673,23.044,2.03c18.572,3.548,30.27,11.257,32.938,21.708
	c5.255,20.581-26.131,47.361-70.103,61.192L78.256,92.734C81.554,91.705,84.919,90.746,88.347,89.871 M71.505,94.976l41.398,75.795
	c-1.21,0.334-2.427,0.659-3.653,0.973c-24.745,6.319-49.104,7.749-68.592,4.025c-18.572-3.548-30.269-11.257-32.937-21.708
	C2.721,134.48,30.888,109.29,71.505,94.976 M109.25,201.038c-24.745,6.32-49.104,7.749-68.592,4.026
	c-18.572-3.549-30.269-11.258-32.937-21.708c-0.297-1.162-0.583-2.934-0.868-4.95H7v-11.385c6.559,7.41,17.613,12.811,32.345,15.625
	c7.52,1.436,15.71,2.147,24.338,2.147c14.863,0,31.026-2.112,47.299-6.266c37.322-9.53,66.662-27.352,79.468-46.195
	c0,0,0.104,8.602-0.061,10.717C188.737,164.235,154.14,189.578,109.25,201.038 M273.507,121.412
	c-0.007,0.11-0.009,0.218-0.018,0.328c-1.665,20.233-36.823,34.906-80.156,35.063c-0.001,0.001-0.001,0.002-0.002,0.003
	c2.283-4.358,3.675-8.737,4.03-13.052l0.089-1.893c0.003-0.242,0.004-0.482,0-0.724v-3.341c34.928-0.707,63.423-10.438,76.055-25.5
	c-0.365,0.452-0.113,4.96,0.002,6.794V121.412z M273.53,94.97h-0.023v0.437c-0.007,0.111-0.008,0.222-0.018,0.333
	c-1.612,19.588-34.615,33.968-76.039,35.007v-18.141c0.032-2.288-0.222-4.555-0.791-6.784c-3.378-13.23-17.018-22.766-38.407-26.852
	c-20.474-3.909-45.916-2.447-71.638,4.118c-0.16,0.041-0.316,0.086-0.476,0.127c-0.071-0.968-0.094-1.935-0.015-2.899
	c1.675-20.345,37.199-35.069,80.862-35.069c5.323,0,10.771,0.219,16.288,0.673C233.483,50.053,274.432,72.404,273.53,94.97"/>
<path fill="#FFFFFF" d="M16.992,108.591c1.712-1.421,3.508-2.818,5.378-4.19C30.931,49.304,78.693,7,136.151,7
	c29.337,0,56.142,11.034,76.497,29.162c4.621,1.009,9.117,2.161,13.466,3.453C203.771,15.28,171.713,0,136.151,0
	C72.664,0,20.343,48.688,14.544,110.685C15.339,109.984,16.155,109.286,16.992,108.591"/>
<path fill="#FFFFFF" d="M243.465,163.902C226.71,206.816,184.926,237.3,136.151,237.3c-21.835,0-42.27-6.109-59.686-16.708
	c-4.034,0.298-8.004,0.459-11.885,0.48c20.127,14.603,44.859,23.228,71.571,23.228c53.827,0,99.631-34.999,115.858-83.435
	C249.281,161.96,246.438,162.979,243.465,163.902"/>
</svg>
