<?xml version="1.0" encoding="utf-8"?>
<!-- Generator: Adobe Illustrator 21.1.0, SVG Export Plug-In . SVG Version: 6.00 Build 0)  -->
<svg version="1.1" id="Layer_1" xmlns="http://www.w3.org/2000/svg" xmlns:xlink="http://www.w3.org/1999/xlink" x="0px" y="0px"
	 viewBox="0 0 876.3 121.5" style="enable-background:new 0 0 876.3 121.5;" xml:space="preserve">
<style type="text/css">
	.st0{fill:#FBB315;}
	.st1{fill:none;stroke:#FFFFFF;stroke-width:8;stroke-linecap:round;stroke-miterlimit:10;}
</style>
<g id="Layer_2">
	<path class="st0" d="M872.3-359.8v-312.8H747v280.5c0,15.4-12.5,27.8-27.8,27.8H241c-66.8,0-121.4,54.6-121.4,121.4l0,0
		c0,66.8,54.6,121.4,121.4,121.4c-66.8,0-121.4,54.6-121.4,121.4l0,0c0,66.8,54.6,121.4,121.4,121.4c-66.8,0-121.4,54.6-121.4,121.4
		l0,0c0,48.9,29.4,91.4,71.3,110.5l-0.5,1.1c-15.1-4.6-28.4-8.6-44.7-8.6c-87.2,0-141.4,65.5-141.4,146.4c0,67,33.2,113.3,78,132
		c30.6,12.8,37.2,79.1,37.2,79.1h62.7c0,0-1.3-67.7,23.6-78.2c39.2-16.6,81.1-61.8,81.1-139.5c130.6,0,439.2,0,439.2,0
		c66.8,0,121.4-54.6,121.4-121.4l0,0c0-66.8-54.6-121.4-121.4-121.4c66.8,0,121.4-54.6,121.4-121.4l0,0
		c0-66.8-54.6-121.4-121.4-121.4c66.8,0,121.4-54.6,121.4-121.4l0,0c0-66.8-54.6-121.4-121.4-121.4h29.1
		C819.7-242.8,872.3-295.5,872.3-359.8z"/>
</g>
<g id="Layer_2_copy">
	<path class="st1" d="M726.2-121.4H241c-66.8,0-121.4-54.6-121.4-121.4l0,0c0-66.8,54.6-121.4,121.4-121.4h478.2
		c15.4,0,27.8-12.5,27.8-27.8v-280.5"/>
	<path class="st1" d="M241-242.8h485.2c66.8,0,121.4,54.6,121.4,121.4l0,0C847.6-54.6,793,0,726.2,0H241"/>
	<path class="st1" d="M726.2,121.4H241c-66.8,0-121.4-54.6-121.4-121.4l0,0c0-66.8,54.6-121.4,121.4-121.4h485.2"/>
	<path class="st1" d="M241,0h485.2C793,0,847.6,54.6,847.6,121.4l0,0c0,66.8-54.6,121.4-121.4,121.4H241"/>
	<path class="st1" d="M726.2,364.3H241c-66.8,0-121.4-54.6-121.4-121.4l0,0c0-66.8,54.6-121.4,121.4-121.4h485.2"/>
	<path class="st1" d="M241,242.9h485.2c66.8,0,121.4,54.6,121.4,121.4l0,0c0,66.8-54.6,121.4-121.4,121.4c0,0-411.2,0-485.2,0
		s-100.7-20.6-100.7-20.6"/>
	<g>
		<path class="st1" d="M872.3-672.6v312.8c0,64.4-52.6,117-117,117H481.7"/>
	</g>
	<path class="st1" d="M207.1,359.4c-23-6.3-39.3-13.5-61.4-13.5c-87.2,0-141.4,65.5-141.4,146.4c0,67,33.2,113.3,78,132
		c30.6,12.8,37.2,79.1,37.2,79.1"/>
	<path class="st1" d="M182.3,703.4c0,0-1.3-67.7,23.6-78.2c39.2-16.6,81.1-61.8,81.1-139.5"/>
</g>
</svg>
